<svg width="543" height="455" viewBox="0 0 543 455" fill="none" xmlns="http://www.w3.org/2000/svg">
<path d="M159.703 68.7026L231.396 50L212.693 122.732L141 141.435L159.703 68.7026Z" fill="white"/>
<path d="M231.394 50L283.346 102.471L264.643 173.645L212.691 122.732L231.394 50Z" fill="url(#paint0_linear_1247_4462)"/>
<path d="M141 141.435L212.693 122.732L264.645 173.645L193.991 192.348L141 141.435Z" fill="url(#paint1_linear_1247_4462)"/>
<path d="M191.642 110.642L274.605 89L252.963 173.165L170 194.808L191.642 110.642Z" fill="url(#paint2_linear_1247_4462)"/>
<path d="M274.603 89L334.721 149.719L313.079 232.081L252.961 173.165L274.603 89Z" fill="url(#paint3_linear_1247_4462)"/>
<path d="M170 194.807L252.963 173.164L313.081 232.08L231.32 253.722L170 194.807Z" fill="url(#paint4_linear_1247_4462)"/>
<path d="M504.724 63.724L522.833 59L518.109 77.3713L500 82.0953L504.724 63.724Z" fill="url(#paint5_linear_1247_4462)"/>
<path d="M522.833 59L535.956 72.2536L531.232 90.2311L518.109 77.3713L522.833 59Z" fill="url(#paint6_linear_1247_4462)"/>
<path d="M500 82.0951L518.109 77.3711L531.231 90.231L513.385 94.955L500 82.0951Z" fill="url(#paint7_linear_1247_4462)"/>
<path d="M94.2201 8.22015L125.731 0L117.511 31.9673L86 40.1874L94.2201 8.22015Z" fill="url(#paint8_linear_1247_4462)"/>
<path d="M125.732 0L148.566 23.0621L140.345 54.3443L117.512 31.9673L125.732 0Z" fill="url(#paint9_linear_1247_4462)"/>
<path d="M86 40.1869L117.511 31.9668L140.344 54.3439L109.29 62.564L86 40.1869Z" fill="url(#paint10_linear_1247_4462)"/>
<path d="M339.55 27.5268L411.243 8.82422L392.541 81.5564L320.848 100.259L339.55 27.5268Z" fill="white"/>
<path d="M411.242 8.82422L463.193 61.2953L444.491 132.469L392.539 81.5564L411.242 8.82422Z" fill="url(#paint11_linear_1247_4462)"/>
<path d="M320.848 100.259L392.541 81.5566L444.492 132.469L373.838 151.172L320.848 100.259Z" fill="url(#paint12_linear_1247_4462)"/>
<path d="M380.703 177.703L452.396 159L433.693 231.732L362 250.435L380.703 177.703Z" fill="white"/>
<path d="M452.394 159L504.346 211.471L485.643 282.645L433.691 231.732L452.394 159Z" fill="url(#paint13_linear_1247_4462)"/>
<path d="M362 250.435L433.693 231.732L485.645 282.645L414.991 301.348L362 250.435Z" fill="url(#paint14_linear_1247_4462)"/>
<path d="M316.55 117.527L388.243 98.8242L369.541 171.556L297.848 190.259L316.55 117.527Z" fill="white"/>
<path d="M388.242 98.8242L440.193 151.295L421.491 222.469L369.539 171.556L388.242 98.8242Z" fill="url(#paint15_linear_1247_4462)"/>
<path d="M297.848 190.259L369.541 171.557L421.492 222.469L350.838 241.172L297.848 190.259Z" fill="url(#paint16_linear_1247_4462)"/>
<path d="M114.703 250.703L186.396 232L167.693 304.732L96 323.435L114.703 250.703Z" fill="white"/>
<path d="M186.394 232L238.346 284.471L219.643 355.645L167.691 304.732L186.394 232Z" fill="url(#paint17_linear_1247_4462)"/>
<path d="M96 323.435L167.693 304.732L219.645 355.645L148.991 374.348L96 323.435Z" fill="url(#paint18_linear_1247_4462)"/>
<path d="M203.71 227.9L275.404 209.197L256.701 281.929L185.008 300.632L203.71 227.9Z" fill="white"/>
<path d="M275.402 209.197L327.353 261.668L308.651 332.842L256.699 281.929L275.402 209.197Z" fill="url(#paint19_linear_1247_4462)"/>
<path d="M185.008 300.632L256.701 281.93L308.652 332.842L237.998 351.545L185.008 300.632Z" fill="url(#paint20_linear_1247_4462)"/>
<path d="M11.5273 256.527L55.7151 245L44.1879 289.828L0 301.356L11.5273 256.527Z" fill="url(#paint21_linear_1247_4462)"/>
<path d="M55.7148 245L87.735 277.34L76.2077 321.208L44.1875 289.828L55.7148 245Z" fill="url(#paint22_linear_1247_4462)"/>
<path d="M0 301.355L44.1879 289.828L76.2081 321.208L32.6606 332.735L0 301.355Z" fill="url(#paint23_linear_1247_4462)"/>
<path d="M418.703 330.703L490.396 312L471.693 384.732L400 403.435L418.703 330.703Z" fill="white"/>
<path d="M490.394 312L542.346 364.471L523.643 435.645L471.691 384.732L490.394 312Z" fill="url(#paint24_linear_1247_4462)"/>
<path d="M400 403.435L471.693 384.732L523.645 435.645L452.991 454.348L400 403.435Z" fill="url(#paint25_linear_1247_4462)"/>
<path d="M356.703 269.703L428.396 251L409.693 323.732L338 342.435L356.703 269.703Z" fill="white"/>
<path d="M428.394 251L480.346 303.471L461.643 374.645L409.691 323.732L428.394 251Z" fill="url(#paint26_linear_1247_4462)"/>
<path d="M338 342.435L409.693 323.732L461.645 374.645L390.991 393.348L338 342.435Z" fill="url(#paint27_linear_1247_4462)"/>
<path d="M293.851 207.64L365.544 188.938L346.842 261.67L275.148 280.372L293.851 207.64Z" fill="white"/>
<path d="M365.542 188.938L417.494 241.409L398.791 312.582L346.84 261.67L365.542 188.938Z" fill="url(#paint28_linear_1247_4462)"/>
<path d="M275.148 280.372L346.842 261.67L398.793 312.582L328.139 331.285L275.148 280.372Z" fill="url(#paint29_linear_1247_4462)"/>
<path d="M271.703 300.703L343.396 282L324.693 354.732L253 373.435L271.703 300.703Z" fill="white"/>
<path d="M343.394 282L395.346 334.471L376.643 405.645L324.691 354.732L343.394 282Z" fill="url(#paint30_linear_1247_4462)"/>
<path d="M253 373.435L324.693 354.732L376.645 405.645L305.991 424.348L253 373.435Z" fill="url(#paint31_linear_1247_4462)"/>
<defs>
<linearGradient id="paint0_linear_1247_4462" x1="248.018" y1="50" x2="248.018" y2="173.645" gradientUnits="userSpaceOnUse">
<stop stop-color="#E7E7E7"/>
<stop offset="1" stop-color="#BBBBBB"/>
</linearGradient>
<linearGradient id="paint1_linear_1247_4462" x1="144.025" y1="142.466" x2="238.65" y2="185.674" gradientUnits="userSpaceOnUse">
<stop stop-color="#E3E3E6"/>
<stop offset="1" stop-color="#DEDEDE"/>
</linearGradient>
<linearGradient id="paint2_linear_1247_4462" x1="193.217" y1="110.107" x2="252.793" y2="174.579" gradientUnits="userSpaceOnUse">
<stop stop-color="#FF1C2A"/>
<stop offset="1" stop-color="#A30009"/>
</linearGradient>
<linearGradient id="paint3_linear_1247_4462" x1="253.492" y1="171.943" x2="334.496" y2="155.163" gradientUnits="userSpaceOnUse">
<stop stop-color="#8E0810"/>
<stop offset="1" stop-color="#B1000B"/>
</linearGradient>
<linearGradient id="paint4_linear_1247_4462" x1="170" y1="193.349" x2="302.575" y2="225.993" gradientUnits="userSpaceOnUse">
<stop stop-color="#740000"/>
<stop offset="1" stop-color="#770108"/>
</linearGradient>
<linearGradient id="paint5_linear_1247_4462" x1="505.068" y1="63.6072" x2="518.072" y2="77.6799" gradientUnits="userSpaceOnUse">
<stop stop-color="#FF1C2A"/>
<stop offset="1" stop-color="#A30009"/>
</linearGradient>
<linearGradient id="paint6_linear_1247_4462" x1="518.225" y1="77.1044" x2="535.906" y2="73.4419" gradientUnits="userSpaceOnUse">
<stop stop-color="#8E0810"/>
<stop offset="1" stop-color="#B1000B"/>
</linearGradient>
<linearGradient id="paint7_linear_1247_4462" x1="500" y1="81.777" x2="528.938" y2="88.9024" gradientUnits="userSpaceOnUse">
<stop stop-color="#740000"/>
<stop offset="1" stop-color="#770108"/>
</linearGradient>
<linearGradient id="paint8_linear_1247_4462" x1="94.8183" y1="8.01686" x2="117.446" y2="32.5043" gradientUnits="userSpaceOnUse">
<stop stop-color="#FF1C2A"/>
<stop offset="1" stop-color="#A30009"/>
</linearGradient>
<linearGradient id="paint9_linear_1247_4462" x1="117.713" y1="31.5029" x2="148.48" y2="25.1299" gradientUnits="userSpaceOnUse">
<stop stop-color="#8E0810"/>
<stop offset="1" stop-color="#B1000B"/>
</linearGradient>
<linearGradient id="paint10_linear_1247_4462" x1="86" y1="39.6333" x2="136.354" y2="52.032" gradientUnits="userSpaceOnUse">
<stop stop-color="#740000"/>
<stop offset="1" stop-color="#770108"/>
</linearGradient>
<linearGradient id="paint11_linear_1247_4462" x1="427.866" y1="8.82422" x2="427.866" y2="132.469" gradientUnits="userSpaceOnUse">
<stop stop-color="#E7E7E7"/>
<stop offset="1" stop-color="#BBBBBB"/>
</linearGradient>
<linearGradient id="paint12_linear_1247_4462" x1="323.872" y1="101.291" x2="418.498" y2="144.499" gradientUnits="userSpaceOnUse">
<stop stop-color="#E3E3E6"/>
<stop offset="1" stop-color="#DEDEDE"/>
</linearGradient>
<linearGradient id="paint13_linear_1247_4462" x1="469.018" y1="159" x2="469.018" y2="282.645" gradientUnits="userSpaceOnUse">
<stop stop-color="#E7E7E7"/>
<stop offset="1" stop-color="#BBBBBB"/>
</linearGradient>
<linearGradient id="paint14_linear_1247_4462" x1="365.025" y1="251.466" x2="459.65" y2="294.674" gradientUnits="userSpaceOnUse">
<stop stop-color="#E3E3E6"/>
<stop offset="1" stop-color="#DEDEDE"/>
</linearGradient>
<linearGradient id="paint15_linear_1247_4462" x1="404.866" y1="98.8242" x2="404.866" y2="222.469" gradientUnits="userSpaceOnUse">
<stop stop-color="#E7E7E7"/>
<stop offset="1" stop-color="#BBBBBB"/>
</linearGradient>
<linearGradient id="paint16_linear_1247_4462" x1="300.872" y1="191.291" x2="395.498" y2="234.499" gradientUnits="userSpaceOnUse">
<stop stop-color="#E3E3E6"/>
<stop offset="1" stop-color="#DEDEDE"/>
</linearGradient>
<linearGradient id="paint17_linear_1247_4462" x1="203.018" y1="232" x2="203.018" y2="355.645" gradientUnits="userSpaceOnUse">
<stop stop-color="#E7E7E7"/>
<stop offset="1" stop-color="#BBBBBB"/>
</linearGradient>
<linearGradient id="paint18_linear_1247_4462" x1="99.0246" y1="324.466" x2="193.65" y2="367.674" gradientUnits="userSpaceOnUse">
<stop stop-color="#E3E3E6"/>
<stop offset="1" stop-color="#DEDEDE"/>
</linearGradient>
<linearGradient id="paint19_linear_1247_4462" x1="292.026" y1="209.197" x2="292.026" y2="332.842" gradientUnits="userSpaceOnUse">
<stop stop-color="#E7E7E7"/>
<stop offset="1" stop-color="#BBBBBB"/>
</linearGradient>
<linearGradient id="paint20_linear_1247_4462" x1="188.032" y1="301.664" x2="282.658" y2="344.872" gradientUnits="userSpaceOnUse">
<stop stop-color="#E3E3E6"/>
<stop offset="1" stop-color="#DEDEDE"/>
</linearGradient>
<linearGradient id="paint21_linear_1247_4462" x1="12.3661" y1="256.242" x2="44.0973" y2="290.581" gradientUnits="userSpaceOnUse">
<stop stop-color="#FF1C2A"/>
<stop offset="1" stop-color="#A30009"/>
</linearGradient>
<linearGradient id="paint22_linear_1247_4462" x1="44.4704" y1="289.177" x2="87.6147" y2="280.24" gradientUnits="userSpaceOnUse">
<stop stop-color="#8E0810"/>
<stop offset="1" stop-color="#B1000B"/>
</linearGradient>
<linearGradient id="paint23_linear_1247_4462" x1="-1.932e-07" y1="300.579" x2="70.6124" y2="317.966" gradientUnits="userSpaceOnUse">
<stop stop-color="#740000"/>
<stop offset="1" stop-color="#770108"/>
</linearGradient>
<linearGradient id="paint24_linear_1247_4462" x1="507.018" y1="312" x2="507.018" y2="435.645" gradientUnits="userSpaceOnUse">
<stop stop-color="#E7E7E7"/>
<stop offset="1" stop-color="#BBBBBB"/>
</linearGradient>
<linearGradient id="paint25_linear_1247_4462" x1="403.025" y1="404.466" x2="497.65" y2="447.674" gradientUnits="userSpaceOnUse">
<stop stop-color="#E3E3E6"/>
<stop offset="1" stop-color="#DEDEDE"/>
</linearGradient>
<linearGradient id="paint26_linear_1247_4462" x1="445.018" y1="251" x2="445.018" y2="374.645" gradientUnits="userSpaceOnUse">
<stop stop-color="#E7E7E7"/>
<stop offset="1" stop-color="#BBBBBB"/>
</linearGradient>
<linearGradient id="paint27_linear_1247_4462" x1="341.025" y1="343.466" x2="435.65" y2="386.674" gradientUnits="userSpaceOnUse">
<stop stop-color="#E3E3E6"/>
<stop offset="1" stop-color="#DEDEDE"/>
</linearGradient>
<linearGradient id="paint28_linear_1247_4462" x1="382.167" y1="188.938" x2="382.167" y2="312.582" gradientUnits="userSpaceOnUse">
<stop stop-color="#E7E7E7"/>
<stop offset="1" stop-color="#BBBBBB"/>
</linearGradient>
<linearGradient id="paint29_linear_1247_4462" x1="278.173" y1="281.404" x2="372.799" y2="324.612" gradientUnits="userSpaceOnUse">
<stop stop-color="#E3E3E6"/>
<stop offset="1" stop-color="#DEDEDE"/>
</linearGradient>
<linearGradient id="paint30_linear_1247_4462" x1="360.018" y1="282" x2="360.018" y2="405.645" gradientUnits="userSpaceOnUse">
<stop stop-color="#E7E7E7"/>
<stop offset="1" stop-color="#BBBBBB"/>
</linearGradient>
<linearGradient id="paint31_linear_1247_4462" x1="256.025" y1="374.466" x2="350.65" y2="417.674" gradientUnits="userSpaceOnUse">
<stop stop-color="#E3E3E6"/>
<stop offset="1" stop-color="#DEDEDE"/>
</linearGradient>
</defs>
</svg>
