<svg width="192" height="24" viewBox="0 0 192 24" fill="none" xmlns="http://www.w3.org/2000/svg">
<path d="M7.13533 10.4641H4.33513V19.8517H1.88754V10.4641H0V9.35135L1.88754 8.623V7.89465C1.88754 6.57283 2.20559 5.59495 2.84169 4.96102C3.47778 4.32034 4.44921 4 5.75597 4C6.61332 4 7.45683 4.13825 8.28652 4.41476L7.64351 6.2154C7.04199 6.02657 6.46812 5.93215 5.92191 5.93215C5.36878 5.93215 4.96431 6.10075 4.70849 6.43795C4.45958 6.76841 4.33513 7.26746 4.33513 7.93511V8.66347H7.13533V10.4641Z" fill="#050017"/>
<path d="M18.7385 14.2374C18.7385 16.065 18.258 17.4913 17.2969 18.5164C16.3359 19.5415 14.998 20.0541 13.2833 20.0541C12.2116 20.0541 11.2644 19.818 10.4416 19.3459C9.61886 18.8739 8.98623 18.1961 8.54373 17.3126C8.10123 16.4292 7.87997 15.4041 7.87997 14.2374C7.87997 12.4232 8.35705 11.007 9.31119 9.98866C10.2653 8.97032 11.6101 8.46115 13.3456 8.46115C15.0049 8.46115 16.3186 8.9838 17.2866 10.0291C18.2545 11.0677 18.7385 12.4704 18.7385 14.2374ZM10.3898 14.2374C10.3898 16.8203 11.3681 18.1118 13.3248 18.1118C15.2608 18.1118 16.2287 16.8203 16.2287 14.2374C16.2287 11.6814 15.2538 10.4034 13.3041 10.4034C12.2808 10.4034 11.5375 10.7339 11.0743 11.3948C10.6179 12.0557 10.3898 13.0032 10.3898 14.2374Z" fill="#050017"/>
<path d="M26.8363 8.46115C27.3272 8.46115 27.7317 8.49487 28.0497 8.56231L27.8112 10.7777C27.4655 10.6968 27.1059 10.6563 26.7326 10.6563C25.7577 10.6563 24.966 10.9665 24.3576 11.587C23.7561 12.2074 23.4553 13.0133 23.4553 14.0047V19.8517H21.0181V8.66347H22.9264L23.2479 10.6361H23.3723C23.7526 9.96843 24.247 9.43902 24.8554 9.04787C25.4708 8.65672 26.1311 8.46115 26.8363 8.46115Z" fill="#050017"/>
<path d="M39.3211 19.8517H36.8735V12.9526C36.8735 12.0962 36.7075 11.4588 36.3757 11.0407C36.0438 10.6158 35.5252 10.4034 34.82 10.4034C33.8797 10.4034 33.1883 10.7035 32.7458 11.3037C32.3102 11.8972 32.0924 12.8886 32.0924 14.2778V19.8517H29.6552V8.66347H31.5635L31.9057 10.1303H32.0302C32.3482 9.59751 32.808 9.18612 33.4095 8.89613C34.018 8.60614 34.6852 8.46115 35.4111 8.46115C37.1742 8.46115 38.3427 9.04787 38.9166 10.2213H39.0825C39.4213 9.66832 39.8984 9.2367 40.5137 8.92648C41.1291 8.61626 41.8343 8.46115 42.6294 8.46115C43.9984 8.46115 44.9941 8.79834 45.6163 9.47274C46.2455 10.1471 46.5601 11.1756 46.5601 12.5581V19.8517H44.1229V12.9526C44.1229 12.0962 43.9535 11.4588 43.6147 11.0407C43.2828 10.6158 42.7643 10.4034 42.059 10.4034C41.1118 10.4034 40.4169 10.6934 39.9744 11.2734C39.5388 11.8466 39.3211 12.7301 39.3211 13.9238V19.8517Z" fill="#050017"/>
<path d="M57.5203 19.8517L57.178 18.3849H57.0536C56.7148 18.9042 56.2308 19.3122 55.6016 19.609C54.9794 19.9057 54.2672 20.0541 53.4652 20.0541C52.0754 20.0541 51.0383 19.7169 50.3538 19.0425C49.6694 18.3681 49.3271 17.3463 49.3271 15.9773V8.66347H51.7851V15.5626C51.7851 16.419 51.9648 17.0631 52.3244 17.4947C52.6839 17.9196 53.2474 18.132 54.0149 18.132C55.0381 18.132 55.7883 17.8353 56.2654 17.2418C56.7494 16.6416 56.9914 15.6401 56.9914 14.2374V8.66347H59.4389V19.8517H57.5203Z" fill="#050017"/>
<path d="M64.8195 19.8517H62.3823V4.11128H64.8195V19.8517Z" fill="#050017"/>
<path d="M74.9604 19.8517L74.4729 18.2939H74.3899C73.8368 18.975 73.2802 19.4404 72.7202 19.6899C72.1602 19.9327 71.4411 20.0541 70.563 20.0541C69.436 20.0541 68.5545 19.7573 67.9184 19.1638C67.2892 18.5704 66.9746 17.7308 66.9746 16.645C66.9746 15.4917 67.4136 14.6218 68.2917 14.035C69.1698 13.4483 70.5077 13.128 72.3054 13.074L74.2862 13.0133V12.4165C74.2862 11.7016 74.1134 11.1689 73.7677 10.8182C73.4289 10.4607 72.9 10.282 72.1809 10.282C71.5932 10.282 71.0297 10.3663 70.4904 10.5349C69.9511 10.7035 69.4326 10.9025 68.9347 11.1318L68.1465 9.43228C68.7688 9.11531 69.4498 8.8759 70.1896 8.71405C70.9295 8.54545 71.6278 8.46115 72.2846 8.46115C73.7435 8.46115 74.8428 8.77137 75.5826 9.39182C76.3293 10.0123 76.7027 10.9868 76.7027 12.3153V19.8517H74.9604ZM71.3305 18.2332C72.2155 18.2332 72.9242 17.9938 73.4565 17.5149C73.9958 17.0294 74.2655 16.3516 74.2655 15.4816V14.5105L72.7928 14.5712C71.6451 14.6117 70.8085 14.8005 70.283 15.1377C69.7644 15.4681 69.5051 15.9773 69.5051 16.6652C69.5051 17.1643 69.6573 17.552 69.9615 17.8285C70.2657 18.0983 70.722 18.2332 71.3305 18.2332Z" fill="#050017"/>
<path d="M82.054 4.89189H86.7705C88.9196 4.89189 90.478 5.19956 91.4454 5.8149C92.4198 6.42332 92.907 7.39472 92.907 8.7291C92.907 9.63482 92.6928 10.3781 92.2643 10.9588C91.8428 11.5396 91.2796 11.8887 90.5747 12.0063V12.11C91.5353 12.3243 92.2263 12.7253 92.6479 13.313C93.0763 13.9007 93.2905 14.682 93.2905 15.6568C93.2905 17.0396 92.7895 18.1182 91.7875 18.8925C90.7924 19.6669 89.4379 20.0541 87.7241 20.0541H82.054V4.89189ZM85.2674 10.8966H87.1333C88.004 10.8966 88.6328 10.7618 89.0198 10.4921C89.4137 10.2225 89.6107 9.77656 89.6107 9.1543C89.6107 8.57354 89.3965 8.1587 88.968 7.9098C88.5465 7.65399 87.8761 7.52608 86.9571 7.52608H85.2674V10.8966ZM85.2674 13.4478V17.3991H87.3613C88.2459 17.3991 88.8989 17.2297 89.3204 16.8909C89.742 16.5522 89.9528 16.0336 89.9528 15.3353C89.9528 14.077 89.0544 13.4478 87.2577 13.4478H85.2674Z" fill="#E3A832"/>
<path d="M95.7866 20.0541V4.89189H99V20.0541H95.7866Z" fill="#E3A832"/>
<path d="M126.262 17.1172C125.875 17.1172 125.533 17.0859 125.236 17.0234C124.939 16.9648 124.664 16.8711 124.41 16.7422V15.623C124.676 15.7363 124.957 15.834 125.254 15.916C125.555 15.9941 125.877 16.0332 126.221 16.0332C126.576 16.0332 126.883 15.9688 127.141 15.8398C127.398 15.707 127.602 15.5039 127.75 15.2305C127.898 14.957 127.986 14.6094 128.014 14.1875H125.148V13.1914H128.008C127.969 12.6133 127.814 12.1836 127.545 11.9023C127.275 11.6172 126.883 11.4746 126.367 11.4746C126.109 11.4746 125.848 11.5098 125.582 11.5801C125.316 11.6465 125.074 11.7246 124.855 11.8145L124.469 10.8066C124.707 10.6973 124.996 10.6016 125.336 10.5195C125.676 10.4336 126.029 10.3906 126.396 10.3906C126.986 10.3906 127.51 10.498 127.967 10.7129C128.424 10.9238 128.783 11.2715 129.045 11.7559C129.307 12.2402 129.438 12.8926 129.438 13.7129C129.438 14.4785 129.309 15.1133 129.051 15.6172C128.793 16.1211 128.426 16.498 127.949 16.748C127.477 16.9941 126.914 17.1172 126.262 17.1172Z" fill="#123039"/>
<path d="M132.402 10.5137V13.1211H135.438V10.5137H136.82V17H135.438V14.1992H132.402V17H131.02V10.5137H132.402Z" fill="#123039"/>
<path d="M141.373 10.3906C141.951 10.3906 142.447 10.5098 142.861 10.748C143.275 10.9863 143.594 11.3242 143.816 11.7617C144.039 12.1992 144.15 12.7227 144.15 13.332V14.0703H139.82C139.836 14.6992 140.004 15.1836 140.324 15.5234C140.648 15.8633 141.102 16.0332 141.684 16.0332C142.098 16.0332 142.469 15.9941 142.797 15.916C143.129 15.834 143.471 15.7148 143.822 15.5586V16.6777C143.498 16.8301 143.168 16.9414 142.832 17.0117C142.496 17.082 142.094 17.1172 141.625 17.1172C140.988 17.1172 140.428 16.9941 139.943 16.748C139.463 16.498 139.086 16.127 138.812 15.6348C138.543 15.1426 138.408 14.5312 138.408 13.8008C138.408 13.0742 138.531 12.457 138.777 11.9492C139.023 11.4414 139.369 11.0547 139.814 10.7891C140.26 10.5234 140.779 10.3906 141.373 10.3906ZM141.373 11.4277C140.939 11.4277 140.588 11.5684 140.318 11.8496C140.053 12.1309 139.896 12.543 139.85 13.0859H142.803C142.799 12.7617 142.744 12.4746 142.639 12.2246C142.537 11.9746 142.381 11.7793 142.17 11.6387C141.963 11.498 141.697 11.4277 141.373 11.4277Z" fill="#123039"/>
<path d="M149.031 10.3906C149.801 10.3906 150.418 10.6719 150.883 11.2344C151.352 11.7969 151.586 12.6328 151.586 13.7422C151.586 14.4766 151.477 15.0957 151.258 15.5996C151.043 16.0996 150.74 16.4785 150.35 16.7363C149.963 16.9902 149.512 17.1172 148.996 17.1172C148.668 17.1172 148.383 17.0742 148.141 16.9883C147.898 16.9023 147.691 16.791 147.52 16.6543C147.348 16.5137 147.203 16.3613 147.086 16.1973H147.004C147.023 16.3535 147.041 16.5273 147.057 16.7188C147.076 16.9062 147.086 17.0781 147.086 17.2344V19.877H145.703V10.5137H146.828L147.021 11.4102H147.086C147.207 11.2266 147.354 11.0566 147.525 10.9004C147.701 10.7441 147.912 10.6211 148.158 10.5312C148.408 10.4375 148.699 10.3906 149.031 10.3906ZM148.662 11.5156C148.283 11.5156 147.979 11.5918 147.748 11.7441C147.521 11.8926 147.355 12.1172 147.25 12.418C147.148 12.7188 147.094 13.0957 147.086 13.5488V13.7422C147.086 14.2227 147.135 14.6309 147.232 14.9668C147.334 15.2988 147.5 15.5527 147.73 15.7285C147.965 15.9004 148.281 15.9863 148.68 15.9863C149.016 15.9863 149.293 15.8945 149.512 15.7109C149.734 15.5273 149.9 15.2656 150.01 14.9258C150.119 14.5859 150.174 14.1855 150.174 13.7246C150.174 13.0254 150.049 12.4824 149.799 12.0957C149.553 11.709 149.174 11.5156 148.662 11.5156Z" fill="#123039"/>
<path d="M157.387 10.5137V11.5977H154.562V17H153.18V10.5137H157.387Z" fill="#123039"/>
<path d="M161.225 10.3906C161.803 10.3906 162.299 10.5098 162.713 10.748C163.127 10.9863 163.445 11.3242 163.668 11.7617C163.891 12.1992 164.002 12.7227 164.002 13.332V14.0703H159.672C159.688 14.6992 159.855 15.1836 160.176 15.5234C160.5 15.8633 160.953 16.0332 161.535 16.0332C161.949 16.0332 162.32 15.9941 162.648 15.916C162.98 15.834 163.322 15.7148 163.674 15.5586V16.6777C163.35 16.8301 163.02 16.9414 162.684 17.0117C162.348 17.082 161.945 17.1172 161.477 17.1172C160.84 17.1172 160.279 16.9941 159.795 16.748C159.314 16.498 158.938 16.127 158.664 15.6348C158.395 15.1426 158.26 14.5312 158.26 13.8008C158.26 13.0742 158.383 12.457 158.629 11.9492C158.875 11.4414 159.221 11.0547 159.666 10.7891C160.111 10.5234 160.631 10.3906 161.225 10.3906ZM161.225 11.4277C160.791 11.4277 160.439 11.5684 160.17 11.8496C159.904 12.1309 159.748 12.543 159.701 13.0859H162.654C162.65 12.7617 162.596 12.4746 162.49 12.2246C162.389 11.9746 162.232 11.7793 162.021 11.6387C161.814 11.498 161.549 11.4277 161.225 11.4277Z" fill="#123039"/>
<path d="M170.453 11.5977H168.32V17H166.949V11.5977H164.828V10.5137H170.453V11.5977Z" fill="#123039"/>
<path d="M173.031 10.5137V13.8242C173.031 13.9297 173.027 14.0645 173.02 14.2285C173.016 14.3887 173.008 14.5566 172.996 14.7324C172.984 14.9043 172.973 15.0625 172.961 15.207C172.949 15.3516 172.939 15.459 172.932 15.5293L176.195 10.5137H177.871V17H176.553V13.7246C176.553 13.5527 176.557 13.3535 176.564 13.127C176.576 12.9004 176.588 12.6816 176.6 12.4707C176.615 12.2598 176.625 12.0996 176.629 11.9902L173.377 17H171.707V10.5137H173.031Z" fill="#123039"/>
<path d="M183.871 10.5137H185.389L182.705 13.6309L185.617 17H184.029L181.234 13.707V17H179.852V10.5137H181.234V13.6602L183.871 10.5137Z" fill="#123039"/>
<path d="M189.215 10.3906C190.035 10.3906 190.654 10.5723 191.072 10.9355C191.494 11.2988 191.705 11.8652 191.705 12.6348V17H190.727L190.463 16.0801H190.416C190.232 16.3145 190.043 16.5078 189.848 16.6602C189.652 16.8125 189.426 16.9258 189.168 17C188.914 17.0781 188.604 17.1172 188.236 17.1172C187.85 17.1172 187.504 17.0469 187.199 16.9062C186.895 16.7617 186.654 16.543 186.479 16.25C186.303 15.957 186.215 15.5859 186.215 15.1367C186.215 14.4688 186.463 13.9668 186.959 13.6309C187.459 13.2949 188.213 13.1094 189.221 13.0742L190.346 13.0332V12.6934C190.346 12.2441 190.24 11.9238 190.029 11.7324C189.822 11.541 189.529 11.4453 189.15 11.4453C188.826 11.4453 188.512 11.4922 188.207 11.5859C187.902 11.6797 187.605 11.7949 187.316 11.9316L186.871 10.959C187.188 10.791 187.547 10.6543 187.949 10.5488C188.355 10.4434 188.777 10.3906 189.215 10.3906ZM190.34 13.9004L189.502 13.9297C188.814 13.9531 188.332 14.0703 188.055 14.2812C187.777 14.4922 187.639 14.7812 187.639 15.1484C187.639 15.4688 187.734 15.7031 187.926 15.8516C188.117 15.9961 188.369 16.0684 188.682 16.0684C189.158 16.0684 189.553 15.9336 189.865 15.6641C190.182 15.3906 190.34 14.9902 190.34 14.4629V13.9004Z" fill="#123039"/>
<path d="M111 0H112V24H111V0Z" fill="#C4C4C4"/>
</svg>
