<svg width="144" height="25" viewBox="0 0 144 25" fill="none" xmlns="http://www.w3.org/2000/svg">
<path d="M10.375 10.1702H6.3034V24.1644H2.74454V10.1702H0V8.51145L2.74454 7.4257V6.33994C2.74454 4.3695 3.20699 2.91178 4.1319 1.96677C5.0568 1.01171 6.46928 0.53418 8.36935 0.53418C9.61596 0.53418 10.8425 0.740272 12.0488 1.15246L11.1139 3.83668C10.2393 3.55519 9.40484 3.41444 8.61063 3.41444C7.80637 3.41444 7.21825 3.66577 6.84628 4.16844C6.48436 4.66105 6.3034 5.40499 6.3034 6.40026V7.48602H10.375V10.1702Z" fill="#050017"/>
<path d="M27.2464 15.795C27.2464 18.5195 26.5477 20.6458 25.1503 22.1738C23.7529 23.7019 21.8076 24.466 19.3143 24.466C17.7561 24.466 16.3788 24.1141 15.1825 23.4104C13.9861 22.7067 13.0662 21.6963 12.4228 20.3793C11.7794 19.0624 11.4577 17.5343 11.4577 15.795C11.4577 13.0907 12.1514 10.9795 13.5387 9.46149C14.9261 7.94344 16.8815 7.18442 19.4048 7.18442C21.8176 7.18442 23.7277 7.96355 25.1352 9.52181C26.5427 11.07 27.2464 13.1611 27.2464 15.795ZM15.1071 15.795C15.1071 19.6455 16.5296 21.5707 19.3747 21.5707C22.1896 21.5707 23.597 19.6455 23.597 15.795C23.597 11.9849 22.1795 10.0798 19.3445 10.0798C17.8566 10.0798 16.7759 10.5724 16.1023 11.5576C15.4388 12.5428 15.1071 13.9553 15.1071 15.795Z" fill="#050017"/>
<path d="M39.0208 7.18442C39.7346 7.18442 40.3227 7.23469 40.7851 7.33522L40.4383 10.6377C39.9356 10.5171 39.4129 10.4568 38.87 10.4568C37.4525 10.4568 36.3014 10.9192 35.4167 11.8441C34.542 12.769 34.1047 13.9704 34.1047 15.4482V24.1644H30.5609V7.48602H33.3356L33.8031 10.4266H33.9841C34.537 9.43133 35.2558 8.64214 36.1405 8.05905C37.0353 7.47596 37.9953 7.18442 39.0208 7.18442Z" fill="#050017"/>
<path d="M57.174 24.1644H53.6151V13.8799C53.6151 12.6031 53.3738 11.6531 52.8913 11.0298C52.4087 10.3964 51.6547 10.0798 50.6293 10.0798C49.262 10.0798 48.2567 10.5271 47.6133 11.4219C46.9799 12.3066 46.6633 13.7844 46.6633 15.8554V24.1644H43.1195V7.48602H45.8942L46.3918 9.6726H46.5728C47.0352 8.8784 47.7038 8.26515 48.5784 7.83286C49.4631 7.40057 50.4332 7.18442 51.4888 7.18442C54.0524 7.18442 55.7514 8.05905 56.5859 9.80832H56.8271C57.3197 8.98396 58.0134 8.34055 58.9082 7.8781C59.8029 7.41565 60.8283 7.18442 61.9845 7.18442C63.975 7.18442 65.4227 7.68708 66.3275 8.69241C67.2423 9.69774 67.6997 11.2309 67.6997 13.2918V24.1644H64.156V13.8799C64.156 12.6031 63.9097 11.6531 63.4171 11.0298C62.9345 10.3964 62.1805 10.0798 61.1551 10.0798C59.7778 10.0798 58.7674 10.5121 58.124 11.3766C57.4907 12.2312 57.174 13.5481 57.174 15.3276V24.1644Z" fill="#050017"/>
<path d="M83.6362 24.1644L83.1386 21.9778H82.9576C82.465 22.7519 81.7613 23.3601 80.8464 23.8025C79.9416 24.2448 78.9061 24.466 77.74 24.466C75.7192 24.466 74.2113 23.9633 73.216 22.958C72.2207 21.9527 71.7231 20.4296 71.7231 18.3888V7.48602H75.297V17.7705C75.297 19.0473 75.5584 20.0074 76.0812 20.6508C76.6039 21.2841 77.4233 21.6008 78.5392 21.6008C80.0271 21.6008 81.1179 21.1585 81.8115 20.2738C82.5153 19.379 82.8671 17.8861 82.8671 15.795V7.48602H86.426V24.1644H83.6362Z" fill="#050017"/>
<path d="M94.2494 24.1644H90.7057V0.700059H94.2494V24.1644Z" fill="#050017"/>
<path d="M108.995 24.1644L108.286 21.8421H108.165C107.361 22.8575 106.552 23.5511 105.737 23.9231C104.923 24.285 103.877 24.466 102.601 24.466C100.962 24.466 99.6802 24.0237 98.7553 23.139C97.8405 22.2543 97.383 21.0026 97.383 19.3841C97.383 17.665 98.0214 16.3681 99.2982 15.4934C100.575 14.6188 102.52 14.1413 105.134 14.0609L108.014 13.9704V13.0807C108.014 12.015 107.763 11.2208 107.26 10.698C106.768 10.1652 105.999 9.8988 104.953 9.8988C104.099 9.8988 103.279 10.0245 102.495 10.2758C101.711 10.5271 100.957 10.8237 100.233 11.1655L99.0871 8.63209C99.9919 8.15959 100.982 7.8027 102.058 7.56142C103.134 7.31009 104.149 7.18442 105.104 7.18442C107.225 7.18442 108.824 7.64687 109.899 8.57177C110.985 9.49667 111.528 10.9494 111.528 12.9299V24.1644H108.995ZM103.717 21.7516C105.003 21.7516 106.034 21.3947 106.808 20.6809C107.592 19.9571 107.984 18.9467 107.984 17.6499V16.2022L105.843 16.2927C104.174 16.353 102.958 16.6345 102.194 17.1372C101.44 17.6298 101.063 18.3888 101.063 19.4142C101.063 20.1582 101.284 20.7362 101.726 21.1484C102.168 21.5505 102.832 21.7516 103.717 21.7516Z" fill="#050017"/>
<path d="M118.918 2.11755H125.78C128.906 2.11755 131.173 2.56492 132.581 3.45967C133.998 4.34435 134.707 5.75684 134.707 7.69712C134.707 9.0141 134.395 10.0948 133.772 10.9393C133.159 11.7838 132.34 12.2915 131.314 12.4624V12.6132C132.712 12.9248 133.717 13.5079 134.33 14.3624C134.953 15.217 135.265 16.353 135.265 17.7705C135.265 19.7812 134.536 21.3495 133.078 22.4754C131.631 23.6014 129.66 24.1644 127.167 24.1644H118.918V2.11755ZM123.593 10.8488H126.308C127.574 10.8488 128.489 10.6528 129.052 10.2607C129.625 9.86863 129.912 9.22019 129.912 8.3154C129.912 7.47092 129.6 6.86772 128.977 6.50581C128.364 6.13384 127.388 5.94785 126.051 5.94785H123.593V10.8488ZM123.593 14.5585V20.3039H126.639C127.926 20.3039 128.876 20.0576 129.489 19.565C130.103 19.0724 130.409 18.3184 130.409 17.303C130.409 15.4733 129.102 14.5585 126.489 14.5585H123.593Z" fill="#CA0E1A"/>
<path d="M138.896 24.1644V2.11755H143.571V24.1644H138.896Z" fill="#CA0E1A"/>
</svg>
