<svg width="218" height="27" viewBox="0 0 218 27" fill="none" xmlns="http://www.w3.org/2000/svg">
<path d="M7.13533 10.4641H4.33513V19.8517H1.88754V10.4641H0V9.35135L1.88754 8.623V7.89465C1.88754 6.57283 2.20559 5.59495 2.84169 4.96102C3.47778 4.32034 4.44921 4 5.75597 4C6.61332 4 7.45683 4.13825 8.28652 4.41476L7.64351 6.2154C7.04199 6.02657 6.46812 5.93215 5.92191 5.93215C5.36878 5.93215 4.96431 6.10075 4.70849 6.43795C4.45958 6.76841 4.33513 7.26746 4.33513 7.93511V8.66347H7.13533V10.4641Z" fill="#050017"/>
<path d="M18.7385 14.2374C18.7385 16.065 18.258 17.4913 17.2969 18.5164C16.3359 19.5415 14.998 20.0541 13.2833 20.0541C12.2116 20.0541 11.2644 19.818 10.4416 19.3459C9.61886 18.8739 8.98623 18.1961 8.54373 17.3126C8.10123 16.4292 7.87997 15.4041 7.87997 14.2374C7.87997 12.4232 8.35705 11.007 9.31119 9.98866C10.2653 8.97032 11.6101 8.46115 13.3456 8.46115C15.0049 8.46115 16.3186 8.9838 17.2866 10.0291C18.2545 11.0677 18.7385 12.4704 18.7385 14.2374ZM10.3898 14.2374C10.3898 16.8203 11.3681 18.1118 13.3248 18.1118C15.2608 18.1118 16.2287 16.8203 16.2287 14.2374C16.2287 11.6814 15.2538 10.4034 13.3041 10.4034C12.2808 10.4034 11.5375 10.7339 11.0743 11.3948C10.6179 12.0557 10.3898 13.0032 10.3898 14.2374Z" fill="#050017"/>
<path d="M26.8363 8.46115C27.3272 8.46115 27.7317 8.49487 28.0497 8.56231L27.8112 10.7777C27.4655 10.6968 27.1059 10.6563 26.7326 10.6563C25.7577 10.6563 24.966 10.9665 24.3576 11.587C23.7561 12.2074 23.4553 13.0133 23.4553 14.0047V19.8517H21.0181V8.66347H22.9264L23.2479 10.6361H23.3723C23.7526 9.96843 24.247 9.43902 24.8554 9.04787C25.4708 8.65672 26.1311 8.46115 26.8363 8.46115Z" fill="#050017"/>
<path d="M39.3211 19.8517H36.8735V12.9526C36.8735 12.0962 36.7075 11.4588 36.3757 11.0407C36.0438 10.6158 35.5252 10.4034 34.82 10.4034C33.8797 10.4034 33.1883 10.7035 32.7458 11.3037C32.3102 11.8972 32.0924 12.8886 32.0924 14.2778V19.8517H29.6552V8.66347H31.5635L31.9057 10.1303H32.0302C32.3482 9.59751 32.808 9.18612 33.4095 8.89613C34.018 8.60614 34.6852 8.46115 35.4111 8.46115C37.1742 8.46115 38.3427 9.04787 38.9166 10.2213H39.0825C39.4213 9.66832 39.8984 9.2367 40.5137 8.92648C41.1291 8.61626 41.8343 8.46115 42.6294 8.46115C43.9984 8.46115 44.9941 8.79834 45.6163 9.47274C46.2455 10.1471 46.5601 11.1756 46.5601 12.5581V19.8517H44.1229V12.9526C44.1229 12.0962 43.9535 11.4588 43.6147 11.0407C43.2828 10.6158 42.7643 10.4034 42.059 10.4034C41.1118 10.4034 40.4169 10.6934 39.9744 11.2734C39.5388 11.8466 39.3211 12.7301 39.3211 13.9238V19.8517Z" fill="#050017"/>
<path d="M57.5203 19.8517L57.178 18.3849H57.0536C56.7148 18.9042 56.2308 19.3122 55.6016 19.609C54.9794 19.9057 54.2672 20.0541 53.4652 20.0541C52.0754 20.0541 51.0383 19.7169 50.3538 19.0425C49.6694 18.3681 49.3271 17.3463 49.3271 15.9773V8.66347H51.7851V15.5626C51.7851 16.419 51.9648 17.0631 52.3244 17.4947C52.6839 17.9196 53.2474 18.132 54.0149 18.132C55.0381 18.132 55.7883 17.8353 56.2654 17.2418C56.7494 16.6416 56.9914 15.6401 56.9914 14.2374V8.66347H59.4389V19.8517H57.5203Z" fill="#050017"/>
<path d="M64.8195 19.8517H62.3823V4.11128H64.8195V19.8517Z" fill="#050017"/>
<path d="M74.9604 19.8517L74.4729 18.2939H74.3899C73.8368 18.975 73.2802 19.4404 72.7202 19.6899C72.1602 19.9327 71.4411 20.0541 70.563 20.0541C69.436 20.0541 68.5545 19.7573 67.9184 19.1638C67.2892 18.5704 66.9746 17.7308 66.9746 16.645C66.9746 15.4917 67.4136 14.6218 68.2917 14.035C69.1698 13.4483 70.5077 13.128 72.3054 13.074L74.2862 13.0133V12.4165C74.2862 11.7016 74.1134 11.1689 73.7677 10.8182C73.4289 10.4607 72.9 10.282 72.1809 10.282C71.5932 10.282 71.0297 10.3663 70.4904 10.5349C69.9511 10.7035 69.4326 10.9025 68.9347 11.1318L68.1465 9.43228C68.7688 9.11531 69.4498 8.8759 70.1896 8.71405C70.9295 8.54545 71.6278 8.46115 72.2846 8.46115C73.7435 8.46115 74.8428 8.77137 75.5826 9.39182C76.3293 10.0123 76.7027 10.9868 76.7027 12.3153V19.8517H74.9604ZM71.3305 18.2332C72.2155 18.2332 72.9242 17.9938 73.4565 17.5149C73.9958 17.0294 74.2655 16.3516 74.2655 15.4816V14.5105L72.7928 14.5712C71.6451 14.6117 70.8085 14.8005 70.283 15.1377C69.7644 15.4681 69.5051 15.9773 69.5051 16.6652C69.5051 17.1643 69.6573 17.552 69.9615 17.8285C70.2657 18.0983 70.722 18.2332 71.3305 18.2332Z" fill="#050017"/>
<path d="M82.0537 4.89191H86.7701C88.9193 4.89191 90.4776 5.19957 91.4451 5.81491C92.4195 6.42333 92.9067 7.39474 92.9067 8.72912C92.9067 9.63484 92.6924 10.3781 92.264 10.9588C91.8424 11.5396 91.2792 11.8888 90.5744 12.0063V12.11C91.5349 12.3243 92.226 12.7253 92.6475 13.313C93.076 13.9007 93.2902 14.682 93.2902 15.6568C93.2902 17.0396 92.7892 18.1182 91.7872 18.8925C90.792 19.6669 89.4376 20.0541 87.7238 20.0541H82.0537V4.89191ZM85.2671 10.8966H87.1329C88.0037 10.8966 88.6325 10.7618 89.0195 10.4922C89.4134 10.2225 89.6104 9.77657 89.6104 9.15432C89.6104 8.57355 89.3961 8.15872 88.9677 7.90982C88.5461 7.65401 87.8758 7.5261 86.9567 7.5261H85.2671V10.8966ZM85.2671 13.4478V17.3991H87.361C88.2455 17.3991 88.8986 17.2297 89.3201 16.891C89.7416 16.5522 89.9524 16.0336 89.9524 15.3353C89.9524 14.077 89.0541 13.4478 87.2573 13.4478H85.2671Z" fill="#0387A4"/>
<path d="M95.7863 20.0541V4.89191H98.9997V20.0541H95.7863Z" fill="#0387A4"/>
<path d="M129.006 3.51367H130.523L127.84 6.63086L130.752 10H129.164L126.369 6.70703V10H124.986V3.51367H126.369V6.66016L129.006 3.51367Z" fill="#123039"/>
<path d="M137.549 6.74219C137.549 7.28125 137.479 7.75977 137.338 8.17773C137.197 8.5957 136.992 8.94922 136.723 9.23828C136.453 9.52344 136.129 9.74219 135.75 9.89453C135.371 10.043 134.943 10.1172 134.467 10.1172C134.021 10.1172 133.613 10.043 133.242 9.89453C132.871 9.74219 132.549 9.52344 132.275 9.23828C132.006 8.94922 131.797 8.5957 131.648 8.17773C131.5 7.75977 131.426 7.28125 131.426 6.74219C131.426 6.02734 131.549 5.42188 131.795 4.92578C132.045 4.42578 132.4 4.04492 132.861 3.7832C133.322 3.52148 133.871 3.39062 134.508 3.39062C135.105 3.39062 135.633 3.52148 136.09 3.7832C136.547 4.04492 136.904 4.42578 137.162 4.92578C137.42 5.42578 137.549 6.03125 137.549 6.74219ZM132.844 6.74219C132.844 7.21484 132.9 7.61914 133.014 7.95508C133.131 8.29102 133.311 8.54883 133.553 8.72852C133.795 8.9043 134.107 8.99219 134.49 8.99219C134.873 8.99219 135.186 8.9043 135.428 8.72852C135.67 8.54883 135.848 8.29102 135.961 7.95508C136.074 7.61914 136.131 7.21484 136.131 6.74219C136.131 6.26953 136.074 5.86914 135.961 5.54102C135.848 5.20898 135.67 4.95703 135.428 4.78516C135.186 4.60938 134.871 4.52148 134.484 4.52148C133.914 4.52148 133.498 4.71289 133.236 5.0957C132.975 5.47852 132.844 6.02734 132.844 6.74219Z" fill="#123039"/>
<path d="M142.459 3.39062C143.229 3.39062 143.846 3.67188 144.311 4.23438C144.779 4.79688 145.014 5.63281 145.014 6.74219C145.014 7.47656 144.904 8.0957 144.686 8.59961C144.471 9.09961 144.168 9.47852 143.777 9.73633C143.391 9.99023 142.939 10.1172 142.424 10.1172C142.096 10.1172 141.811 10.0742 141.568 9.98828C141.326 9.90234 141.119 9.79102 140.947 9.6543C140.775 9.51367 140.631 9.36133 140.514 9.19727H140.432C140.451 9.35352 140.469 9.52734 140.484 9.71875C140.504 9.90625 140.514 10.0781 140.514 10.2344V12.877H139.131V3.51367H140.256L140.449 4.41016H140.514C140.635 4.22656 140.781 4.05664 140.953 3.90039C141.129 3.74414 141.34 3.62109 141.586 3.53125C141.836 3.4375 142.127 3.39062 142.459 3.39062ZM142.09 4.51562C141.711 4.51562 141.406 4.5918 141.176 4.74414C140.949 4.89258 140.783 5.11719 140.678 5.41797C140.576 5.71875 140.521 6.0957 140.514 6.54883V6.74219C140.514 7.22266 140.562 7.63086 140.66 7.9668C140.762 8.29883 140.928 8.55273 141.158 8.72852C141.393 8.90039 141.709 8.98633 142.107 8.98633C142.443 8.98633 142.721 8.89453 142.939 8.71094C143.162 8.52734 143.328 8.26562 143.438 7.92578C143.547 7.58594 143.602 7.18555 143.602 6.72461C143.602 6.02539 143.477 5.48242 143.227 5.0957C142.98 4.70898 142.602 4.51562 142.09 4.51562Z" fill="#123039"/>
<path d="M152.273 3.51367V10H150.885V4.60352H147.99V10H146.607V3.51367H152.273Z" fill="#123039"/>
<path d="M159.99 6.74219C159.99 7.28125 159.92 7.75977 159.779 8.17773C159.639 8.5957 159.434 8.94922 159.164 9.23828C158.895 9.52344 158.57 9.74219 158.191 9.89453C157.812 10.043 157.385 10.1172 156.908 10.1172C156.463 10.1172 156.055 10.043 155.684 9.89453C155.312 9.74219 154.99 9.52344 154.717 9.23828C154.447 8.94922 154.238 8.5957 154.09 8.17773C153.941 7.75977 153.867 7.28125 153.867 6.74219C153.867 6.02734 153.99 5.42188 154.236 4.92578C154.486 4.42578 154.842 4.04492 155.303 3.7832C155.764 3.52148 156.312 3.39062 156.949 3.39062C157.547 3.39062 158.074 3.52148 158.531 3.7832C158.988 4.04492 159.346 4.42578 159.604 4.92578C159.861 5.42578 159.99 6.03125 159.99 6.74219ZM155.285 6.74219C155.285 7.21484 155.342 7.61914 155.455 7.95508C155.572 8.29102 155.752 8.54883 155.994 8.72852C156.236 8.9043 156.549 8.99219 156.932 8.99219C157.314 8.99219 157.627 8.9043 157.869 8.72852C158.111 8.54883 158.289 8.29102 158.402 7.95508C158.516 7.61914 158.572 7.21484 158.572 6.74219C158.572 6.26953 158.516 5.86914 158.402 5.54102C158.289 5.20898 158.111 4.95703 157.869 4.78516C157.627 4.60938 157.312 4.52148 156.926 4.52148C156.355 4.52148 155.939 4.71289 155.678 5.0957C155.416 5.47852 155.285 6.02734 155.285 6.74219Z" fill="#123039"/>
<path d="M164.9 3.39062C165.67 3.39062 166.287 3.67188 166.752 4.23438C167.221 4.79688 167.455 5.63281 167.455 6.74219C167.455 7.47656 167.346 8.0957 167.127 8.59961C166.912 9.09961 166.609 9.47852 166.219 9.73633C165.832 9.99023 165.381 10.1172 164.865 10.1172C164.537 10.1172 164.252 10.0742 164.01 9.98828C163.768 9.90234 163.561 9.79102 163.389 9.6543C163.217 9.51367 163.072 9.36133 162.955 9.19727H162.873C162.893 9.35352 162.91 9.52734 162.926 9.71875C162.945 9.90625 162.955 10.0781 162.955 10.2344V12.877H161.572V3.51367H162.697L162.891 4.41016H162.955C163.076 4.22656 163.223 4.05664 163.395 3.90039C163.57 3.74414 163.781 3.62109 164.027 3.53125C164.277 3.4375 164.568 3.39062 164.9 3.39062ZM164.531 4.51562C164.152 4.51562 163.848 4.5918 163.617 4.74414C163.391 4.89258 163.225 5.11719 163.119 5.41797C163.018 5.71875 162.963 6.0957 162.955 6.54883V6.74219C162.955 7.22266 163.004 7.63086 163.102 7.9668C163.203 8.29883 163.369 8.55273 163.6 8.72852C163.834 8.90039 164.15 8.98633 164.549 8.98633C164.885 8.98633 165.162 8.89453 165.381 8.71094C165.604 8.52734 165.77 8.26562 165.879 7.92578C165.988 7.58594 166.043 7.18555 166.043 6.72461C166.043 6.02539 165.918 5.48242 165.668 5.0957C165.422 4.70898 165.043 4.51562 164.531 4.51562Z" fill="#123039"/>
<path d="M171.592 3.39062C172.412 3.39062 173.031 3.57227 173.449 3.93555C173.871 4.29883 174.082 4.86523 174.082 5.63477V10H173.104L172.84 9.08008H172.793C172.609 9.31445 172.42 9.50781 172.225 9.66016C172.029 9.8125 171.803 9.92578 171.545 10C171.291 10.0781 170.98 10.1172 170.613 10.1172C170.227 10.1172 169.881 10.0469 169.576 9.90625C169.271 9.76172 169.031 9.54297 168.855 9.25C168.68 8.95703 168.592 8.58594 168.592 8.13672C168.592 7.46875 168.84 6.9668 169.336 6.63086C169.836 6.29492 170.59 6.10938 171.598 6.07422L172.723 6.0332V5.69336C172.723 5.24414 172.617 4.92383 172.406 4.73242C172.199 4.54102 171.906 4.44531 171.527 4.44531C171.203 4.44531 170.889 4.49219 170.584 4.58594C170.279 4.67969 169.982 4.79492 169.693 4.93164L169.248 3.95898C169.564 3.79102 169.924 3.6543 170.326 3.54883C170.732 3.44336 171.154 3.39062 171.592 3.39062ZM172.717 6.90039L171.879 6.92969C171.191 6.95312 170.709 7.07031 170.432 7.28125C170.154 7.49219 170.016 7.78125 170.016 8.14844C170.016 8.46875 170.111 8.70312 170.303 8.85156C170.494 8.99609 170.746 9.06836 171.059 9.06836C171.535 9.06836 171.93 8.93359 172.242 8.66406C172.559 8.39062 172.717 7.99023 172.717 7.46289V6.90039Z" fill="#123039"/>
<path d="M180.908 4.59766H178.775V10H177.404V4.59766H175.283V3.51367H180.908V4.59766Z" fill="#123039"/>
<path d="M183.486 3.51367V6.82422C183.486 6.92969 183.482 7.06445 183.475 7.22852C183.471 7.38867 183.463 7.55664 183.451 7.73242C183.439 7.9043 183.428 8.0625 183.416 8.20703C183.404 8.35156 183.395 8.45898 183.387 8.5293L186.65 3.51367H188.326V10H187.008V6.72461C187.008 6.55273 187.012 6.35352 187.02 6.12695C187.031 5.90039 187.043 5.68164 187.055 5.4707C187.07 5.25977 187.08 5.09961 187.084 4.99023L183.832 10H182.162V3.51367H183.486Z" fill="#123039"/>
<path d="M195.762 5.17773C195.762 5.55273 195.646 5.85938 195.416 6.09766C195.189 6.33203 194.877 6.48633 194.479 6.56055V6.60742C194.904 6.66211 195.26 6.8125 195.545 7.05859C195.83 7.30469 195.973 7.64648 195.973 8.08398C195.973 8.45508 195.879 8.78516 195.691 9.07422C195.508 9.35938 195.215 9.58594 194.812 9.75391C194.414 9.91797 193.893 10 193.248 10H190.307V3.51367H193.236C193.721 3.51367 194.152 3.56641 194.531 3.67188C194.914 3.77734 195.215 3.95117 195.434 4.19336C195.652 4.43555 195.762 4.76367 195.762 5.17773ZM194.537 8.03711C194.537 7.7168 194.414 7.48633 194.168 7.3457C193.926 7.20508 193.57 7.13477 193.102 7.13477H191.689V8.98633H193.131C193.568 8.98633 193.912 8.91406 194.162 8.76953C194.412 8.62109 194.537 8.37695 194.537 8.03711ZM194.361 5.30078C194.361 5.04688 194.266 4.85938 194.074 4.73828C193.883 4.61328 193.582 4.55078 193.172 4.55078H191.689V6.12109H192.984C193.438 6.12109 193.779 6.05664 194.01 5.92773C194.244 5.79492 194.361 5.58594 194.361 5.30078Z" fill="#123039"/>
<path d="M198.908 3.51367V6.12109H201.943V3.51367H203.326V10H201.943V7.19922H198.908V10H197.525V3.51367H198.908Z" fill="#123039"/>
<path d="M211.037 6.74219C211.037 7.28125 210.967 7.75977 210.826 8.17773C210.686 8.5957 210.48 8.94922 210.211 9.23828C209.941 9.52344 209.617 9.74219 209.238 9.89453C208.859 10.043 208.432 10.1172 207.955 10.1172C207.51 10.1172 207.102 10.043 206.73 9.89453C206.359 9.74219 206.037 9.52344 205.764 9.23828C205.494 8.94922 205.285 8.5957 205.137 8.17773C204.988 7.75977 204.914 7.28125 204.914 6.74219C204.914 6.02734 205.037 5.42188 205.283 4.92578C205.533 4.42578 205.889 4.04492 206.35 3.7832C206.811 3.52148 207.359 3.39062 207.996 3.39062C208.594 3.39062 209.121 3.52148 209.578 3.7832C210.035 4.04492 210.393 4.42578 210.65 4.92578C210.908 5.42578 211.037 6.03125 211.037 6.74219ZM206.332 6.74219C206.332 7.21484 206.389 7.61914 206.502 7.95508C206.619 8.29102 206.799 8.54883 207.041 8.72852C207.283 8.9043 207.596 8.99219 207.979 8.99219C208.361 8.99219 208.674 8.9043 208.916 8.72852C209.158 8.54883 209.336 8.29102 209.449 7.95508C209.562 7.61914 209.619 7.21484 209.619 6.74219C209.619 6.26953 209.562 5.86914 209.449 5.54102C209.336 5.20898 209.158 4.95703 208.916 4.78516C208.674 4.60938 208.359 4.52148 207.973 4.52148C207.402 4.52148 206.986 4.71289 206.725 5.0957C206.463 5.47852 206.332 6.02734 206.332 6.74219Z" fill="#123039"/>
<path d="M215.203 3.39062C215.781 3.39062 216.277 3.50977 216.691 3.74805C217.105 3.98633 217.424 4.32422 217.646 4.76172C217.869 5.19922 217.98 5.72266 217.98 6.33203V7.07031H213.65C213.666 7.69922 213.834 8.18359 214.154 8.52344C214.479 8.86328 214.932 9.0332 215.514 9.0332C215.928 9.0332 216.299 8.99414 216.627 8.91602C216.959 8.83398 217.301 8.71484 217.652 8.55859V9.67773C217.328 9.83008 216.998 9.94141 216.662 10.0117C216.326 10.082 215.924 10.1172 215.455 10.1172C214.818 10.1172 214.258 9.99414 213.773 9.74805C213.293 9.49805 212.916 9.12695 212.643 8.63477C212.373 8.14258 212.238 7.53125 212.238 6.80078C212.238 6.07422 212.361 5.45703 212.607 4.94922C212.854 4.44141 213.199 4.05469 213.645 3.78906C214.09 3.52344 214.609 3.39062 215.203 3.39062ZM215.203 4.42773C214.77 4.42773 214.418 4.56836 214.148 4.84961C213.883 5.13086 213.727 5.54297 213.68 6.08594H216.633C216.629 5.76172 216.574 5.47461 216.469 5.22461C216.367 4.97461 216.211 4.7793 216 4.63867C215.793 4.49805 215.527 4.42773 215.203 4.42773Z" fill="#123039"/>
<path d="M124.008 17.5137H125.508L126.838 21.2168C126.896 21.3848 126.949 21.5508 126.996 21.7148C127.047 21.875 127.09 22.0332 127.125 22.1895C127.164 22.3457 127.195 22.502 127.219 22.6582H127.254C127.293 22.4551 127.348 22.2285 127.418 21.9785C127.492 21.7246 127.574 21.4707 127.664 21.2168L128.941 17.5137H130.424L127.641 24.8906C127.48 25.3125 127.283 25.6719 127.049 25.9688C126.818 26.2695 126.545 26.4961 126.229 26.6484C125.912 26.8047 125.551 26.8828 125.145 26.8828C124.949 26.8828 124.779 26.8711 124.635 26.8477C124.49 26.8281 124.367 26.8066 124.266 26.7832V25.6816C124.348 25.7012 124.451 25.7188 124.576 25.7344C124.701 25.75 124.83 25.7578 124.963 25.7578C125.209 25.7578 125.422 25.709 125.602 25.6113C125.781 25.5137 125.934 25.375 126.059 25.1953C126.184 25.0195 126.287 24.8184 126.369 24.5918L126.598 23.9824L124.008 17.5137Z" fill="#123039"/>
<path d="M137.074 17.5137V24H135.686V18.6035H132.791V24H131.408V17.5137H137.074Z" fill="#123039"/>
<path d="M142.377 17.3906C143.146 17.3906 143.764 17.6719 144.229 18.2344C144.697 18.7969 144.932 19.6328 144.932 20.7422C144.932 21.4766 144.822 22.0957 144.604 22.5996C144.389 23.0996 144.086 23.4785 143.695 23.7363C143.309 23.9902 142.857 24.1172 142.342 24.1172C142.014 24.1172 141.729 24.0742 141.486 23.9883C141.244 23.9023 141.037 23.791 140.865 23.6543C140.693 23.5137 140.549 23.3613 140.432 23.1973H140.35C140.369 23.3535 140.387 23.5273 140.402 23.7188C140.422 23.9062 140.432 24.0781 140.432 24.2344V26.877H139.049V17.5137H140.174L140.367 18.4102H140.432C140.553 18.2266 140.699 18.0566 140.871 17.9004C141.047 17.7441 141.258 17.6211 141.504 17.5312C141.754 17.4375 142.045 17.3906 142.377 17.3906ZM142.008 18.5156C141.629 18.5156 141.324 18.5918 141.094 18.7441C140.867 18.8926 140.701 19.1172 140.596 19.418C140.494 19.7188 140.439 20.0957 140.432 20.5488V20.7422C140.432 21.2227 140.48 21.6309 140.578 21.9668C140.68 22.2988 140.846 22.5527 141.076 22.7285C141.311 22.9004 141.627 22.9863 142.025 22.9863C142.361 22.9863 142.639 22.8945 142.857 22.7109C143.08 22.5273 143.246 22.2656 143.355 21.9258C143.465 21.5859 143.52 21.1855 143.52 20.7246C143.52 20.0254 143.395 19.4824 143.145 19.0957C142.898 18.709 142.52 18.5156 142.008 18.5156Z" fill="#123039"/>
<path d="M149.068 17.3906C149.889 17.3906 150.508 17.5723 150.926 17.9355C151.348 18.2988 151.559 18.8652 151.559 19.6348V24H150.58L150.316 23.0801H150.27C150.086 23.3145 149.896 23.5078 149.701 23.6602C149.506 23.8125 149.279 23.9258 149.021 24C148.768 24.0781 148.457 24.1172 148.09 24.1172C147.703 24.1172 147.357 24.0469 147.053 23.9062C146.748 23.7617 146.508 23.543 146.332 23.25C146.156 22.957 146.068 22.5859 146.068 22.1367C146.068 21.4688 146.316 20.9668 146.812 20.6309C147.312 20.2949 148.066 20.1094 149.074 20.0742L150.199 20.0332V19.6934C150.199 19.2441 150.094 18.9238 149.883 18.7324C149.676 18.541 149.383 18.4453 149.004 18.4453C148.68 18.4453 148.365 18.4922 148.061 18.5859C147.756 18.6797 147.459 18.7949 147.17 18.9316L146.725 17.959C147.041 17.791 147.4 17.6543 147.803 17.5488C148.209 17.4434 148.631 17.3906 149.068 17.3906ZM150.193 20.9004L149.355 20.9297C148.668 20.9531 148.186 21.0703 147.908 21.2812C147.631 21.4922 147.492 21.7812 147.492 22.1484C147.492 22.4688 147.588 22.7031 147.779 22.8516C147.971 22.9961 148.223 23.0684 148.535 23.0684C149.012 23.0684 149.406 22.9336 149.719 22.6641C150.035 22.3906 150.193 21.9902 150.193 21.4629V20.9004Z" fill="#123039"/>
<path d="M158.941 19.1777C158.941 19.5527 158.826 19.8594 158.596 20.0977C158.369 20.332 158.057 20.4863 157.658 20.5605V20.6074C158.084 20.6621 158.439 20.8125 158.725 21.0586C159.01 21.3047 159.152 21.6465 159.152 22.084C159.152 22.4551 159.059 22.7852 158.871 23.0742C158.688 23.3594 158.395 23.5859 157.992 23.7539C157.594 23.918 157.072 24 156.428 24H153.486V17.5137H156.416C156.9 17.5137 157.332 17.5664 157.711 17.6719C158.094 17.7773 158.395 17.9512 158.613 18.1934C158.832 18.4355 158.941 18.7637 158.941 19.1777ZM157.717 22.0371C157.717 21.7168 157.594 21.4863 157.348 21.3457C157.105 21.2051 156.75 21.1348 156.281 21.1348H154.869V22.9863H156.311C156.748 22.9863 157.092 22.9141 157.342 22.7695C157.592 22.6211 157.717 22.377 157.717 22.0371ZM157.541 19.3008C157.541 19.0469 157.445 18.8594 157.254 18.7383C157.062 18.6133 156.762 18.5508 156.352 18.5508H154.869V20.1211H156.164C156.617 20.1211 156.959 20.0566 157.189 19.9277C157.424 19.7949 157.541 19.5859 157.541 19.3008Z" fill="#123039"/>
<path d="M166.043 24H164.654V18.5918H162.855C162.777 19.5762 162.68 20.418 162.562 21.1172C162.445 21.8164 162.299 22.3867 162.123 22.8281C161.947 23.2656 161.73 23.5859 161.473 23.7891C161.215 23.9922 160.904 24.0938 160.541 24.0938C160.381 24.0938 160.236 24.082 160.107 24.0586C159.979 24.0391 159.863 24.0078 159.762 23.9648V22.8809C159.828 22.9043 159.9 22.9238 159.979 22.9395C160.057 22.9551 160.137 22.9629 160.219 22.9629C160.363 22.9629 160.496 22.9043 160.617 22.7871C160.742 22.666 160.857 22.4766 160.963 22.2188C161.068 21.9609 161.164 21.6211 161.25 21.1992C161.336 20.7734 161.414 20.2578 161.484 19.6523C161.555 19.043 161.617 18.3301 161.672 17.5137H166.043V24Z" fill="#123039"/>
<path d="M170.602 17.3906C171.18 17.3906 171.676 17.5098 172.09 17.748C172.504 17.9863 172.822 18.3242 173.045 18.7617C173.268 19.1992 173.379 19.7227 173.379 20.332V21.0703H169.049C169.064 21.6992 169.232 22.1836 169.553 22.5234C169.877 22.8633 170.33 23.0332 170.912 23.0332C171.326 23.0332 171.697 22.9941 172.025 22.916C172.357 22.834 172.699 22.7148 173.051 22.5586V23.6777C172.727 23.8301 172.396 23.9414 172.061 24.0117C171.725 24.082 171.322 24.1172 170.854 24.1172C170.217 24.1172 169.656 23.9941 169.172 23.748C168.691 23.498 168.314 23.127 168.041 22.6348C167.771 22.1426 167.637 21.5312 167.637 20.8008C167.637 20.0742 167.76 19.457 168.006 18.9492C168.252 18.4414 168.598 18.0547 169.043 17.7891C169.488 17.5234 170.008 17.3906 170.602 17.3906ZM170.602 18.4277C170.168 18.4277 169.816 18.5684 169.547 18.8496C169.281 19.1309 169.125 19.543 169.078 20.0859H172.031C172.027 19.7617 171.973 19.4746 171.867 19.2246C171.766 18.9746 171.609 18.7793 171.398 18.6387C171.191 18.498 170.926 18.4277 170.602 18.4277Z" fill="#123039"/>
<path d="M176.314 17.5137V20.1211H179.35V17.5137H180.732V24H179.35V21.1992H176.314V24H174.932V17.5137H176.314Z" fill="#123039"/>
<path d="M184.025 17.5137V20.8242C184.025 20.9297 184.021 21.0645 184.014 21.2285C184.01 21.3887 184.002 21.5566 183.99 21.7324C183.979 21.9043 183.967 22.0625 183.955 22.207C183.943 22.3516 183.934 22.459 183.926 22.5293L187.189 17.5137H188.865V24H187.547V20.7246C187.547 20.5527 187.551 20.3535 187.559 20.127C187.57 19.9004 187.582 19.6816 187.594 19.4707C187.609 19.2598 187.619 19.0996 187.623 18.9902L184.371 24H182.701V17.5137H184.025Z" fill="#123039"/>
<path d="M193.43 17.3906C194.008 17.3906 194.504 17.5098 194.918 17.748C195.332 17.9863 195.65 18.3242 195.873 18.7617C196.096 19.1992 196.207 19.7227 196.207 20.332V21.0703H191.877C191.893 21.6992 192.061 22.1836 192.381 22.5234C192.705 22.8633 193.158 23.0332 193.74 23.0332C194.154 23.0332 194.525 22.9941 194.854 22.916C195.186 22.834 195.527 22.7148 195.879 22.5586V23.6777C195.555 23.8301 195.225 23.9414 194.889 24.0117C194.553 24.082 194.15 24.1172 193.682 24.1172C193.045 24.1172 192.484 23.9941 192 23.748C191.52 23.498 191.143 23.127 190.869 22.6348C190.6 22.1426 190.465 21.5312 190.465 20.8008C190.465 20.0742 190.588 19.457 190.834 18.9492C191.08 18.4414 191.426 18.0547 191.871 17.7891C192.316 17.5234 192.836 17.3906 193.43 17.3906ZM193.43 18.4277C192.996 18.4277 192.645 18.5684 192.375 18.8496C192.109 19.1309 191.953 19.543 191.906 20.0859H194.859C194.855 19.7617 194.801 19.4746 194.695 19.2246C194.594 18.9746 194.438 18.7793 194.227 18.6387C194.02 18.498 193.754 18.4277 193.43 18.4277Z" fill="#123039"/>
<path d="M111 0H112V24H111V0Z" fill="#C4C4C4"/>
</svg>
