<svg width="144" height="25" viewBox="0 0 144 25" fill="none" xmlns="http://www.w3.org/2000/svg">
<path d="M10.375 10.0433H6.3034V24.0374H2.74454V10.0433H0V8.3845L2.74454 7.29875V6.21299C2.74454 4.24255 3.20699 2.78483 4.1319 1.83982C5.0568 0.884757 6.46928 0.407227 8.36935 0.407227C9.61596 0.407227 10.8425 0.613319 12.0488 1.0255L11.1139 3.70973C10.2393 3.42824 9.40484 3.28749 8.61063 3.28749C7.80637 3.28749 7.21825 3.53882 6.84628 4.04148C6.48436 4.5341 6.3034 5.27804 6.3034 6.27331V7.35906H10.375V10.0433Z" fill="#A7B3BF"/>
<path d="M27.2464 15.6681C27.2464 18.3925 26.5477 20.5188 25.1503 22.0469C23.7529 23.575 21.8076 24.339 19.3143 24.339C17.7561 24.339 16.3788 23.9872 15.1825 23.2834C13.9861 22.5797 13.0662 21.5694 12.4228 20.2524C11.7794 18.9354 11.4577 17.4073 11.4577 15.6681C11.4577 12.9638 12.1514 10.8526 13.5387 9.33453C14.9261 7.81649 16.8815 7.05747 19.4048 7.05747C21.8176 7.05747 23.7277 7.8366 25.1352 9.39485C26.5427 10.9431 27.2464 13.0341 27.2464 15.6681ZM15.1071 15.6681C15.1071 19.5185 16.5296 21.4437 19.3747 21.4437C22.1896 21.4437 23.597 19.5185 23.597 15.6681C23.597 11.8579 22.1795 9.95281 19.3445 9.95281C17.8566 9.95281 16.7759 10.4454 16.1023 11.4306C15.4388 12.4159 15.1071 13.8283 15.1071 15.6681Z" fill="#A7B3BF"/>
<path d="M39.0208 7.05747C39.7346 7.05747 40.3227 7.10773 40.7851 7.20827L40.4383 10.5108C39.9356 10.3901 39.4129 10.3298 38.87 10.3298C37.4525 10.3298 36.3014 10.7923 35.4167 11.7172C34.542 12.6421 34.1047 13.8434 34.1047 15.3213V24.0374H30.5609V7.35906H33.3356L33.8031 10.2996H33.9841C34.537 9.30437 35.2558 8.51519 36.1405 7.9321C37.0353 7.34901 37.9953 7.05747 39.0208 7.05747Z" fill="#A7B3BF"/>
<path d="M57.174 24.0374H53.6151V13.7529C53.6151 12.4762 53.3738 11.5261 52.8913 10.9028C52.4087 10.2695 51.6547 9.95281 50.6293 9.95281C49.262 9.95281 48.2567 10.4002 47.6133 11.2949C46.9799 12.1796 46.6633 13.6574 46.6633 15.7284V24.0374H43.1195V7.35906H45.8942L46.3918 9.54565H46.5728C47.0352 8.75144 47.7038 8.13819 48.5784 7.7059C49.4631 7.27361 50.4332 7.05747 51.4888 7.05747C54.0524 7.05747 55.7514 7.9321 56.5859 9.68137H56.8271C57.3197 8.857 58.0134 8.21359 58.9082 7.75114C59.8029 7.28869 60.8283 7.05747 61.9845 7.05747C63.975 7.05747 65.4227 7.56013 66.3275 8.56546C67.2423 9.57078 67.6997 11.1039 67.6997 13.1648V24.0374H64.156V13.7529C64.156 12.4762 63.9097 11.5261 63.4171 10.9028C62.9345 10.2695 62.1805 9.95281 61.1551 9.95281C59.7778 9.95281 58.7674 10.3851 58.124 11.2497C57.4907 12.1042 57.174 13.4212 57.174 15.2006V24.0374Z" fill="#A7B3BF"/>
<path d="M83.6362 24.0374L83.1386 21.8509H82.9576C82.465 22.625 81.7613 23.2332 80.8464 23.6755C79.9416 24.1179 78.9061 24.339 77.74 24.339C75.7192 24.339 74.2113 23.8364 73.216 22.8311C72.2207 21.8257 71.7231 20.3027 71.7231 18.2618V7.35906H75.297V17.6436C75.297 18.9203 75.5584 19.8804 76.0812 20.5238C76.6039 21.1572 77.4233 21.4739 78.5392 21.4739C80.0271 21.4739 81.1179 21.0315 81.8115 20.1468C82.5153 19.2521 82.8671 17.7592 82.8671 15.6681V7.35906H86.426V24.0374H83.6362Z" fill="#A7B3BF"/>
<path d="M94.2494 24.0374H90.7057V0.573106H94.2494V24.0374Z" fill="#A7B3BF"/>
<path d="M108.995 24.0374L108.286 21.7151H108.165C107.361 22.7305 106.552 23.4242 105.737 23.7962C104.923 24.1581 103.877 24.339 102.601 24.339C100.962 24.339 99.6802 23.8967 98.7553 23.012C97.8405 22.1273 97.383 20.8757 97.383 19.2571C97.383 17.538 98.0214 16.2411 99.2982 15.3665C100.575 14.4919 102.52 14.0143 105.134 13.9339L108.014 13.8434V12.9537C108.014 11.8881 107.763 11.0939 107.26 10.5711C106.768 10.0383 105.999 9.77185 104.953 9.77185C104.099 9.77185 103.279 9.89752 102.495 10.1488C101.711 10.4002 100.957 10.6968 100.233 11.0386L99.0871 8.50514C99.9919 8.03263 100.982 7.67574 102.058 7.43446C103.134 7.18313 104.149 7.05747 105.104 7.05747C107.225 7.05747 108.824 7.51992 109.899 8.44482C110.985 9.36972 111.528 10.8224 111.528 12.8029V24.0374H108.995ZM103.717 21.6247C105.003 21.6247 106.034 21.2678 106.808 20.554C107.592 19.8302 107.984 18.8198 107.984 17.5229V16.0753L105.843 16.1657C104.174 16.2261 102.958 16.5075 102.194 17.0102C101.44 17.5028 101.063 18.2618 101.063 19.2873C101.063 20.0312 101.284 20.6093 101.726 21.0215C102.168 21.4236 102.832 21.6247 103.717 21.6247Z" fill="#A7B3BF"/>
<path d="M118.918 1.99072H125.779C128.906 1.99072 131.173 2.43809 132.58 3.33283C133.998 4.21752 134.707 5.63001 134.707 7.57029C134.707 8.88727 134.395 9.96799 133.772 10.8125C133.158 11.6569 132.339 12.1646 131.314 12.3355V12.4863C132.711 12.798 133.716 13.3811 134.33 14.2356C134.953 15.0901 135.265 16.2262 135.265 17.6437C135.265 19.6543 134.536 21.2226 133.078 22.3486C131.63 23.4746 129.66 24.0375 127.167 24.0375H118.918V1.99072ZM123.593 10.722H126.307C127.574 10.722 128.489 10.526 129.052 10.1339C129.625 9.7418 129.911 9.09336 129.911 8.18857C129.911 7.34409 129.6 6.74089 128.976 6.37898C128.363 6.00701 127.388 5.82102 126.051 5.82102H123.593V10.722ZM123.593 14.4316V20.1771H126.639C127.926 20.1771 128.876 19.9308 129.489 19.4382C130.102 18.9456 130.409 18.1916 130.409 17.1762C130.409 15.3465 129.102 14.4316 126.488 14.4316H123.593Z" fill="#A7B3BF"/>
<path d="M138.896 24.0375V1.99072H143.571V24.0375H138.896Z" fill="#A7B3BF"/>
</svg>
