<svg width="36" height="36" viewBox="0 0 36 36" fill="none" xmlns="http://www.w3.org/2000/svg">
<path d="M3.59961 28.8C3.59961 30.7875 5.21097 32.4 7.19961 32.4H26.3995C28.3881 32.4 29.9995 30.7875 29.9995 28.8V10.8H32.3996V7.19998C32.3996 5.21242 30.7882 3.59998 28.7996 3.59998H11.9995C10.0108 3.59998 8.39949 5.21242 8.39949 7.19998V22.7999H3.59961V28.8ZM29.9995 7.19998V8.39986H15.5995V7.19998C15.5995 6.77698 15.5127 6.37738 15.3792 6.0001H28.7996C29.4631 6.0001 29.9995 6.53794 29.9995 7.19998ZM10.7996 7.19998C10.7996 6.53794 11.3364 6.0001 11.9995 6.0001C12.6626 6.0001 13.1994 6.53794 13.1994 7.19998V10.8H27.5994V28.8C27.5994 29.462 27.0626 29.9999 26.3991 29.9999H10.5793C10.7128 29.6226 10.7996 29.223 10.7996 28.8V7.19998ZM5.99973 25.2H8.39985V28.8C8.39985 29.462 7.86309 29.9999 7.19997 29.9999C6.53685 29.9999 5.99973 29.462 5.99973 28.8V25.2Z" fill="#CA0E1A"/>
<path d="M22.8003 13.2001H13.2002V15.6002H22.8003V13.2001Z" fill="#CA0E1A"/>
<path d="M25.2001 18H13.2002V20.4001H25.2001V18Z" fill="#CA0E1A"/>
<path d="M18.0001 22.7999H13.2002V25.2H18.0001V22.7999Z" fill="#CA0E1A"/>
<path d="M22.7995 27.6002C24.1251 27.6002 25.1997 26.5256 25.1997 25.2C25.1997 23.8745 24.1251 22.7999 22.7995 22.7999C21.474 22.7999 20.3994 23.8745 20.3994 25.2C20.3994 26.5256 21.474 27.6002 22.7995 27.6002Z" fill="#CA0E1A"/>
</svg>
