<svg width="36" height="36" viewBox="0 0 36 36" fill="none" xmlns="http://www.w3.org/2000/svg">
<path d="M10.7999 3.59998C8.1492 3.59998 6 5.74918 6 8.39986V27.6001C6 30.2508 8.1492 32.4 10.7999 32.4H29.9998C28.0122 30.4113 28.0122 27.1875 29.9998 25.2V3.59998H10.7999ZM26.2158 29.9999H10.7999C9.47436 29.9999 8.39976 28.9256 8.39976 27.6001C8.39976 26.2746 9.47436 25.2 10.7999 25.2H27.0362C26.2255 26.6789 25.9548 28.3734 26.2158 29.9999ZM27.6 22.7999H10.7999C9.92112 22.7999 9.10788 23.0529 8.39976 23.4659V8.39986C8.39976 7.07434 9.47436 6.0001 10.7999 6.0001H27.6V22.7999Z" fill="#CA0E1A"/>
<path d="M25.2001 8.3999H12V10.8H25.2001V8.3999Z" fill="#CA0E1A"/>
<path d="M20.4002 13.2001H12V15.5998H20.4002V13.2001Z" fill="#CA0E1A"/>
</svg>
