<svg width="36" height="36" viewBox="0 0 36 36" fill="none" xmlns="http://www.w3.org/2000/svg">
<path d="M28.8001 3.59998H7.2001C5.21146 3.59998 3.6001 5.21242 3.6001 7.19998V11.9999H8.39998V23.9997H3.6001V28.8C3.6001 30.7875 5.21146 32.4 7.2001 32.4H28.8001C30.7898 32.4 32.4001 30.7875 32.4001 28.8V7.19998C32.4001 5.21242 30.7877 3.59998 28.8001 3.59998ZM6.00022 9.60009V7.19998C6.00022 6.53722 6.5377 6.0001 7.2001 6.0001C7.8625 6.0001 8.39998 6.53758 8.39998 7.19998V9.60009H6.00022ZM6.00022 28.8V26.3999H8.40034V28.8C8.40034 29.462 7.86286 29.9999 7.20046 29.9999C6.53806 29.9999 6.00022 29.462 6.00022 28.8ZM30 28.8C30 29.462 29.4636 29.9999 28.8001 29.9999H10.5798C10.7133 29.6226 10.8001 29.223 10.8001 28.8V7.19998C10.8001 6.77698 10.7133 6.37738 10.5798 6.0001H28.8001C29.4621 6.0001 30 6.53758 30 7.19998V28.8Z" fill="#CA0E1A"/>
<path d="M27.5808 22.5598C27.6676 22.2329 28.1997 21.9525 28.1997 21.6C28.1997 21.2476 27.6676 20.9682 27.5834 20.6403C27.4894 20.3026 27.8109 19.7953 27.637 19.5001C27.466 19.1988 26.8637 19.2233 26.62 18.981C26.3784 18.7373 26.4022 18.1347 26.1023 17.9626C25.8071 17.7905 25.2984 18.1102 24.9608 18.0187C24.6328 17.9334 24.3534 17.4003 23.9999 17.4003C23.6482 17.4003 23.3692 17.9334 23.0412 18.0177C22.7014 18.1102 22.1949 17.7891 21.8997 17.9615C21.5973 18.1339 21.6232 18.7359 21.3795 18.9785C21.1383 19.2211 20.5356 19.1977 20.3625 19.4976C20.1911 19.7939 20.5101 20.3015 20.4186 20.6403C20.334 20.9671 19.7998 21.2476 19.7998 21.6C19.7998 21.9525 20.334 22.2318 20.4186 22.5598C20.5101 22.8982 20.1911 23.4047 20.3625 23.7013C20.5356 24.0023 21.1358 23.9778 21.3795 24.2201C21.49 24.3317 21.5436 24.5178 21.5998 24.7043V28.1999L23.9999 27L26.3997 28.1999V24.6996C26.4558 24.5153 26.5102 24.3306 26.62 24.2201C26.8637 23.9775 27.4664 24.0023 27.637 23.7013C27.8109 23.4061 27.4894 22.8982 27.5808 22.5598ZM23.9999 23.4C23.0034 23.4 22.1999 22.5961 22.1999 21.6C22.1999 20.6039 23.0034 19.8 23.9999 19.8C24.9935 19.8 25.7999 20.6039 25.7999 21.6C25.7999 22.5961 24.9935 23.4 23.9999 23.4Z" fill="#CA0E1A"/>
<path d="M25.2001 8.3999H13.2002V10.8H25.2001V8.3999Z" fill="#CA0E1A"/>
<path d="M27.6002 13.2001H13.2002V15.6002H27.6002V13.2001Z" fill="#CA0E1A"/>
<path d="M18.0001 18H13.2002V20.4001H18.0001V18Z" fill="#CA0E1A"/>
<path d="M17.9999 25.2C17.9999 26.5266 16.9264 27.6002 15.5998 27.6002C14.2732 27.6002 13.1997 26.5266 13.1997 25.2C13.1997 23.8745 14.2732 22.7999 15.5998 22.7999C16.9264 22.7999 17.9999 23.8745 17.9999 25.2Z" fill="#CA0E1A"/>
</svg>
