<svg width="36" height="36" viewBox="0 0 36 36" fill="none" xmlns="http://www.w3.org/2000/svg">
<path d="M17.9996 25.2H5.99973V6.0001H14.6059L18.2059 9.6001H29.9995V18H32.3996V9.6001C32.3996 8.27566 31.3239 7.19998 29.9995 7.19998H19.1995L15.5995 3.59998H5.99973C4.67421 3.59998 3.59961 4.67458 3.59961 6.0001V27.6001H17.9996V25.2Z" fill="#CA0E1A"/>
<path d="M32.4003 27.6001V25.2H30.4059C30.3216 24.9257 30.2136 24.6647 30.0801 24.417L31.4909 23.0062L29.7942 21.3091L28.383 22.7189C28.135 22.5853 27.8747 22.4777 27.6004 22.3945V20.4001H25.2003V22.3945C24.9259 22.4777 24.6635 22.5853 24.4173 22.7189L23.0064 21.3081L21.3094 23.0062L22.7181 24.417C22.5845 24.6647 22.4765 24.9257 22.3948 25.2H20.4004V27.6001H22.3948C22.4769 27.8745 22.5845 28.1355 22.7181 28.3828L21.3094 29.794L23.0064 31.4907L24.4151 30.0809C24.6631 30.2145 24.9259 30.3225 25.2003 30.4056V32.4H27.6004V30.4056C27.8747 30.3225 28.1346 30.2145 28.383 30.0809L29.7942 31.4907L31.4909 29.794L30.0801 28.3828C30.2136 28.1347 30.3216 27.8745 30.4059 27.6001H32.4003ZM26.4001 28.1999C25.4065 28.1999 24.6002 27.3939 24.6002 26.3999C24.6002 25.4063 25.4065 24.5999 26.4001 24.5999C27.3941 24.5999 28.2001 25.4063 28.2001 26.3999C28.2001 27.3939 27.3941 28.1999 26.4001 28.1999Z" fill="#CA0E1A"/>
<path d="M8.39941 14.4L14.3995 16.8001L20.3997 14.4L14.3995 11.9999L8.39941 14.4Z" fill="#CA0E1A"/>
<path d="M17.9998 17.2987V19.1999C17.9998 21.1874 16.3874 22.7999 14.3998 22.7999C12.4122 22.7999 10.7998 21.1874 10.7998 19.1999V17.2987L14.3998 18.7383L17.9998 17.2987Z" fill="#CA0E1A"/>
</svg>
