<svg width="24" height="24" viewBox="0 0 24 24" fill="none" xmlns="http://www.w3.org/2000/svg">
<path d="M17.1673 4.43934C17.753 3.85355 18.7028 3.85355 19.2886 4.43934C19.8744 5.02513 19.8744 5.97487 19.2886 6.56066L6.56066 19.2886C5.97487 19.8744 5.02513 19.8744 4.43934 19.2886C3.85355 18.7028 3.85355 17.753 4.43934 17.1673L17.1673 4.43934Z" fill="#8293A4"/>
<path d="M4.43934 6.56066C3.85355 5.97487 3.85355 5.02513 4.43934 4.43934C5.02513 3.85355 5.97487 3.85355 6.56066 4.43934L19.2886 17.1673C19.8744 17.753 19.8744 18.7028 19.2886 19.2886C18.7028 19.8744 17.753 19.8744 17.1673 19.2886L4.43934 6.56066Z" fill="#8293A4"/>
</svg>
