<svg width="48" height="48" viewBox="0 0 48 48" fill="none" xmlns="http://www.w3.org/2000/svg">
<path fill-rule="evenodd" clip-rule="evenodd" d="M41 10.5C41 12.433 39.4331 14 37.5 14C35.5669 14 34 12.433 34 10.5C34 8.56702 35.5669 7 37.5 7C39.4331 7 41 8.56702 41 10.5ZM39 16.8261C41.8667 16.1489 44 13.5736 44 10.5C44 6.91016 41.0898 4 37.5 4C33.9102 4 31 6.91016 31 10.5C31 13.5736 33.1333 16.1489 36 16.8261V23.207C33.6914 23.86 32 25.9825 32 28.5C32 31.5376 34.4624 34 37.5 34C40.5376 34 43 31.5376 43 28.5C43 25.9825 41.3086 23.86 39 23.207V16.8261ZM11 9.5C11 10.3284 10.3286 11 9.5 11C8.67139 11 8 10.3284 8 9.5C8 8.67157 8.67139 8 9.5 8C10.3286 8 11 8.67157 11 9.5ZM11.4404 13.5614C10.853 13.8425 10.1948 14 9.5 14C7.01465 14 5 11.9853 5 9.5C5 7.01471 7.01465 5 9.5 5C11.9854 5 14 7.01471 14 9.5C14 10.1947 13.8428 10.8527 13.5615 11.4401L16.5039 14.3821C17.7852 13.5098 19.333 13 21 13C25.4185 13 29 16.5817 29 21C29 25.4183 25.4185 29 21 29C16.5815 29 13 25.4183 13 21C13 19.3329 13.5098 17.7849 14.3823 16.5034L11.4404 13.5614ZM37.5 31C38.8809 31 40 29.8807 40 28.5C40 27.1193 38.8809 26 37.5 26C36.1191 26 35 27.1193 35 28.5C35 29.8807 36.1191 31 37.5 31ZM11 37.5C11 38.3284 10.3286 39 9.5 39C8.67139 39 8 38.3284 8 37.5C8 36.6716 8.67139 36 9.5 36C10.3286 36 11 36.6716 11 37.5ZM9.5 42C11.4595 42 13.1265 40.7478 13.7441 39H17.1738C17.8511 41.8667 20.4263 44 23.5 44C27.0898 44 30 41.0898 30 37.5C30 33.9102 27.0898 31 23.5 31C20.4263 31 17.8511 33.1333 17.1738 36H13.7441C13.1265 34.2522 11.4595 33 9.5 33C7.01465 33 5 35.0147 5 37.5C5 39.9853 7.01465 42 9.5 42ZM23.5 41C21.5669 41 20 39.433 20 37.5C20 35.567 21.5669 34 23.5 34C25.4331 34 27 35.567 27 37.5C27 39.433 25.4331 41 23.5 41ZM9 23.5C9 24.3284 8.32861 25 7.5 25C6.67139 25 6 24.3284 6 23.5C6 22.6716 6.67139 22 7.5 22C8.32861 22 9 22.6716 9 23.5ZM37.5 42C38.3286 42 39 41.3284 39 40.5C39 39.6716 38.3286 39 37.5 39C36.6714 39 36 39.6716 36 40.5C36 41.3284 36.6714 42 37.5 42ZM25 7.5C25 8.32843 24.3286 9 23.5 9C22.6714 9 22 8.32843 22 7.5C22 6.67157 22.6714 6 23.5 6C24.3286 6 25 6.67157 25 7.5ZM21 26C23.7612 26 26 23.7614 26 21C26 18.2386 23.7612 16 21 16C18.2388 16 16 18.2386 16 21C16 23.7614 18.2388 26 21 26Z" fill="#CA0E1A"/>
</svg>
