<svg width="48" height="48" viewBox="0 0 48 48" fill="none" xmlns="http://www.w3.org/2000/svg">
<path fill-rule="evenodd" clip-rule="evenodd" d="M15 13.5C15 15.433 13.4331 17 11.5 17C9.56689 17 8 15.433 8 13.5C8 11.567 9.56689 10 11.5 10C13.4331 10 15 11.567 15 13.5ZM13 19.8261C15.8667 19.1489 18 16.5736 18 13.5C18 9.91016 15.0898 7 11.5 7C7.91016 7 5 9.91016 5 13.5C5 16.5736 7.1333 19.1489 10 19.8261V31.5V32.1739C7.1333 32.8511 5 35.4264 5 38.5C5 42.0898 7.91016 45 11.5 45C15.0898 45 18 42.0898 18 38.5C18 35.4264 15.8667 32.8511 13 32.1739V31.5C13 29.0147 15.0146 27 17.5 27H34C36.209 27 38 25.2091 38 23H35C35 23.5523 34.5522 24 34 24H17.5C15.8115 24 14.2534 24.5579 13 25.4995V19.8261ZM11.5 42C13.4331 42 15 40.433 15 38.5C15 36.567 13.4331 35 11.5 35C9.56689 35 8 36.567 8 38.5C8 40.433 9.56689 42 11.5 42ZM35 7H38V12H43V15H38V20H35V15H30V12H35V7Z" fill="#CA0E1A"/>
</svg>
