<svg width="48" height="48" viewBox="0 0 48 48" fill="none" xmlns="http://www.w3.org/2000/svg">
<path fill-rule="evenodd" clip-rule="evenodd" d="M9 10H22H25H28C28 8.34315 26.6569 7 25 7H9C7.34315 7 6 8.34315 6 10V39C6 40.6569 7.34315 42 9 42H25C26.6569 42 28 40.6569 28 39H25H22H9L9 10ZM12 14H22V17H12V14ZM38.4998 14H25V17H38.4998C38.9559 17.6072 39.6821 18 40.5 18C41.8807 18 43 16.8807 43 15.5C43 14.1193 41.8807 13 40.5 13C39.6821 13 38.9559 13.3928 38.4998 14ZM25 20H32.4998C32.9559 19.3928 33.6821 19 34.5 19C35.8807 19 37 20.1193 37 21.5C37 22.8807 35.8807 24 34.5 24C33.6821 24 32.9559 23.6072 32.4998 23H25V20ZM38.4998 26H25V29H38.4998C38.9559 29.6072 39.6821 30 40.5 30C41.8807 30 43 28.8807 43 27.5C43 26.1193 41.8807 25 40.5 25C39.6821 25 38.9559 25.3928 38.4998 26ZM25 32H29.4998C29.9559 31.3928 30.6821 31 31.5 31C32.8807 31 34 32.1193 34 33.5C34 34.8807 32.8807 36 31.5 36C30.6821 36 29.9559 35.6072 29.4998 35H25V32ZM22 20H12V23H22V20ZM12 26H22V29H12V26ZM22 32H12V35H22V32Z" fill="#CA0E1A"/>
</svg>
