<svg width="48" height="48" viewBox="0 0 48 48" fill="none" xmlns="http://www.w3.org/2000/svg">
<path fill-rule="evenodd" clip-rule="evenodd" d="M32.0002 24L44 43L20 43L32.0002 24ZM32 29L25.5563 40H38.5L32 29Z" fill="#CA0E1A"/>
<path fill-rule="evenodd" clip-rule="evenodd" d="M16 24C20.4183 24 24 20.4183 24 16C24 11.5817 20.4183 8 16 8C11.5817 8 8 11.5817 8 16C8 20.4183 11.5817 24 16 24ZM16 27C22.0751 27 27 22.0751 27 16C27 9.92487 22.0751 5 16 5C9.92487 5 5 9.92487 5 16C5 22.0751 9.92487 27 16 27Z" fill="#CA0E1A"/>
<path fill-rule="evenodd" clip-rule="evenodd" d="M13 26.5859C11.9239 26.2816 10.9148 25.8175 10 25.2211V38H23.1579L25.0527 35H13V26.5859ZM26.5859 13H35V28.7498L38.0001 33.5L38 10H25.2211C25.8175 10.9148 26.2816 11.9239 26.5859 13Z" fill="#CA0E1A"/>
</svg>
