<svg width="48" height="48" viewBox="0 0 48 48" fill="none" xmlns="http://www.w3.org/2000/svg">
<path fill-rule="evenodd" clip-rule="evenodd" d="M15 11C15 12.1046 14.1045 13 13 13C11.8955 13 11 12.1046 11 11C11 9.89545 11.8955 9 13 9C14.1045 9 15 9.89545 15 11ZM18 11C18 13.7614 15.7612 16 13 16C10.2388 16 8 13.7614 8 11C8 8.23859 10.2388 6 13 6C15.7612 6 18 8.23859 18 11ZM9 18C6.79102 18 5 19.7908 5 22V33H10V43H16V33H21V22C21 19.7908 19.209 18 17 18H9ZM38.5 15C40.9854 15 43 12.9853 43 10.5C43 8.01471 40.9854 6 38.5 6C36.5405 6 34.874 7.2522 34.2559 9H29H28H26V40H28H29H34.2559C34.874 41.7478 36.5405 43 38.5 43C40.9854 43 43 40.9853 43 38.5C43 36.0147 40.9854 34 38.5 34C36.5405 34 34.874 35.2522 34.2559 37H29V26H34.2559C34.874 27.7478 36.5405 29 38.5 29C40.9854 29 43 26.9853 43 24.5C43 22.0147 40.9854 20 38.5 20C36.5405 20 34.874 21.2522 34.2559 23H29V12H34.2559C34.874 13.7478 36.5405 15 38.5 15Z" fill="#CA0E1A"/>
</svg>
