<svg width="48" height="48" viewBox="0 0 48 48" fill="none" xmlns="http://www.w3.org/2000/svg">
<path fill-rule="evenodd" clip-rule="evenodd" d="M30.6449 37.4516C32.6076 36.4802 34.3271 35.092 35.6879 33.4025C35.4302 33.1877 35.1599 32.9794 34.8777 32.7783C34.2198 33.4596 33.3222 33.9079 32.3208 33.9873C31.8456 35.2674 31.2817 36.4316 30.6449 37.4516ZM28.0008 29.9204C28.0003 29.9469 28 29.9734 28 30C28 31.2422 28.5662 32.3521 29.4547 33.0858C29.1527 33.8804 28.8147 34.6119 28.4486 35.271C26.8737 38.1057 25.1772 39 24 39C22.8228 39 21.1263 38.1057 19.5514 35.271C18.7915 33.9031 18.1532 32.2232 17.705 30.3147C19.5302 29.7929 21.5418 29.5002 23.6687 29.5002C25.1796 29.5002 26.6321 29.6479 28.0008 29.9204ZM35.9991 29.9128C35.9674 28.4304 35.1292 27.1465 33.9057 26.4823C33.9679 25.6709 34 24.8422 34 24C34 22.4236 33.8874 20.8944 33.6759 19.4373C35.0355 18.8147 36.2798 18.0642 37.3759 17.2042C38.4144 19.2444 39 21.5538 39 24C39 26.4779 38.3992 28.8154 37.3353 30.8749C36.9119 30.5373 36.4658 30.2162 35.9991 29.9128ZM30.9225 26.1468C30.2773 26.3268 29.698 26.6645 29.2285 27.1157C27.4657 26.7142 25.5964 26.5002 23.6687 26.5002C21.4021 26.5002 19.2166 26.796 17.1902 27.3445C17.0664 26.2742 17 25.1557 17 24C17 23.6186 17.0072 23.2413 17.0214 22.8684C18.0181 22.606 18.8627 21.9685 19.3951 21.116C20.8149 21.3676 22.2941 21.4999 23.8093 21.4999C26.2655 21.4999 28.6264 21.1524 30.7928 20.5126C30.9276 21.6262 31 22.7928 31 24C31 24.7314 30.9734 25.448 30.9225 26.1468ZM14.8746 31.3728C15.4571 33.705 16.3074 35.7736 17.3551 37.4516C15.2676 36.4184 13.4551 34.9137 12.0568 33.0765C12.8873 32.4381 13.8331 31.8643 14.8746 31.3728ZM23.8093 18.4999C22.4574 18.4999 21.1522 18.3816 19.912 18.1614C19.6952 17.1452 19.0925 16.2719 18.2646 15.7023C18.6323 14.5989 19.0672 13.6006 19.5514 12.729C21.1263 9.89427 22.8228 9 24 9C25.1772 9 26.8737 9.89427 28.4486 12.729C29.1891 14.0618 29.8141 15.691 30.2602 17.5392C28.3082 18.1521 26.1273 18.4999 23.8093 18.4999ZM17.3551 10.5484C16.549 11.8395 15.8597 13.3619 15.3194 15.0577C14.6586 15.171 14.0531 15.4463 13.5454 15.8414C13.0347 15.5333 12.5549 15.2036 12.1092 14.855C13.5002 13.049 15.2936 11.5687 17.3551 10.5484ZM10.5185 17.4159C10.9995 17.7773 11.5073 18.1181 12.0393 18.4371C12.0134 18.621 12 18.8089 12 19C12 20.4949 12.8201 21.7983 14.0349 22.4848C14.0118 22.9844 14 23.4897 14 24C14 25.4983 14.1017 26.9538 14.2934 28.3454C12.8988 28.9407 11.6169 29.6675 10.4811 30.5072C9.53196 28.5389 9 26.3316 9 24C9 21.638 9.54592 19.4036 10.5185 17.4159ZM24 6C14.0589 6 6 14.0589 6 24C6 33.9411 14.0589 42 24 42C33.9411 42 42 33.9411 42 24C42 14.0589 33.9411 6 24 6ZM30.6449 10.5484C32.6346 11.5332 34.3745 12.9464 35.744 14.6674C34.9591 15.3104 34.0608 15.8933 33.0674 16.3996C32.4871 14.1603 31.6583 12.1716 30.6449 10.5484Z" fill="#CA0E1A"/>
</svg>
