<svg width="48" height="48" viewBox="0 0 48 48" fill="none" xmlns="http://www.w3.org/2000/svg">
<path d="M35.8438 41.504L43.1969 43.2008L41.5001 35.8477L39.8033 37.5445L35.2783 33.0195L33.0156 35.2822L37.5406 39.8072L35.8438 41.504Z" fill="#CA0E1A"/>
<path d="M12.15 6.49758L4.79688 4.80078L6.49368 12.1539L8.19048 10.4571L12.7159 14.9821L14.9782 12.7198L10.4532 8.19438L12.15 6.49758Z" fill="#CA0E1A"/>
<path d="M41.5001 12.1539L43.1969 4.80078L35.8438 6.49758L37.5406 8.19438L33.0156 12.7198L35.2783 14.9821L39.8033 10.4571L41.5001 12.1539Z" fill="#CA0E1A"/>
<path d="M6.49368 35.8477L4.79688 43.2008L12.15 41.504L10.4532 39.8072L14.9782 35.2822L12.7159 33.0195L8.19048 37.5445L6.49368 35.8477Z" fill="#CA0E1A"/>
<path d="M25.1984 25.5288V28.0003H22.7984V25.5288C19.8047 25.3848 16.894 24.6946 14.3984 23.4634V30.4008C14.3984 31.2807 15.1184 32.0011 15.9983 32.0011H31.9981C32.8775 32.0011 33.598 31.2807 33.598 30.4008V23.4629C31.1015 24.6941 28.1922 25.3848 25.1984 25.5288Z" fill="#CA0E1A"/>
<path d="M33.5984 20.7923V19.1987C33.5984 18.3188 32.878 17.5988 31.9986 17.5988H28.7984V14.3987C28.7984 13.5188 28.078 12.7988 27.1986 12.7988H20.7983C19.9184 12.7988 19.1984 13.5188 19.1984 14.3987V17.5988H15.9983C15.1184 17.5988 14.3984 18.3188 14.3984 19.1987V20.7923C19.7 23.9924 28.2954 23.9924 33.5984 20.7923ZM21.5984 15.1988H26.3984V17.5988H21.5984V15.1988Z" fill="#CA0E1A"/>
</svg>
