<svg width="48" height="48" viewBox="0 0 48 48" fill="none" xmlns="http://www.w3.org/2000/svg">
<path fill-rule="evenodd" clip-rule="evenodd" d="M23.5 12C24.8809 12 26 10.8807 26 9.5C26 8.11926 24.8809 7 23.5 7C22.1191 7 21 8.11926 21 9.5C21 10.8807 22.1191 12 23.5 12ZM23.5 15C26.5376 15 29 12.5375 29 9.5C29 6.46246 26.5376 4 23.5 4C20.4624 4 18 6.46246 18 9.5C18 12.5375 20.4624 15 23.5 15ZM22 25V38H16V41H31V38H25V25H22ZM13 30.5C13 31.8807 11.8809 33 10.5 33C9.11914 33 8 31.8807 8 30.5C8 29.1193 9.11914 28 10.5 28C11.8809 28 13 29.1193 13 30.5ZM16 30.5C16 33.5375 13.5376 36 10.5 36C7.4624 36 5 33.5375 5 30.5C5 27.4625 7.4624 25 10.5 25C13.5376 25 16 27.4625 16 30.5ZM36.5 33C35.1191 33 34 31.8807 34 30.5C34 29.1193 35.1191 28 36.5 28C37.8809 28 39 29.1193 39 30.5C39 31.8807 37.8809 33 36.5 33ZM36.5 36C33.4624 36 31 33.5375 31 30.5C31 27.4625 33.4624 25 36.5 25C39.5376 25 42 27.4625 42 30.5C42 33.5375 39.5376 36 36.5 36ZM28 21C28 20.4477 27.5522 20 27 20H20C19.4478 20 19 20.4477 19 21V23H16V21C16 18.7908 17.791 17 20 17H27C29.209 17 31 18.7908 31 21V23H28V21ZM12 38H7C4.79102 38 3 39.7908 3 42V44H6V42C6 41.4477 6.44775 41 7 41H12V38ZM40 38H35V41H40C40.5522 41 41 41.4477 41 42V44H44V42C44 39.7908 42.209 38 40 38ZM5 8.11084L7.12109 5.9895L17.021 15.889L14.8994 18.0103L5 8.11084ZM39.8999 5.9895L42.021 8.11084L32.1216 18.0103L30 15.889L39.8999 5.9895Z" fill="#CA0E1A"/>
</svg>
