<svg width="48" height="48" viewBox="0 0 48 48" fill="none" xmlns="http://www.w3.org/2000/svg">
<path fill-rule="evenodd" clip-rule="evenodd" d="M24 14C25.6567 14 27 12.6569 27 11C27 9.34314 25.6567 8 24 8C22.3433 8 21 9.34314 21 11C21 12.6569 22.3433 14 24 14ZM30 11C30 12.5807 29.3887 14.0187 28.3896 15.0904C32.3198 16.1724 35.6616 18.6713 37.8315 22H39.3745C41.2568 22 42.6738 23.7126 42.3218 25.5613L39.5713 40H43V43H36.5176H11.4824H5V40H8.42871L5.67822 25.5613C5.32617 23.7126 6.74365 22 8.62549 22H10.1689C12.3389 18.6713 15.6807 16.1725 19.6104 15.0905C18.6113 14.0187 18 12.5807 18 11C18 7.68628 20.6865 5 24 5C27.3135 5 30 7.68628 30 11ZM11.4824 40H36.5176L39.3745 25H8.62549L11.4824 40ZM24 17.5C27.9971 17.5 31.5894 19.2366 34.0625 22H13.9375C16.4106 19.2366 20.0034 17.5 24 17.5ZM24 37C25.6567 37 27 35.6569 27 34C27 32.3431 25.6567 31 24 31C22.3433 31 21 32.3431 21 34C21 35.6569 22.3433 37 24 37Z" fill="#CA0E1A"/>
</svg>
