<svg width="48" height="48" viewBox="0 0 48 48" fill="none" xmlns="http://www.w3.org/2000/svg">
<path fill-rule="evenodd" clip-rule="evenodd" d="M25.0381 18L27.3337 12.7529C28.3144 10.5112 26.672 8 24.2252 8C21.8562 8 20.2164 10.3662 21.0482 12.5843L23.0791 18H25.0381ZM27.0001 21L30.0821 13.9554C31.93 9.73163 28.8355 5 24.2252 5C19.7616 5 16.672 9.45828 18.2392 13.6377L21.0001 21H27.0001ZM16.0427 16.8362L17.2145 19.907L13.5608 23.5608L11.4395 21.4395L16.0427 16.8362ZM14.4972 12.2264C14.602 12.8671 14.7737 13.5105 15.0175 14.1493L15.3782 15.0947L8.91205 16.9422L8.08789 14.0576L14.4972 12.2264ZM15.0323 7.18966C14.6701 8.11713 14.4481 9.10544 14.3881 10.1227L8.11353 8.44949L8.88651 5.55078L15.0323 7.18966ZM31.0001 19.907L32.1719 16.8362L36.7751 21.4395L34.6538 23.5608L31.0001 19.907ZM33.1971 14.1493C33.4409 13.5105 33.6126 12.8671 33.7174 12.2264L40.1267 14.0576L39.3025 16.9422L32.8364 15.0947L33.1971 14.1493ZM33.8265 10.1227C33.7665 9.10544 33.5445 8.11713 33.1823 7.18966L39.3281 5.55078L40.1011 8.44949L33.8265 10.1227ZM24 32C25.1046 32 26 31.1046 26 30C26 28.8954 25.1046 28 24 28C22.8954 28 22 28.8954 22 30C22 31.1046 22.8954 32 24 32ZM24 35C26.7614 35 29 32.7614 29 30C29 27.2386 26.7614 25 24 25C21.2386 25 19 27.2386 19 30C19 32.7614 21.2386 35 24 35ZM41 30C41 31.1046 40.1046 32 39 32C37.8954 32 37 31.1046 37 30C37 28.8954 37.8954 28 39 28C40.1046 28 41 28.8954 41 30ZM44 30C44 32.7614 41.7614 35 39 35C36.2386 35 34 32.7614 34 30C34 27.2386 36.2386 25 39 25C41.7614 25 44 27.2386 44 30ZM9 32C10.1046 32 11 31.1046 11 30C11 28.8954 10.1046 28 9 28C7.89543 28 7 28.8954 7 30C7 31.1046 7.89543 32 9 32ZM9 35C11.7614 35 14 32.7614 14 30C14 27.2386 11.7614 25 9 25C6.23858 25 4 27.2386 4 30C4 32.7614 6.23858 35 9 35ZM26 43V40H22V43H19V40C19 38.3431 20.3431 37 22 37H26C27.6569 37 29 38.3431 29 40V43H26ZM41 40V43H44V40C44 38.3431 42.6569 37 41 37H37C35.3431 37 34 38.3431 34 40V43H37V40H41ZM11 40H7V43H4V40C4 38.3431 5.34315 37 7 37H11C12.6569 37 14 38.3431 14 40V43H11V40Z" fill="#CA0E1A"/>
</svg>
