<svg width="48" height="48" viewBox="0 0 48 48" fill="none" xmlns="http://www.w3.org/2000/svg">
<path fill-rule="evenodd" clip-rule="evenodd" d="M11.7175 6.76777L5 5L6.76777 11.7175L8.18198 10.3033L12.4246 14.5459L14.5459 12.4246L10.3033 8.18198L11.7175 6.76777ZM36.2825 41.2322L43 43L41.2322 36.2825L39.818 37.6967L35.5754 33.4541L33.4541 35.5754L37.6967 39.818L36.2825 41.2322ZM43 5L41.2322 11.7175L39.818 10.3033L35.5754 14.5459L33.4541 12.4246L37.6967 8.18198L36.2825 6.76777L43 5ZM6.76777 36.2825L5 43L11.7175 41.2322L10.3033 39.818L14.5459 35.5754L12.4246 33.4541L8.18198 37.6967L6.76777 36.2825ZM33.9468 19.4346C33.6824 18.0481 32.4636 17 31 17H29V15C29 13.067 27.933 11 26 11H22C20.067 11 19 13.067 19 15V17H17C15.5364 17 14.3176 18.048 14.0532 19.4346C16.6621 20.9983 20.122 22 24 22C27.878 22 31.3379 20.9983 33.9468 19.4346ZM14 22.8109V29C14 30.6569 15.3431 32 17 32H31C32.6569 32 34 30.6569 34 29V22.8109C31.3992 24.0682 28.3193 24.849 25 24.9803V28H23V24.9803C19.6807 24.849 16.6008 24.0682 14 22.8109ZM22.5 14C22 14 22 14.5 22 15V17H26V15C26 14.5 26 14 25.5 14H22.5Z" fill="#CA0E1A"/>
</svg>
