<svg width="48" height="48" viewBox="0 0 48 48" fill="none" xmlns="http://www.w3.org/2000/svg">
<path fill-rule="evenodd" clip-rule="evenodd" d="M8 8H40V26H43V8C43 6.34314 41.6567 5 40 5H8C6.34326 5 5 6.34314 5 8V26H8V8ZM16 10C15.0112 10 14.0444 10.2933 13.2222 10.8427C12.3999 11.392 11.7593 12.173 11.3804 13.0866C11.002 14.0002 10.9033 15.0056 11.0962 15.9755C11.2891 16.9454 11.7651 17.8362 12.4644 18.5355C13.1636 19.2348 14.0547 19.711 15.0244 19.9039C15.9946 20.0969 17 19.9979 17.9136 19.6194C18.8271 19.241 19.6079 18.6001 20.1572 17.7778C20.7065 16.9556 21 15.9889 21 15H16V10ZM33 11H24V14H33V11ZM11 23V26H21V23H11ZM24 18H29V21H24V18ZM37 18H32V21H37V18ZM10 35C11.1045 35 12 34.1046 12 33C12 31.8954 11.1045 31 10 31C8.89551 31 8 31.8954 8 33C8 34.1046 8.89551 35 10 35ZM10 38C12.7612 38 15 35.7614 15 33C15 30.2386 12.7612 28 10 28C7.23877 28 5 30.2386 5 33C5 35.7614 7.23877 38 10 38ZM26 33C26 34.1046 25.1045 35 24 35C22.8955 35 22 34.1046 22 33C22 31.8954 22.8955 31 24 31C25.1045 31 26 31.8954 26 33ZM29 33C29 35.7614 26.7612 38 24 38C21.2388 38 19 35.7614 19 33C19 30.2386 21.2388 28 24 28C26.7612 28 29 30.2386 29 33ZM40 33C40 34.1046 39.1045 35 38 35C36.8955 35 36 34.1046 36 33C36 31.8954 36.8955 31 38 31C39.1045 31 40 31.8954 40 33ZM43 33C43 35.7614 40.7612 38 38 38C35.2388 38 33 35.7614 33 33C33 30.2386 35.2388 28 38 28C40.7612 28 43 30.2386 43 33ZM16 43H5V40H13C14.6567 40 16 41.3431 16 43ZM27 40C28.6567 40 30 41.3431 30 43H18C18 41.3431 19.3433 40 21 40H27ZM43 43V40H35C33.3433 40 32 41.3431 32 43H43Z" fill="#CA0E1A"/>
</svg>
