<svg width="48" height="48" viewBox="0 0 48 48" fill="none" xmlns="http://www.w3.org/2000/svg">
<path d="M40.0001 4.80078H8.00094C6.24078 4.80078 4.80078 6.2403 4.80078 8.00046V33.6003C4.80078 35.3595 6.24078 36.8 8.00094 36.8H22.4005V40.0001H16.0006V43.1998H32.0005V40.0001H25.6011V36.8H40.0001C41.7598 36.8 43.2008 35.3595 43.2008 33.6003V8.00046C43.2008 6.2403 41.7598 4.80078 40.0001 4.80078ZM40.0001 33.6003H8.00094V8.00046H40.0001V33.6003Z" fill="#CA0E1A"/>
<path d="M28.5374 15.6699L22.8 21.4054L20.2622 18.8696L18 21.1318L22.8 25.9318L30.7997 17.9322L28.5374 15.6699Z" fill="#CA0E1A"/>
</svg>
