<svg width="48" height="48" viewBox="0 0 48 48" fill="none" xmlns="http://www.w3.org/2000/svg">
<path d="M38.4008 19.2008H30.4001C29.516 19.2008 28.8008 18.4851 28.8008 17.6005V11.2011C28.8008 7.66686 25.9347 4.80078 22.4009 4.80078H20.8016C19.9165 4.80078 19.2013 5.51646 19.2013 6.4011V14.4008C19.2013 17.0509 17.0513 19.2008 14.4013 19.2008H8.00142C6.24174 19.2008 4.80078 20.6413 4.80078 22.4005V36.8005C4.80078 38.5592 6.24174 40.0001 8.00142 40.0001H14.4008C15.5105 41.9033 18.4385 43.1969 20.8011 43.1969V43.1998H38.4008C41.0504 43.1969 43.1989 41.0499 43.1989 38.3998H43.2008V24.0008C43.2008 21.3502 41.0504 19.2008 38.4008 19.2008ZM8.00142 36.8005V22.4005H14.4008V36.8005H8.00142ZM39.9992 38.3998C39.9992 39.2849 39.284 40.0001 38.3989 40.0001H20.8011V39.9973C19.0333 39.9973 17.6005 38.5625 17.6005 36.7966V21.7256C20.4243 20.4881 22.4005 17.6787 22.4005 14.4008V8.00094C24.1683 8.00094 25.6006 9.43182 25.6006 11.2011V17.6005C25.6006 20.2505 27.7505 22.4005 30.3997 22.4005H38.4008C39.2849 22.4005 40.0001 23.1161 40.0001 24.0008V38.3998H39.9992Z" fill="#CA0E1A"/>
</svg>
