<svg width="48" height="48" viewBox="0 0 48 48" fill="none" xmlns="http://www.w3.org/2000/svg">
<path d="M25.6008 11.1992C22.9507 11.1992 20.8008 13.3491 20.8008 15.9992C20.8008 18.6493 22.9507 20.7992 25.6008 20.7992C28.2509 20.7992 30.4008 18.6493 30.4008 15.9992C30.4008 13.3496 28.2509 11.1992 25.6008 11.1992ZM25.6008 17.5995C24.7181 17.5995 24.0009 16.8839 24.0009 15.9997C24.0009 15.1151 24.7181 14.3994 25.6008 14.3994C26.4854 14.3994 27.2011 15.1151 27.2011 15.9992C27.2011 16.8839 26.4854 17.5995 25.6008 17.5995Z" fill="#CA0E1A"/>
<path d="M33.6 36.8008H24V40.0005H33.6V36.8008Z" fill="#CA0E1A"/>
<path d="M43.1994 30.4007H38.3994V27.2011C38.3994 24.5539 37.3227 22.1539 35.5837 20.4167L33.3229 22.6775C34.4821 23.8358 35.1992 25.4356 35.1992 27.2011V30.4007H31.9995V27.2011C31.9995 25.4337 30.5667 24.0009 28.7994 24.0009H19.1998C15.8451 24.0009 12.6853 22.643 10.3006 20.1758L8 22.4006C10.867 25.366 14.8266 27.2006 19.1994 27.2006V30.4003H14.3994V33.6009H17.5995V43.2009H20.7997V33.6009H36.7995V43.2009H39.9992V33.6009H43.1994V30.4007ZM22.3995 30.4007V27.2011H28.7994V30.4007H22.3995Z" fill="#CA0E1A"/>
<path d="M16.0006 4.80078H8.00094C6.24126 4.80078 4.80078 6.24126 4.80078 8.00094V12.8009C4.80078 14.5606 6.24126 16.0011 8.00094 16.0011H11.2011L16.0011 19.2013V16.0011C17.7603 16.0011 19.2013 14.5606 19.2013 12.8009V8.00094C19.2008 6.24126 17.7603 4.80078 16.0006 4.80078ZM16.0006 12.8009H8.00094V8.00094H16.0011V12.8009H16.0006Z" fill="#CA0E1A"/>
</svg>
