<svg width="48" height="48" viewBox="0 0 48 48" fill="none" xmlns="http://www.w3.org/2000/svg">
<path d="M38.671 36.4073C39.5067 35.1416 40.0006 33.6291 40.0006 32.0009C40.0006 27.5821 36.4193 24.0008 32.0009 24.0008C31.9145 24.0008 31.8349 24.0229 31.7494 24.0257C31.687 23.5918 31.6371 23.1512 31.5512 22.7321L36.8024 20.5573L35.5774 17.6014L30.6709 19.6357C29.5976 16.7854 27.9349 14.4637 25.9208 12.9795L28.8017 6.02622L25.8464 4.80078L23.06 11.5261C22.3318 11.3134 21.5758 11.2006 20.8025 11.2006C20.0293 11.2006 19.2723 11.3129 18.5446 11.5261L15.7587 4.80078L12.8024 6.02574L15.6838 12.979C13.6683 14.4632 12.007 16.7854 10.9337 19.6352L6.02574 17.6009L4.80078 20.5568L10.0539 22.7317C9.86622 23.6571 9.72702 24.6133 9.65838 25.6006H4.80222V28.8008H9.65838C9.7275 29.7886 9.8667 30.7448 10.0539 31.6697L4.80222 33.8446L6.02574 36.8009L10.9337 34.7667C12.8225 39.7851 16.532 43.2008 20.8025 43.2008C23.6917 43.2008 26.3177 41.6225 28.304 39.0536C29.4147 39.6382 30.6603 40.0006 32.0009 40.0006C33.6305 40.0006 35.143 39.5072 36.4088 38.6696L40.9381 43.2008L43.2008 40.9381L38.671 36.4073ZM20.8025 14.4008C22.8886 14.4008 24.812 15.7664 26.2539 17.9446C22.8133 19.5853 18.7913 19.5853 15.3507 17.9446C16.7912 15.7635 18.7165 14.4008 20.8025 14.4008ZM25.8445 37.051C24.4568 38.8851 22.6942 40.0011 20.8025 40.0011C16.4667 40.0011 12.8024 34.1389 12.8024 27.2014C12.8024 24.8792 13.2195 22.6856 13.9289 20.7824C18.2667 22.8795 23.3355 22.8824 27.6776 20.7857C28.1321 22.0045 28.4494 23.3513 28.6309 24.7702C25.9025 26.0413 24.0008 28.7912 24.0008 32.0009C24.0008 33.9257 24.7102 35.6696 25.8445 37.051ZM32.0009 36.8009C29.3494 36.8009 27.2009 34.651 27.2009 32.0009C27.2009 29.348 29.3494 27.2009 32.0009 27.2009C34.652 27.2009 36.8009 29.348 36.8009 32.0009C36.8009 34.651 34.652 36.8009 32.0009 36.8009Z" fill="#CA0E1A"/>
</svg>
