<svg width="130" height="130" viewBox="0 0 130 130" fill="none" xmlns="http://www.w3.org/2000/svg">
<path d="M73 90.7312L67.4699 89.9309L65.0006 85L62.5241 89.9309L57 90.7312L61.0015 94.5659L60.0644 100L65.0006 97.4431L69.944 100L68.9985 94.5659L73 90.7312Z" fill="#CA0E1A"/>
<path d="M33 90.7312L27.4699 89.9309L25.0006 85L22.5241 89.9309L17 90.7312L21.0015 94.5659L20.0644 100L25.0006 97.4431L29.944 100L28.9985 94.5659L33 90.7312Z" fill="#CA0E1A"/>
<path d="M93 90.7312L87.4699 89.9309L85.0006 85L82.5241 89.9309L77 90.7312L81.0015 94.5659L80.0644 100L85.0006 97.4431L89.944 100L88.9985 94.5659L93 90.7312Z" fill="#CA0E1A"/>
<path d="M113 90.7312L107.47 89.9309L105.001 85L102.524 89.9309L97 90.7312L101.001 94.5659L100.064 100L105.001 97.4431L109.944 100L108.999 94.5659L113 90.7312Z" fill="#CA0E1A"/>
<path d="M53 90.7312L47.4699 89.9309L45.0006 85L42.5241 89.9309L37 90.7312L41.0015 94.5659L40.0644 100L45.0006 97.4431L49.944 100L48.9985 94.5659L53 90.7312Z" fill="#CA0E1A"/>
<path d="M71 61H64C56.268 61 50 67.268 50 75V75" stroke="#DFE1E1" stroke-width="6"/>
<path d="M67 33C62.5 33.4974 59 37.3125 59 41.9451C59 46.5776 62.5 50.3927 67 50.8901" stroke="#DFE1E1" stroke-width="6"/>
<circle cx="65" cy="42" r="9" stroke="#8E9BA7" stroke-width="6"/>
<path d="M83 75V75C83 67.268 76.732 61 69 61H61C53.268 61 47 67.268 47 75V75" stroke="#8E9BA7" stroke-width="6"/>
</svg>
