<svg width="199" height="132" viewBox="0 0 199 132" fill="none" xmlns="http://www.w3.org/2000/svg">
<path d="M47.0532 102.215C47.0532 101.489 46.8027 100.934 46.3016 100.549C45.8006 100.156 44.8987 99.7465 43.5959 99.3195C42.2931 98.8839 41.2618 98.4569 40.5018 98.0385C38.4308 96.8941 37.3952 95.3527 37.3952 93.4141C37.3952 92.4064 37.6708 91.5097 38.222 90.724C38.7815 89.9298 39.579 89.3107 40.6146 88.8666C41.6584 88.4225 42.8276 88.2005 44.122 88.2005C45.4248 88.2005 46.5856 88.4439 47.6044 88.9307C48.6232 89.4089 49.4124 90.0878 49.9719 90.9674C50.5398 91.847 50.8237 92.8462 50.8237 93.9649H47.0658C47.0658 93.111 46.8027 92.4491 46.2766 91.9794C45.7505 91.5012 45.0114 91.2621 44.0594 91.2621C43.1408 91.2621 42.4267 91.4628 41.9173 91.8641C41.4079 92.257 41.1532 92.7779 41.1532 93.4269C41.1532 94.0333 41.4497 94.5414 42.0426 94.9513C42.6439 95.3612 43.5249 95.7455 44.6857 96.1042C46.8236 96.7618 48.381 97.5773 49.3581 98.5509C50.3352 99.5244 50.8237 100.737 50.8237 102.189C50.8237 103.803 50.2266 105.071 49.0324 105.993C47.8382 106.907 46.2306 107.364 44.2097 107.364C42.8067 107.364 41.529 107.104 40.3766 106.583C39.2241 106.053 38.3431 105.332 37.7335 104.418C37.1322 103.504 36.8315 102.445 36.8315 101.241H40.602C40.602 103.299 41.8046 104.328 44.2097 104.328C45.1033 104.328 45.8006 104.145 46.3016 103.777C46.8027 103.402 47.0532 102.881 47.0532 102.215Z" fill="white"/>
<path d="M56.6736 94.7592C57.634 93.5807 58.8407 92.9914 60.2938 92.9914C63.2334 92.9914 64.724 94.7378 64.7658 98.2306V107.108H61.1456V98.3331C61.1456 97.5389 60.9786 96.9539 60.6446 96.5782C60.3105 96.1939 59.7552 96.0017 58.9785 96.0017C57.9179 96.0017 57.1496 96.4202 56.6736 97.2571V107.108H53.0535V87.4319H56.6736V94.7592Z" fill="white"/>
<path d="M73.7348 107.364C71.7473 107.364 70.1272 106.741 68.8745 105.494C67.6302 104.247 67.0081 102.586 67.0081 100.511V100.152C67.0081 98.7601 67.2711 97.5176 67.7972 96.4244C68.3233 95.3228 69.0666 94.4773 70.027 93.8881C70.9957 93.2903 72.098 92.9914 73.334 92.9914C75.1879 92.9914 76.6452 93.5892 77.7057 94.7848C78.7747 95.9804 79.3092 97.6755 79.3092 99.8703V101.382H70.6783C70.7953 102.287 71.146 103.013 71.7306 103.56C72.3235 104.106 73.0709 104.379 73.9728 104.379C75.3675 104.379 76.4573 103.863 77.2423 102.829L79.021 104.866C78.4782 105.652 77.7433 106.267 76.8164 106.711C75.8894 107.146 74.8622 107.364 73.7348 107.364ZM73.3214 95.9889C72.6033 95.9889 72.0187 96.2366 71.5677 96.7319C71.1251 97.2272 70.8412 97.936 70.7159 98.8583H75.7516V98.5637C75.7349 97.7439 75.5178 97.1119 75.1002 96.6678C74.6827 96.2152 74.0897 95.9889 73.3214 95.9889Z" fill="white"/>
<path d="M88.9922 96.7191C88.4995 96.6508 88.0652 96.6166 87.6894 96.6166C86.3199 96.6166 85.4221 97.0906 84.9962 98.0385V107.108H81.376V93.2476H84.7958L84.896 94.9001C85.6225 93.6276 86.6288 92.9914 87.9149 92.9914C88.3158 92.9914 88.6916 93.0469 89.0423 93.1579L88.9922 96.7191Z" fill="white"/>
<path d="M102.947 100.306C102.947 102.441 102.471 104.153 101.519 105.443C100.575 106.724 99.2974 107.364 97.6856 107.364C96.3161 107.364 95.2095 106.877 94.3661 105.904V112.437H90.7459V93.2476H94.103L94.2283 94.6054C95.1052 93.5294 96.2492 92.9914 97.6606 92.9914C99.3308 92.9914 100.629 93.6234 101.556 94.8873C102.483 96.1512 102.947 97.8933 102.947 100.114V100.306ZM99.3266 100.037C99.3266 98.7473 99.1011 97.7524 98.6502 97.0521C98.2076 96.3519 97.5604 96.0017 96.7086 96.0017C95.5728 96.0017 94.792 96.4458 94.3661 97.3339V103.009C94.8087 103.922 95.5979 104.379 96.7336 104.379C98.4623 104.379 99.3266 102.932 99.3266 100.037Z" fill="white"/>
<path d="M114.897 102.215C114.897 101.489 114.647 100.934 114.146 100.549C113.644 100.156 112.743 99.7465 111.44 99.3195C110.137 98.8839 109.106 98.4569 108.346 98.0385C106.275 96.8941 105.239 95.3527 105.239 93.4141C105.239 92.4064 105.515 91.5097 106.066 90.724C106.625 89.9298 107.423 89.3107 108.458 88.8666C109.502 88.4225 110.672 88.2005 111.966 88.2005C113.269 88.2005 114.429 88.4439 115.448 88.9307C116.467 89.4089 117.256 90.0878 117.816 90.9674C118.384 91.847 118.668 92.8462 118.668 93.9649H114.91C114.91 93.111 114.647 92.4491 114.12 91.9794C113.594 91.5012 112.855 91.2621 111.903 91.2621C110.985 91.2621 110.271 91.4628 109.761 91.8641C109.252 92.257 108.997 92.7779 108.997 93.4269C108.997 94.0333 109.294 94.5414 109.887 94.9513C110.488 95.3612 111.369 95.7455 112.53 96.1042C114.667 96.7618 116.225 97.5773 117.202 98.5509C118.179 99.5244 118.668 100.737 118.668 102.189C118.668 103.803 118.071 105.071 116.876 105.993C115.682 106.907 114.075 107.364 112.054 107.364C110.651 107.364 109.373 107.104 108.22 106.583C107.068 106.053 106.187 105.332 105.577 104.418C104.976 103.504 104.675 102.445 104.675 101.241H108.446C108.446 103.299 109.649 104.328 112.054 104.328C112.947 104.328 113.644 104.145 114.146 103.777C114.647 103.402 114.897 102.881 114.897 102.215Z" fill="white"/>
<path d="M120.421 100.05C120.421 98.6747 120.68 97.4492 121.198 96.3732C121.716 95.2972 122.459 94.4645 123.428 93.8753C124.405 93.286 125.536 92.9914 126.822 92.9914C128.651 92.9914 130.142 93.5636 131.294 94.7079C132.455 95.8523 133.102 97.4065 133.236 99.3707L133.261 100.319C133.261 102.445 132.681 104.153 131.52 105.443C130.359 106.724 128.802 107.364 126.847 107.364C124.893 107.364 123.332 106.724 122.163 105.443C121.002 104.162 120.421 102.419 120.421 100.216V100.05ZM124.042 100.319C124.042 101.634 124.284 102.642 124.768 103.342C125.252 104.034 125.946 104.379 126.847 104.379C127.724 104.379 128.409 104.038 128.902 103.355C129.395 102.663 129.641 101.561 129.641 100.05C129.641 98.7601 129.395 97.7609 128.902 97.0521C128.409 96.3433 127.716 95.9889 126.822 95.9889C125.937 95.9889 125.252 96.3433 124.768 97.0521C124.284 97.7524 124.042 98.8412 124.042 100.319Z" fill="white"/>
<path d="M136.48 107.108V95.9633H134.464V93.2476H136.48V92.0691C136.48 90.5148 136.915 89.3107 137.783 88.4567C138.66 87.5942 139.883 87.1629 141.453 87.1629C141.955 87.1629 142.568 87.2483 143.295 87.4191L143.257 90.2885C142.957 90.2117 142.589 90.1732 142.155 90.1732C140.794 90.1732 140.113 90.8265 140.113 92.1331V93.2476H142.806V95.9633H140.113V107.108H136.48Z" fill="white"/>
<path d="M149.02 89.8402V93.2476H151.337V95.9633H149.02V102.881C149.02 103.393 149.116 103.76 149.308 103.982C149.5 104.204 149.867 104.315 150.41 104.315C150.811 104.315 151.166 104.285 151.475 104.226V107.031C150.765 107.253 150.034 107.364 149.283 107.364C146.744 107.364 145.449 106.053 145.399 103.431V95.9633H143.42V93.2476H145.399V89.8402H149.02Z" fill="white"/>
<path opacity="0.4" fill-rule="evenodd" clip-rule="evenodd" d="M23 78.053L66.2987 36.6303L72.4597 41.423L92.6544 19L119.01 49.8103L124.658 44.6752L176 93.8005L127.909 57.1705L114.389 70.1793L89.4027 31.6664L74.3423 52.2066L65.443 44.5041L23 78.053Z" fill="white"/>
<path opacity="0.2" fill-rule="evenodd" clip-rule="evenodd" d="M114.389 70.1797L92.6543 19.3428L119.01 49.8107" fill="white"/>
</svg>
