<svg width="199" height="132" viewBox="0 0 199 132" fill="none" xmlns="http://www.w3.org/2000/svg">
<g clip-path="url(#clip0_692_5729)">
<path d="M38.4627 69.8495C38.647 68.4355 38.9496 67.0322 39.5024 65.498C39.6833 64.9926 39.9232 64.5118 40.1353 63.971C40.1422 63.9568 40.1353 63.9356 40.1353 63.9144C40.2396 63.2923 39.5998 62.3803 39.1999 61.8182C38.7062 61.1219 38.115 60.5139 37.5413 59.9447C36.3034 58.7146 34.8708 57.5446 33.1774 56.5265C30.6564 55.01 27.6277 53.7481 25.2875 53.6032C24.7277 53.5678 23.5002 53.5713 23.1247 54.1652C23.0239 54.3243 23.0656 54.9181 23.076 55.2575C23.2777 60.7153 24.9502 65.8833 27.3287 70.613C28.6048 73.1511 30.3712 75.622 32.4298 77.9196C34.5196 80.2491 36.9536 82.4726 40.1562 84.4132C40.3405 84.5122 40.5282 84.6147 40.7125 84.7137C41.0568 84.8091 41.5888 85.1803 41.7696 84.8939C41.8982 84.6925 41.2758 83.9042 41.168 83.731C38.6575 79.5916 37.7916 75.0033 38.4627 69.8495Z" fill="#9E9E9E"/>
<path d="M24.4448 51.4575C24.1771 51.613 23.8815 51.7898 23.5894 52.0054C23.3669 52.1715 22.9149 52.5392 23.0087 52.7901C23.0957 53.0128 24.2779 52.7937 24.5839 52.7831C28.5688 52.6452 31.674 53.7198 34.3202 55.0772C36.6499 56.272 38.6006 57.792 40.301 59.6514C40.527 59.9023 40.8574 60.2346 41.1321 60.5846C41.3407 60.8532 41.6154 61.4294 41.8936 61.5955C42.5508 61.9808 44.0286 61.7652 44.9014 61.5885C47.7701 61.0052 50.1833 59.9094 52.2453 58.5414C53.6118 57.6329 54.8567 56.6927 56.0946 55.5191C56.8874 54.7697 57.8332 53.8047 58.3235 52.6275C58.473 52.267 58.6851 51.5706 58.5182 51.1888C58.4382 51.005 57.9132 50.8141 57.6524 50.6763C53.8413 48.6932 49.4183 47.3782 44.1503 47H39.0596C33.2492 47.5656 28.4576 49.0927 24.4448 51.4575Z" fill="#9E9E9E"/>
<path d="M59.5404 53.1825C59.5126 52.9033 59.4222 52.32 59.1614 52.2811C58.9285 52.2458 58.5216 53.3982 58.3791 53.6739C56.5048 57.2512 54.036 59.4463 51.5567 61.0971C49.373 62.55 47.1059 63.5115 44.6718 64.0735C44.345 64.1477 43.8964 64.275 43.4618 64.3422C43.1279 64.3916 42.4986 64.3457 42.2204 64.5083C41.5632 64.8936 41.0103 66.3005 40.7217 67.1595C39.7829 69.9768 39.5082 72.6491 39.6472 75.1483C39.7376 76.8061 39.915 78.3721 40.2975 80.0512C40.5409 81.1222 40.8886 82.4372 41.6466 83.4588C41.8761 83.7699 42.3664 84.3072 42.7733 84.3461C42.968 84.3673 43.3957 83.9996 43.6426 83.8406C47.8744 81.0515 51.7515 77.0571 55.0687 71.2847C55.3191 70.8074 55.5695 70.3267 55.8198 69.8495C58.4173 64.2432 59.5857 59.0822 59.5787 54.2112C59.5787 53.8966 59.5787 53.5502 59.5404 53.1825Z" fill="#9E9E9E"/>
<path d="M93.9645 69.0506H77.4442V81.6348H75.2188V55.155H77.4442V66.9862H93.9645V55.155H96.2316V81.6348H93.9645V69.0506Z" fill="#665F62"/>
<path d="M114.345 54.7202C121.96 54.7202 126.999 60.6764 126.999 68.4178C126.999 76.1592 121.96 82.1155 114.345 82.1155C106.692 82.1155 101.691 76.1592 101.691 68.4178C101.695 60.6729 106.692 54.7202 114.345 54.7202ZM114.345 56.7845C108.02 56.7845 104.035 61.6697 104.035 68.4178C104.035 75.0882 108.02 80.0511 114.345 80.0511C120.594 80.0511 124.655 75.0882 124.655 68.4178C124.655 61.6662 120.594 56.7845 114.345 56.7845Z" fill="#665F62"/>
<path d="M137.623 69.1708L134.733 72.3875V81.6383H132.508V55.155H134.733V69.6445L147.307 55.155H150.158L139.066 67.778L151.212 81.6348H148.36L137.623 69.1708Z" fill="#9E9E9E"/>
<path d="M152.309 68.4178C152.309 60.2805 158.126 54.7202 165.432 54.7202C169.65 54.7202 172.772 56.5866 174.997 59.4039L173.123 60.634C171.482 58.3328 168.634 56.7845 165.432 56.7845C159.378 56.7845 154.652 61.5071 154.652 68.4178C154.652 75.2472 159.378 80.0511 165.432 80.0511C168.634 80.0511 171.486 78.5028 173.123 76.2016L174.997 77.3929C172.692 80.2915 169.646 82.119 165.432 82.119C158.129 82.112 152.309 76.5551 152.309 68.4178Z" fill="#9E9E9E"/>
</g>
<defs>
<clipPath id="clip0_692_5729">
<rect width="152" height="38" fill="white" transform="translate(23 47)"/>
</clipPath>
</defs>
</svg>
