<svg width="199" height="132" viewBox="0 0 199 132" fill="none" xmlns="http://www.w3.org/2000/svg">
<path fill-rule="evenodd" clip-rule="evenodd" d="M176.444 83.0968H92.0664V79.9561H176.444V83.0968Z" fill="#CCCCCC"/>
<path d="M35.3258 75.2868C33.4858 75.2868 31.8095 74.9852 30.2972 74.3822C28.7848 73.7792 27.4867 72.8998 26.4028 71.744C25.319 70.5882 24.4746 69.1686 23.8696 67.4852C23.2899 65.7766 23 63.8293 23 61.6434C23 59.4574 23.3277 57.5227 23.983 55.8393C24.6636 54.1307 25.571 52.6985 26.7053 51.5428C27.8396 50.387 29.1629 49.5076 30.6753 48.9045C32.1876 48.3015 33.8008 48 35.5149 48C36.5987 48 37.5692 48.0754 38.4262 48.2261C39.3084 48.3769 40.0646 48.5528 40.6947 48.7538C41.3501 48.9548 41.8794 49.1558 42.2827 49.3568C42.686 49.5578 42.9633 49.7086 43.1145 49.8091L42.0559 52.8242C41.829 52.6734 41.5013 52.5101 41.0728 52.3342C40.6443 52.1583 40.1528 51.9825 39.5982 51.8066C39.0689 51.6307 38.4766 51.4925 37.8212 51.392C37.1911 51.2664 36.5483 51.2036 35.8929 51.2036C34.5066 51.2036 33.2589 51.4423 32.1498 51.9196C31.0408 52.397 30.0955 53.088 29.3141 53.9925C28.5328 54.8971 27.9278 56.0026 27.4993 57.3092C27.096 58.5906 26.8944 60.0353 26.8944 61.6434C26.8944 63.2012 27.0708 64.6208 27.4237 65.9022C27.8018 67.1836 28.3563 68.2892 29.0873 69.2188C29.8183 70.1234 30.7257 70.8269 31.8095 71.3294C32.9186 71.8319 34.2041 72.0832 35.6661 72.0832C37.3549 72.0832 38.7538 71.9073 39.8629 71.5556C40.972 71.2038 41.8038 70.8897 42.3583 70.6133L43.3036 73.6284C43.1271 73.7541 42.812 73.9174 42.3583 74.1184C41.9046 74.2943 41.3375 74.4702 40.6569 74.646C39.9763 74.8219 39.1823 74.9727 38.2749 75.0983C37.3675 75.2239 36.3845 75.2868 35.3258 75.2868Z" fill="black"/>
<path d="M64.0785 64.9223C64.0785 66.4801 63.8517 67.8872 63.398 69.1435C62.9443 70.3998 62.3015 71.4802 61.4697 72.3847C60.6631 73.2892 59.6927 73.9928 58.5584 74.4953C57.4241 74.9727 56.189 75.2114 54.8531 75.2114C53.5172 75.2114 52.2821 74.9727 51.1478 74.4953C50.0135 73.9928 49.0305 73.2892 48.1987 72.3847C47.3921 71.4802 46.7619 70.3998 46.3082 69.1435C45.8545 67.8872 45.6276 66.4801 45.6276 64.9223C45.6276 63.3896 45.8545 61.9951 46.3082 60.7388C46.7619 59.4574 47.3921 58.3644 48.1987 57.4599C49.0305 56.5554 50.0135 55.8644 51.1478 55.387C52.2821 54.8845 53.5172 54.6332 54.8531 54.6332C56.189 54.6332 57.4241 54.8845 58.5584 55.387C59.6927 55.8644 60.6631 56.5554 61.4697 57.4599C62.3015 58.3644 62.9443 59.4574 63.398 60.7388C63.8517 61.9951 64.0785 63.3896 64.0785 64.9223ZM60.411 64.9223C60.411 62.7112 59.9069 60.965 58.8987 59.6836C57.9156 58.377 56.5671 57.7237 54.8531 57.7237C53.1391 57.7237 51.7779 58.377 50.7697 59.6836C49.7867 60.965 49.2951 62.7112 49.2951 64.9223C49.2951 67.1334 49.7867 68.8922 50.7697 70.1988C51.7779 71.4802 53.1391 72.1209 54.8531 72.1209C56.5671 72.1209 57.9156 71.4802 58.8987 70.1988C59.9069 68.8922 60.411 67.1334 60.411 64.9223Z" fill="black"/>
<path d="M76.285 54.7086C76.5875 54.7086 76.9278 54.7337 77.3059 54.784C77.7092 54.8091 78.0999 54.8594 78.4779 54.9348C78.856 54.985 79.1963 55.0478 79.4988 55.1232C79.8265 55.1735 80.0659 55.2237 80.2172 55.274L79.6122 58.3268C79.335 58.2263 78.8686 58.1132 78.2133 57.9876C77.5831 57.8368 76.7639 57.7614 75.7557 57.7614C75.1003 57.7614 74.445 57.8368 73.7896 57.9876C73.1595 58.1132 72.7435 58.2011 72.5419 58.2514V74.7214H69.0256V55.9524C69.8574 55.6508 70.8909 55.3745 72.126 55.1232C73.3611 54.8468 74.7474 54.7086 76.285 54.7086Z" fill="black"/>
<path d="M97.2594 64.96C97.2594 62.6735 96.6923 60.9147 95.558 59.6836C94.4237 58.4524 92.9113 57.8368 91.0209 57.8368C89.9622 57.8368 89.1304 57.8745 88.5255 57.9499C87.9457 58.0252 87.4794 58.1132 87.1265 58.2137V70.5756C87.555 70.9274 88.1726 71.2666 88.9792 71.5932C89.7858 71.9199 90.668 72.0832 91.6258 72.0832C92.6341 72.0832 93.4911 71.9073 94.1968 71.5556C94.9278 71.1787 95.5202 70.6761 95.9739 70.048C96.4276 69.3947 96.7553 68.6409 96.9569 67.7867C97.1586 66.9073 97.2594 65.965 97.2594 64.96ZM100.927 64.96C100.927 66.4424 100.725 67.8118 100.322 69.0681C99.9438 70.3244 99.3767 71.4048 98.6205 72.3093C97.8643 73.2139 96.9317 73.9174 95.8226 74.4199C94.7388 74.9224 93.4911 75.1737 92.0795 75.1737C90.9452 75.1737 89.937 75.0229 89.0548 74.7214C88.1978 74.4199 87.555 74.131 87.1265 73.8546V81.6939H83.6103V55.7262C84.4421 55.5252 85.4755 55.3116 86.7106 55.0855C87.9709 54.8343 89.4203 54.7086 91.0587 54.7086C92.571 54.7086 93.9322 54.9473 95.1421 55.4247C96.352 55.9021 97.3854 56.5805 98.2424 57.4599C99.0994 58.3393 99.7548 59.4197 100.209 60.7012C100.687 61.9574 100.927 63.3771 100.927 64.96Z" fill="black"/>
<path d="M113.059 48.3392C116.739 48.3392 119.562 49.0427 121.528 50.4498C123.519 51.8317 124.515 53.9046 124.515 56.6684C124.515 58.176 124.238 59.47 123.683 60.5504C123.154 61.6057 122.372 62.4725 121.339 63.1509C120.331 63.8042 119.096 64.2816 117.634 64.5831C116.172 64.8846 114.521 65.0354 112.681 65.0354H109.769V74.7214H106.102V48.9799C107.135 48.7287 108.282 48.5653 109.542 48.49C110.828 48.3895 112 48.3392 113.059 48.3392ZM113.361 51.5428C111.798 51.5428 110.601 51.5804 109.769 51.6558V61.9072H112.529C113.79 61.9072 114.924 61.8318 115.932 61.6811C116.94 61.5052 117.785 61.2288 118.465 60.8519C119.171 60.4499 119.713 59.9097 120.091 59.2313C120.469 58.5529 120.658 57.686 120.658 56.6308C120.658 55.6257 120.457 54.7966 120.053 54.1433C119.675 53.49 119.146 52.9749 118.465 52.598C117.81 52.196 117.041 51.9196 116.159 51.7689C115.277 51.6181 114.344 51.5428 113.361 51.5428Z" fill="black"/>
<path d="M145.42 64.9223C145.42 66.4801 145.193 67.8872 144.74 69.1435C144.286 70.3998 143.643 71.4802 142.811 72.3847C142.005 73.2892 141.034 73.9928 139.9 74.4953C138.766 74.9727 137.531 75.2114 136.195 75.2114C134.859 75.2114 133.624 74.9727 132.489 74.4953C131.355 73.9928 130.372 73.2892 129.54 72.3847C128.734 71.4802 128.103 70.3998 127.65 69.1435C127.196 67.8872 126.969 66.4801 126.969 64.9223C126.969 63.3896 127.196 61.9951 127.65 60.7388C128.103 59.4574 128.734 58.3644 129.54 57.4599C130.372 56.5554 131.355 55.8644 132.489 55.387C133.624 54.8845 134.859 54.6332 136.195 54.6332C137.531 54.6332 138.766 54.8845 139.9 55.387C141.034 55.8644 142.005 56.5554 142.811 57.4599C143.643 58.3644 144.286 59.4574 144.74 60.7388C145.193 61.9951 145.42 63.3896 145.42 64.9223ZM141.753 64.9223C141.753 62.7112 141.248 60.965 140.24 59.6836C139.257 58.377 137.909 57.7237 136.195 57.7237C134.481 57.7237 133.119 58.377 132.111 59.6836C131.128 60.965 130.637 62.7112 130.637 64.9223C130.637 67.1334 131.128 68.8922 132.111 70.1988C133.119 71.4802 134.481 72.1209 136.195 72.1209C137.909 72.1209 139.257 71.4802 140.24 70.1988C141.248 68.8922 141.753 67.1334 141.753 64.9223Z" fill="black"/>
<path d="M157.627 54.7086C157.929 54.7086 158.269 54.7337 158.647 54.784C159.051 54.8091 159.441 54.8594 159.819 54.9348C160.198 54.985 160.538 55.0478 160.84 55.1232C161.168 55.1735 161.407 55.2237 161.559 55.274L160.954 58.3268C160.676 58.2263 160.21 58.1132 159.555 57.9876C158.925 57.8368 158.105 57.7614 157.097 57.7614C156.442 57.7614 155.786 57.8368 155.131 57.9876C154.501 58.1132 154.085 58.2011 153.883 58.2514V74.7214H150.367V55.9524C151.199 55.6508 152.232 55.3745 153.468 55.1232C154.703 54.8468 156.089 54.7086 157.627 54.7086Z" fill="black"/>
<path d="M168.241 55.1232H175.69V58.0629H168.241V67.1083C168.241 68.0882 168.317 68.9048 168.468 69.558C168.619 70.1862 168.846 70.6887 169.149 71.0656C169.451 71.4174 169.829 71.6686 170.283 71.8194C170.737 71.9701 171.266 72.0455 171.871 72.0455C172.93 72.0455 173.774 71.9324 174.404 71.7063C175.059 71.455 175.513 71.2792 175.765 71.1787L176.446 74.0807C176.093 74.2566 175.475 74.4702 174.593 74.7214C173.711 74.9978 172.703 75.136 171.568 75.136C170.232 75.136 169.123 74.9727 168.241 74.646C167.384 74.2943 166.691 73.7792 166.162 73.1008C165.632 72.4224 165.254 71.5932 165.027 70.6133C164.826 69.6083 164.725 68.4525 164.725 67.146V49.6583L168.241 49.0553V55.1232Z" fill="black"/>
</svg>
