<?xml version="1.0" encoding="UTF-8" standalone="no"?><svg xmlns="http://www.w3.org/2000/svg" xmlns:xlink="http://www.w3.org/1999/xlink"><symbol id="about-documentation-1" width="36" height="36" viewBox="0 0 36 36" xmlns="http://www.w3.org/2000/svg"><path d="M28.8001 3.59998H7.2001C5.21146 3.59998 3.6001 5.21242 3.6001 7.19998V11.9999H8.39998V23.9997H3.6001V28.8C3.6001 30.7875 5.21146 32.4 7.2001 32.4H28.8001C30.7898 32.4 32.4001 30.7875 32.4001 28.8V7.19998C32.4001 5.21242 30.7877 3.59998 28.8001 3.59998ZM6.00022 9.60009V7.19998C6.00022 6.53722 6.5377 6.0001 7.2001 6.0001C7.8625 6.0001 8.39998 6.53758 8.39998 7.19998V9.60009H6.00022ZM6.00022 28.8V26.3999H8.40034V28.8C8.40034 29.462 7.86286 29.9999 7.20046 29.9999C6.53806 29.9999 6.00022 29.462 6.00022 28.8ZM30 28.8C30 29.462 29.4636 29.9999 28.8001 29.9999H10.5798C10.7133 29.6226 10.8001 29.223 10.8001 28.8V7.19998C10.8001 6.77698 10.7133 6.37738 10.5798 6.0001H28.8001C29.4621 6.0001 30 6.53758 30 7.19998V28.8Z"></path><path d="M27.5808 22.5598C27.6676 22.2329 28.1997 21.9525 28.1997 21.6C28.1997 21.2476 27.6676 20.9682 27.5834 20.6403C27.4894 20.3026 27.8109 19.7953 27.637 19.5001C27.466 19.1988 26.8637 19.2233 26.62 18.981C26.3784 18.7373 26.4022 18.1347 26.1023 17.9626C25.8071 17.7905 25.2984 18.1102 24.9608 18.0187C24.6328 17.9334 24.3534 17.4003 23.9999 17.4003C23.6482 17.4003 23.3692 17.9334 23.0412 18.0177C22.7014 18.1102 22.1949 17.7891 21.8997 17.9615C21.5973 18.1339 21.6232 18.7359 21.3795 18.9785C21.1383 19.2211 20.5356 19.1977 20.3625 19.4976C20.1911 19.7939 20.5101 20.3015 20.4186 20.6403C20.334 20.9671 19.7998 21.2476 19.7998 21.6C19.7998 21.9525 20.334 22.2318 20.4186 22.5598C20.5101 22.8982 20.1911 23.4047 20.3625 23.7013C20.5356 24.0023 21.1358 23.9778 21.3795 24.2201C21.49 24.3317 21.5436 24.5178 21.5998 24.7043V28.1999L23.9999 27L26.3997 28.1999V24.6996C26.4558 24.5153 26.5102 24.3306 26.62 24.2201C26.8637 23.9775 27.4664 24.0023 27.637 23.7013C27.8109 23.4061 27.4894 22.8982 27.5808 22.5598ZM23.9999 23.4C23.0034 23.4 22.1999 22.5961 22.1999 21.6C22.1999 20.6039 23.0034 19.8 23.9999 19.8C24.9935 19.8 25.7999 20.6039 25.7999 21.6C25.7999 22.5961 24.9935 23.4 23.9999 23.4Z"></path><path d="M25.2001 8.3999H13.2002V10.8H25.2001V8.3999Z"></path><path d="M27.6002 13.2001H13.2002V15.6002H27.6002V13.2001Z"></path><path d="M18.0001 18H13.2002V20.4001H18.0001V18Z"></path><path d="M17.9999 25.2C17.9999 26.5266 16.9264 27.6002 15.5998 27.6002C14.2732 27.6002 13.1997 26.5266 13.1997 25.2C13.1997 23.8745 14.2732 22.7999 15.5998 22.7999C16.9264 22.7999 17.9999 23.8745 17.9999 25.2Z"></path></symbol><symbol id="about-documentation-2" width="36" height="36" viewBox="0 0 36 36" xmlns="http://www.w3.org/2000/svg"><path d="M17.9996 25.2H5.99973V6.0001H14.6059L18.2059 9.6001H29.9995V18H32.3996V9.6001C32.3996 8.27566 31.3239 7.19998 29.9995 7.19998H19.1995L15.5995 3.59998H5.99973C4.67421 3.59998 3.59961 4.67458 3.59961 6.0001V27.6001H17.9996V25.2Z"></path><path d="M32.4003 27.6001V25.2H30.4059C30.3216 24.9257 30.2136 24.6647 30.0801 24.417L31.4909 23.0062L29.7942 21.3091L28.383 22.7189C28.135 22.5853 27.8747 22.4777 27.6004 22.3945V20.4001H25.2003V22.3945C24.9259 22.4777 24.6635 22.5853 24.4173 22.7189L23.0064 21.3081L21.3094 23.0062L22.7181 24.417C22.5845 24.6647 22.4765 24.9257 22.3948 25.2H20.4004V27.6001H22.3948C22.4769 27.8745 22.5845 28.1355 22.7181 28.3828L21.3094 29.794L23.0064 31.4907L24.4151 30.0809C24.6631 30.2145 24.9259 30.3225 25.2003 30.4056V32.4H27.6004V30.4056C27.8747 30.3225 28.1346 30.2145 28.383 30.0809L29.7942 31.4907L31.4909 29.794L30.0801 28.3828C30.2136 28.1347 30.3216 27.8745 30.4059 27.6001H32.4003ZM26.4001 28.1999C25.4065 28.1999 24.6002 27.3939 24.6002 26.3999C24.6002 25.4063 25.4065 24.5999 26.4001 24.5999C27.3941 24.5999 28.2001 25.4063 28.2001 26.3999C28.2001 27.3939 27.3941 28.1999 26.4001 28.1999Z"></path><path d="M8.39941 14.4L14.3995 16.8001L20.3997 14.4L14.3995 11.9999L8.39941 14.4Z"></path><path d="M17.9998 17.2987V19.1999C17.9998 21.1874 16.3874 22.7999 14.3998 22.7999C12.4122 22.7999 10.7998 21.1874 10.7998 19.1999V17.2987L14.3998 18.7383L17.9998 17.2987Z"></path></symbol><symbol id="about-documentation-3" width="36" height="36" viewBox="0 0 36 36" xmlns="http://www.w3.org/2000/svg"><path d="M3.59961 28.8C3.59961 30.7875 5.21097 32.4 7.19961 32.4H26.3995C28.3881 32.4 29.9995 30.7875 29.9995 28.8V10.8H32.3996V7.19998C32.3996 5.21242 30.7882 3.59998 28.7996 3.59998H11.9995C10.0108 3.59998 8.39949 5.21242 8.39949 7.19998V22.7999H3.59961V28.8ZM29.9995 7.19998V8.39986H15.5995V7.19998C15.5995 6.77698 15.5127 6.37738 15.3792 6.0001H28.7996C29.4631 6.0001 29.9995 6.53794 29.9995 7.19998ZM10.7996 7.19998C10.7996 6.53794 11.3364 6.0001 11.9995 6.0001C12.6626 6.0001 13.1994 6.53794 13.1994 7.19998V10.8H27.5994V28.8C27.5994 29.462 27.0626 29.9999 26.3991 29.9999H10.5793C10.7128 29.6226 10.7996 29.223 10.7996 28.8V7.19998ZM5.99973 25.2H8.39985V28.8C8.39985 29.462 7.86309 29.9999 7.19997 29.9999C6.53685 29.9999 5.99973 29.462 5.99973 28.8V25.2Z"></path><path d="M22.8003 13.2001H13.2002V15.6002H22.8003V13.2001Z"></path><path d="M25.2001 18H13.2002V20.4001H25.2001V18Z"></path><path d="M18.0001 22.7999H13.2002V25.2H18.0001V22.7999Z"></path><path d="M22.7995 27.6002C24.1251 27.6002 25.1997 26.5256 25.1997 25.2C25.1997 23.8745 24.1251 22.7999 22.7995 22.7999C21.474 22.7999 20.3994 23.8745 20.3994 25.2C20.3994 26.5256 21.474 27.6002 22.7995 27.6002Z"></path></symbol><symbol id="about-documentation-4" width="36" height="36" viewBox="0 0 36 36" xmlns="http://www.w3.org/2000/svg"><path d="M10.7999 3.59998C8.1492 3.59998 6 5.74918 6 8.39986V27.6001C6 30.2508 8.1492 32.4 10.7999 32.4H29.9998C28.0122 30.4113 28.0122 27.1875 29.9998 25.2V3.59998H10.7999ZM26.2158 29.9999H10.7999C9.47436 29.9999 8.39976 28.9256 8.39976 27.6001C8.39976 26.2746 9.47436 25.2 10.7999 25.2H27.0362C26.2255 26.6789 25.9548 28.3734 26.2158 29.9999ZM27.6 22.7999H10.7999C9.92112 22.7999 9.10788 23.0529 8.39976 23.4659V8.39986C8.39976 7.07434 9.47436 6.0001 10.7999 6.0001H27.6V22.7999Z"></path><path d="M25.2001 8.3999H12V10.8H25.2001V8.3999Z"></path><path d="M20.4002 13.2001H12V15.5998H20.4002V13.2001Z"></path></symbol><symbol id="arrow-down" width="32" height="32" viewBox="0 0 32 32" xmlns="http://www.w3.org/2000/svg"><path d="M16 22L6 12L7.4 10.6L16 19.2L24.6 10.6L26 12L16 22Z"></path></symbol><symbol id="arrow-right" width="21" height="22" viewBox="0 0 21 22" xmlns="http://www.w3.org/2000/svg"><path d="M0.378906 12.2989L0.378906 9.70148L15.9633 9.70147L8.82046 2.55862L10.6646 0.714464L20.9503 11.0002L10.6646 21.2859L8.82047 19.4417L15.9633 12.2989L0.378906 12.2989Z"></path></symbol><symbol id="burger" width="16" height="16" viewBox="0 0 16 16" xmlns="http://www.w3.org/2000/svg"><rect width="4" height="4"></rect><rect y="6" width="4" height="4"></rect><rect y="12" width="4" height="4"></rect><rect x="6" width="4" height="4"></rect><rect x="6" y="6" width="4" height="4"></rect><rect x="6" y="12" width="4" height="4"></rect><rect x="12" width="4" height="4"></rect><rect x="12" y="6" width="4" height="4"></rect><rect x="12" y="12" width="4" height="4"></rect></symbol><symbol id="check" width="16" height="11" viewBox="0 0 16 11" xmlns="http://www.w3.org/2000/svg"><path fill-rule="evenodd" clip-rule="evenodd" d="M15.2072 1.70712L6.00008 10.9142L0.792969 5.70712L2.20718 4.29291L6.00008 8.0858L13.793 0.292908L15.2072 1.70712Z"></path></symbol><symbol id="circle-check" width="96" height="96" viewBox="0 0 96 96" xmlns="http://www.w3.org/2000/svg"><path d="M48 88C25.9187 87.9758 8.02425 70.0814 8 48V47.2C8.43973 25.2181 26.5383 7.71184 48.5227 8.00353C70.507 8.29523 88.1348 26.2756 87.9911 48.2614C87.8475 70.2472 69.9863 87.9956 48 88ZM29.64 46.36L24 52L40 68L72 36L66.36 30.32L40 56.68L29.64 46.36Z"></path></symbol><symbol id="close" width="24" height="24" viewBox="0 0 24 24" xmlns="http://www.w3.org/2000/svg"><path d="M17.1673 4.43934C17.753 3.85355 18.7028 3.85355 19.2886 4.43934C19.8744 5.02513 19.8744 5.97487 19.2886 6.56066L6.56066 19.2886C5.97487 19.8744 5.02513 19.8744 4.43934 19.2886C3.85355 18.7028 3.85355 17.753 4.43934 17.1673L17.1673 4.43934Z"></path><path d="M4.43934 6.56066C3.85355 5.97487 3.85355 5.02513 4.43934 4.43934C5.02513 3.85355 5.97487 3.85355 6.56066 4.43934L19.2886 17.1673C19.8744 17.753 19.8744 18.7028 19.2886 19.2886C18.7028 19.8744 17.753 19.8744 17.1673 19.2886L4.43934 6.56066Z"></path></symbol><symbol id="digital-observe-1" width="48" height="48" viewBox="0 0 48 48" xmlns="http://www.w3.org/2000/svg"><path fill-rule="evenodd" clip-rule="evenodd" d="M41 10.5C41 12.433 39.4331 14 37.5 14C35.5669 14 34 12.433 34 10.5C34 8.56702 35.5669 7 37.5 7C39.4331 7 41 8.56702 41 10.5ZM39 16.8261C41.8667 16.1489 44 13.5736 44 10.5C44 6.91016 41.0898 4 37.5 4C33.9102 4 31 6.91016 31 10.5C31 13.5736 33.1333 16.1489 36 16.8261V23.207C33.6914 23.86 32 25.9825 32 28.5C32 31.5376 34.4624 34 37.5 34C40.5376 34 43 31.5376 43 28.5C43 25.9825 41.3086 23.86 39 23.207V16.8261ZM11 9.5C11 10.3284 10.3286 11 9.5 11C8.67139 11 8 10.3284 8 9.5C8 8.67157 8.67139 8 9.5 8C10.3286 8 11 8.67157 11 9.5ZM11.4404 13.5614C10.853 13.8425 10.1948 14 9.5 14C7.01465 14 5 11.9853 5 9.5C5 7.01471 7.01465 5 9.5 5C11.9854 5 14 7.01471 14 9.5C14 10.1947 13.8428 10.8527 13.5615 11.4401L16.5039 14.3821C17.7852 13.5098 19.333 13 21 13C25.4185 13 29 16.5817 29 21C29 25.4183 25.4185 29 21 29C16.5815 29 13 25.4183 13 21C13 19.3329 13.5098 17.7849 14.3823 16.5034L11.4404 13.5614ZM37.5 31C38.8809 31 40 29.8807 40 28.5C40 27.1193 38.8809 26 37.5 26C36.1191 26 35 27.1193 35 28.5C35 29.8807 36.1191 31 37.5 31ZM11 37.5C11 38.3284 10.3286 39 9.5 39C8.67139 39 8 38.3284 8 37.5C8 36.6716 8.67139 36 9.5 36C10.3286 36 11 36.6716 11 37.5ZM9.5 42C11.4595 42 13.1265 40.7478 13.7441 39H17.1738C17.8511 41.8667 20.4263 44 23.5 44C27.0898 44 30 41.0898 30 37.5C30 33.9102 27.0898 31 23.5 31C20.4263 31 17.8511 33.1333 17.1738 36H13.7441C13.1265 34.2522 11.4595 33 9.5 33C7.01465 33 5 35.0147 5 37.5C5 39.9853 7.01465 42 9.5 42ZM23.5 41C21.5669 41 20 39.433 20 37.5C20 35.567 21.5669 34 23.5 34C25.4331 34 27 35.567 27 37.5C27 39.433 25.4331 41 23.5 41ZM9 23.5C9 24.3284 8.32861 25 7.5 25C6.67139 25 6 24.3284 6 23.5C6 22.6716 6.67139 22 7.5 22C8.32861 22 9 22.6716 9 23.5ZM37.5 42C38.3286 42 39 41.3284 39 40.5C39 39.6716 38.3286 39 37.5 39C36.6714 39 36 39.6716 36 40.5C36 41.3284 36.6714 42 37.5 42ZM25 7.5C25 8.32843 24.3286 9 23.5 9C22.6714 9 22 8.32843 22 7.5C22 6.67157 22.6714 6 23.5 6C24.3286 6 25 6.67157 25 7.5ZM21 26C23.7612 26 26 23.7614 26 21C26 18.2386 23.7612 16 21 16C18.2388 16 16 18.2386 16 21C16 23.7614 18.2388 26 21 26Z"></path></symbol><symbol id="digital-observe-2" width="48" height="48" viewBox="0 0 48 48" xmlns="http://www.w3.org/2000/svg"><path fill-rule="evenodd" clip-rule="evenodd" d="M15 13.5C15 15.433 13.4331 17 11.5 17C9.56689 17 8 15.433 8 13.5C8 11.567 9.56689 10 11.5 10C13.4331 10 15 11.567 15 13.5ZM13 19.8261C15.8667 19.1489 18 16.5736 18 13.5C18 9.91016 15.0898 7 11.5 7C7.91016 7 5 9.91016 5 13.5C5 16.5736 7.1333 19.1489 10 19.8261V31.5V32.1739C7.1333 32.8511 5 35.4264 5 38.5C5 42.0898 7.91016 45 11.5 45C15.0898 45 18 42.0898 18 38.5C18 35.4264 15.8667 32.8511 13 32.1739V31.5C13 29.0147 15.0146 27 17.5 27H34C36.209 27 38 25.2091 38 23H35C35 23.5523 34.5522 24 34 24H17.5C15.8115 24 14.2534 24.5579 13 25.4995V19.8261ZM11.5 42C13.4331 42 15 40.433 15 38.5C15 36.567 13.4331 35 11.5 35C9.56689 35 8 36.567 8 38.5C8 40.433 9.56689 42 11.5 42ZM35 7H38V12H43V15H38V20H35V15H30V12H35V7Z"></path></symbol><symbol id="digital-observe-3" width="48" height="48" viewBox="0 0 48 48" xmlns="http://www.w3.org/2000/svg"><path fill-rule="evenodd" clip-rule="evenodd" d="M23.5 12C24.8809 12 26 10.8807 26 9.5C26 8.11926 24.8809 7 23.5 7C22.1191 7 21 8.11926 21 9.5C21 10.8807 22.1191 12 23.5 12ZM23.5 15C26.5376 15 29 12.5375 29 9.5C29 6.46246 26.5376 4 23.5 4C20.4624 4 18 6.46246 18 9.5C18 12.5375 20.4624 15 23.5 15ZM22 25V38H16V41H31V38H25V25H22ZM13 30.5C13 31.8807 11.8809 33 10.5 33C9.11914 33 8 31.8807 8 30.5C8 29.1193 9.11914 28 10.5 28C11.8809 28 13 29.1193 13 30.5ZM16 30.5C16 33.5375 13.5376 36 10.5 36C7.4624 36 5 33.5375 5 30.5C5 27.4625 7.4624 25 10.5 25C13.5376 25 16 27.4625 16 30.5ZM36.5 33C35.1191 33 34 31.8807 34 30.5C34 29.1193 35.1191 28 36.5 28C37.8809 28 39 29.1193 39 30.5C39 31.8807 37.8809 33 36.5 33ZM36.5 36C33.4624 36 31 33.5375 31 30.5C31 27.4625 33.4624 25 36.5 25C39.5376 25 42 27.4625 42 30.5C42 33.5375 39.5376 36 36.5 36ZM28 21C28 20.4477 27.5522 20 27 20H20C19.4478 20 19 20.4477 19 21V23H16V21C16 18.7908 17.791 17 20 17H27C29.209 17 31 18.7908 31 21V23H28V21ZM12 38H7C4.79102 38 3 39.7908 3 42V44H6V42C6 41.4477 6.44775 41 7 41H12V38ZM40 38H35V41H40C40.5522 41 41 41.4477 41 42V44H44V42C44 39.7908 42.209 38 40 38ZM5 8.11084L7.12109 5.9895L17.021 15.889L14.8994 18.0103L5 8.11084ZM39.8999 5.9895L42.021 8.11084L32.1216 18.0103L30 15.889L39.8999 5.9895Z"></path></symbol><symbol id="digital-observe-4" width="48" height="48" viewBox="0 0 48 48" xmlns="http://www.w3.org/2000/svg"><path fill-rule="evenodd" clip-rule="evenodd" d="M9 10H22H25H28C28 8.34315 26.6569 7 25 7H9C7.34315 7 6 8.34315 6 10V39C6 40.6569 7.34315 42 9 42H25C26.6569 42 28 40.6569 28 39H25H22H9L9 10ZM12 14H22V17H12V14ZM38.4998 14H25V17H38.4998C38.9559 17.6072 39.6821 18 40.5 18C41.8807 18 43 16.8807 43 15.5C43 14.1193 41.8807 13 40.5 13C39.6821 13 38.9559 13.3928 38.4998 14ZM25 20H32.4998C32.9559 19.3928 33.6821 19 34.5 19C35.8807 19 37 20.1193 37 21.5C37 22.8807 35.8807 24 34.5 24C33.6821 24 32.9559 23.6072 32.4998 23H25V20ZM38.4998 26H25V29H38.4998C38.9559 29.6072 39.6821 30 40.5 30C41.8807 30 43 28.8807 43 27.5C43 26.1193 41.8807 25 40.5 25C39.6821 25 38.9559 25.3928 38.4998 26ZM25 32H29.4998C29.9559 31.3928 30.6821 31 31.5 31C32.8807 31 34 32.1193 34 33.5C34 34.8807 32.8807 36 31.5 36C30.6821 36 29.9559 35.6072 29.4998 35H25V32ZM22 20H12V23H22V20ZM12 26H22V29H12V26ZM22 32H12V35H22V32Z"></path></symbol><symbol id="knowledge-centers-1" width="48" height="48" viewBox="0 0 48 48" xmlns="http://www.w3.org/2000/svg"><path fill-rule="evenodd" clip-rule="evenodd" d="M30.6449 37.4516C32.6076 36.4802 34.3271 35.092 35.6879 33.4025C35.4302 33.1877 35.1599 32.9794 34.8777 32.7783C34.2198 33.4596 33.3222 33.9079 32.3208 33.9873C31.8456 35.2674 31.2817 36.4316 30.6449 37.4516ZM28.0008 29.9204C28.0003 29.9469 28 29.9734 28 30C28 31.2422 28.5662 32.3521 29.4547 33.0858C29.1527 33.8804 28.8147 34.6119 28.4486 35.271C26.8737 38.1057 25.1772 39 24 39C22.8228 39 21.1263 38.1057 19.5514 35.271C18.7915 33.9031 18.1532 32.2232 17.705 30.3147C19.5302 29.7929 21.5418 29.5002 23.6687 29.5002C25.1796 29.5002 26.6321 29.6479 28.0008 29.9204ZM35.9991 29.9128C35.9674 28.4304 35.1292 27.1465 33.9057 26.4823C33.9679 25.6709 34 24.8422 34 24C34 22.4236 33.8874 20.8944 33.6759 19.4373C35.0355 18.8147 36.2798 18.0642 37.3759 17.2042C38.4144 19.2444 39 21.5538 39 24C39 26.4779 38.3992 28.8154 37.3353 30.8749C36.9119 30.5373 36.4658 30.2162 35.9991 29.9128ZM30.9225 26.1468C30.2773 26.3268 29.698 26.6645 29.2285 27.1157C27.4657 26.7142 25.5964 26.5002 23.6687 26.5002C21.4021 26.5002 19.2166 26.796 17.1902 27.3445C17.0664 26.2742 17 25.1557 17 24C17 23.6186 17.0072 23.2413 17.0214 22.8684C18.0181 22.606 18.8627 21.9685 19.3951 21.116C20.8149 21.3676 22.2941 21.4999 23.8093 21.4999C26.2655 21.4999 28.6264 21.1524 30.7928 20.5126C30.9276 21.6262 31 22.7928 31 24C31 24.7314 30.9734 25.448 30.9225 26.1468ZM14.8746 31.3728C15.4571 33.705 16.3074 35.7736 17.3551 37.4516C15.2676 36.4184 13.4551 34.9137 12.0568 33.0765C12.8873 32.4381 13.8331 31.8643 14.8746 31.3728ZM23.8093 18.4999C22.4574 18.4999 21.1522 18.3816 19.912 18.1614C19.6952 17.1452 19.0925 16.2719 18.2646 15.7023C18.6323 14.5989 19.0672 13.6006 19.5514 12.729C21.1263 9.89427 22.8228 9 24 9C25.1772 9 26.8737 9.89427 28.4486 12.729C29.1891 14.0618 29.8141 15.691 30.2602 17.5392C28.3082 18.1521 26.1273 18.4999 23.8093 18.4999ZM17.3551 10.5484C16.549 11.8395 15.8597 13.3619 15.3194 15.0577C14.6586 15.171 14.0531 15.4463 13.5454 15.8414C13.0347 15.5333 12.5549 15.2036 12.1092 14.855C13.5002 13.049 15.2936 11.5687 17.3551 10.5484ZM10.5185 17.4159C10.9995 17.7773 11.5073 18.1181 12.0393 18.4371C12.0134 18.621 12 18.8089 12 19C12 20.4949 12.8201 21.7983 14.0349 22.4848C14.0118 22.9844 14 23.4897 14 24C14 25.4983 14.1017 26.9538 14.2934 28.3454C12.8988 28.9407 11.6169 29.6675 10.4811 30.5072C9.53196 28.5389 9 26.3316 9 24C9 21.638 9.54592 19.4036 10.5185 17.4159ZM24 6C14.0589 6 6 14.0589 6 24C6 33.9411 14.0589 42 24 42C33.9411 42 42 33.9411 42 24C42 14.0589 33.9411 6 24 6ZM30.6449 10.5484C32.6346 11.5332 34.3745 12.9464 35.744 14.6674C34.9591 15.3104 34.0608 15.8933 33.0674 16.3996C32.4871 14.1603 31.6583 12.1716 30.6449 10.5484Z"></path></symbol><symbol id="knowledge-centers-2" width="48" height="48" viewBox="0 0 48 48" xmlns="http://www.w3.org/2000/svg"><path fill-rule="evenodd" clip-rule="evenodd" d="M27 6V16L24 16L28.5 22L33 16H30V6H27ZM9 7H13V10H9L9 31H39V10H35V7H39C40.6569 7 42 8.34315 42 10V31C42 32.6569 40.6569 34 39 34H26V39H32V42H16V39H22V34H9C7.34315 34 6 32.6569 6 31V10C6 8.34315 7.34315 7 9 7ZM21 12V22H18V12H15L19.5 6L24 12H21Z"></path></symbol><symbol id="knowledge-centers-4" width="48" height="48" viewBox="0 0 48 48" xmlns="http://www.w3.org/2000/svg"><path fill-rule="evenodd" clip-rule="evenodd" d="M15 11C15 12.1046 14.1045 13 13 13C11.8955 13 11 12.1046 11 11C11 9.89545 11.8955 9 13 9C14.1045 9 15 9.89545 15 11ZM18 11C18 13.7614 15.7612 16 13 16C10.2388 16 8 13.7614 8 11C8 8.23859 10.2388 6 13 6C15.7612 6 18 8.23859 18 11ZM9 18C6.79102 18 5 19.7908 5 22V33H10V43H16V33H21V22C21 19.7908 19.209 18 17 18H9ZM38.5 15C40.9854 15 43 12.9853 43 10.5C43 8.01471 40.9854 6 38.5 6C36.5405 6 34.874 7.2522 34.2559 9H29H28H26V40H28H29H34.2559C34.874 41.7478 36.5405 43 38.5 43C40.9854 43 43 40.9853 43 38.5C43 36.0147 40.9854 34 38.5 34C36.5405 34 34.874 35.2522 34.2559 37H29V26H34.2559C34.874 27.7478 36.5405 29 38.5 29C40.9854 29 43 26.9853 43 24.5C43 22.0147 40.9854 20 38.5 20C36.5405 20 34.874 21.2522 34.2559 23H29V12H34.2559C34.874 13.7478 36.5405 15 38.5 15Z"></path></symbol><symbol id="knowledge-centers-3" width="48" height="48" viewBox="0 0 48 48" xmlns="http://www.w3.org/2000/svg"><path fill-rule="evenodd" clip-rule="evenodd" d="M32.0002 24L44 43L20 43L32.0002 24ZM32 29L25.5563 40H38.5L32 29Z"></path><path fill-rule="evenodd" clip-rule="evenodd" d="M16 24C20.4183 24 24 20.4183 24 16C24 11.5817 20.4183 8 16 8C11.5817 8 8 11.5817 8 16C8 20.4183 11.5817 24 16 24ZM16 27C22.0751 27 27 22.0751 27 16C27 9.92487 22.0751 5 16 5C9.92487 5 5 9.92487 5 16C5 22.0751 9.92487 27 16 27Z"></path><path fill-rule="evenodd" clip-rule="evenodd" d="M13 26.5859C11.9239 26.2816 10.9148 25.8175 10 25.2211V38H23.1579L25.0527 35H13V26.5859ZM26.5859 13H35V28.7498L38.0001 33.5L38 10H25.2211C25.8175 10.9148 26.2816 11.9239 26.5859 13Z"></path></symbol><symbol id="link" width="24" height="24" viewBox="0 0 24 24" xmlns="http://www.w3.org/2000/svg"><path d="M13 3L16.293 6.293L9.29297 13.293L10.707 14.707L17.707 7.707L21 11V3H13Z"></path><path d="M19 19H5V5H12L10 3H5C3.897 3 3 3.897 3 5V19C3 20.103 3.897 21 5 21H19C20.103 21 21 20.103 21 19V14L19 12V19Z"></path></symbol><symbol id="solutions-filter-1" width="48" height="48" viewBox="0 0 48 48" xmlns="http://www.w3.org/2000/svg"><path fill-rule="evenodd" clip-rule="evenodd" d="M23.5 12C24.8809 12 26 10.8807 26 9.5C26 8.11926 24.8809 7 23.5 7C22.1191 7 21 8.11926 21 9.5C21 10.8807 22.1191 12 23.5 12ZM23.5 15C26.5376 15 29 12.5375 29 9.5C29 6.46246 26.5376 4 23.5 4C20.4624 4 18 6.46246 18 9.5C18 12.5375 20.4624 15 23.5 15ZM22 25V38H16V41H31V38H25V25H22ZM13 30.5C13 31.8807 11.8809 33 10.5 33C9.11914 33 8 31.8807 8 30.5C8 29.1193 9.11914 28 10.5 28C11.8809 28 13 29.1193 13 30.5ZM16 30.5C16 33.5375 13.5376 36 10.5 36C7.4624 36 5 33.5375 5 30.5C5 27.4625 7.4624 25 10.5 25C13.5376 25 16 27.4625 16 30.5ZM36.5 33C35.1191 33 34 31.8807 34 30.5C34 29.1193 35.1191 28 36.5 28C37.8809 28 39 29.1193 39 30.5C39 31.8807 37.8809 33 36.5 33ZM36.5 36C33.4624 36 31 33.5375 31 30.5C31 27.4625 33.4624 25 36.5 25C39.5376 25 42 27.4625 42 30.5C42 33.5375 39.5376 36 36.5 36ZM28 21C28 20.4477 27.5522 20 27 20H20C19.4478 20 19 20.4477 19 21V23H16V21C16 18.7908 17.791 17 20 17H27C29.209 17 31 18.7908 31 21V23H28V21ZM12 38H7C4.79102 38 3 39.7908 3 42V44H6V42C6 41.4477 6.44775 41 7 41H12V38ZM40 38H35V41H40C40.5522 41 41 41.4477 41 42V44H44V42C44 39.7908 42.209 38 40 38ZM5 8.11084L7.12109 5.9895L17.021 15.889L14.8994 18.0103L5 8.11084ZM39.8999 5.9895L42.021 8.11084L32.1216 18.0103L30 15.889L39.8999 5.9895Z"></path></symbol><symbol id="solutions-filter-2" width="48" height="48" viewBox="0 0 48 48" xmlns="http://www.w3.org/2000/svg"><path fill-rule="evenodd" clip-rule="evenodd" d="M34 4V19H43L27 43V29H17L34 4ZM23 26H30V33L38 22H31V13.9083L23 26ZM14 13.9531H22V16.9531H14V13.9531ZM14 25.9531H5V28.9531H14V25.9531ZM8 31.9531H24V34.9531H8V31.9531ZM18 19.9531H8V22.9531H18V19.9531Z"></path></symbol><symbol id="solutions-filter-3" width="48" height="48" viewBox="0 0 48 48" xmlns="http://www.w3.org/2000/svg"><path d="M35.8438 41.504L43.1969 43.2008L41.5001 35.8477L39.8033 37.5445L35.2783 33.0195L33.0156 35.2822L37.5406 39.8072L35.8438 41.504Z"></path><path d="M12.15 6.49758L4.79688 4.80078L6.49368 12.1539L8.19048 10.4571L12.7159 14.9821L14.9782 12.7198L10.4532 8.19438L12.15 6.49758Z"></path><path d="M41.5001 12.1539L43.1969 4.80078L35.8438 6.49758L37.5406 8.19438L33.0156 12.7198L35.2783 14.9821L39.8033 10.4571L41.5001 12.1539Z"></path><path d="M6.49368 35.8477L4.79688 43.2008L12.15 41.504L10.4532 39.8072L14.9782 35.2822L12.7159 33.0195L8.19048 37.5445L6.49368 35.8477Z"></path><path d="M25.1984 25.5288V28.0003H22.7984V25.5288C19.8047 25.3848 16.894 24.6946 14.3984 23.4634V30.4008C14.3984 31.2807 15.1184 32.0011 15.9983 32.0011H31.9981C32.8775 32.0011 33.598 31.2807 33.598 30.4008V23.4629C31.1015 24.6941 28.1922 25.3848 25.1984 25.5288Z"></path><path d="M33.5984 20.7923V19.1987C33.5984 18.3188 32.878 17.5988 31.9986 17.5988H28.7984V14.3987C28.7984 13.5188 28.078 12.7988 27.1986 12.7988H20.7983C19.9184 12.7988 19.1984 13.5188 19.1984 14.3987V17.5988H15.9983C15.1184 17.5988 14.3984 18.3188 14.3984 19.1987V20.7923C19.7 23.9924 28.2954 23.9924 33.5984 20.7923ZM21.5984 15.1988H26.3984V17.5988H21.5984V15.1988Z"></path></symbol><symbol id="solutions-filter-5" width="48" height="48" viewBox="0 0 48 48" xmlns="http://www.w3.org/2000/svg"><path fill-rule="evenodd" clip-rule="evenodd" d="M24 14C25.6567 14 27 12.6569 27 11C27 9.34314 25.6567 8 24 8C22.3433 8 21 9.34314 21 11C21 12.6569 22.3433 14 24 14ZM30 11C30 12.5807 29.3887 14.0187 28.3896 15.0904C32.3198 16.1724 35.6616 18.6713 37.8315 22H39.3745C41.2568 22 42.6738 23.7126 42.3218 25.5613L39.5713 40H43V43H36.5176H11.4824H5V40H8.42871L5.67822 25.5613C5.32617 23.7126 6.74365 22 8.62549 22H10.1689C12.3389 18.6713 15.6807 16.1725 19.6104 15.0905C18.6113 14.0187 18 12.5807 18 11C18 7.68628 20.6865 5 24 5C27.3135 5 30 7.68628 30 11ZM11.4824 40H36.5176L39.3745 25H8.62549L11.4824 40ZM24 17.5C27.9971 17.5 31.5894 19.2366 34.0625 22H13.9375C16.4106 19.2366 20.0034 17.5 24 17.5ZM24 37C25.6567 37 27 35.6569 27 34C27 32.3431 25.6567 31 24 31C22.3433 31 21 32.3431 21 34C21 35.6569 22.3433 37 24 37Z"></path></symbol><symbol id="subject-areas-1" width="48" height="48" viewBox="0 0 48 48" xmlns="http://www.w3.org/2000/svg"><path fill-rule="evenodd" clip-rule="evenodd" d="M8 8H40V26H43V8C43 6.34314 41.6567 5 40 5H8C6.34326 5 5 6.34314 5 8V26H8V8ZM16 10C15.0112 10 14.0444 10.2933 13.2222 10.8427C12.3999 11.392 11.7593 12.173 11.3804 13.0866C11.002 14.0002 10.9033 15.0056 11.0962 15.9755C11.2891 16.9454 11.7651 17.8362 12.4644 18.5355C13.1636 19.2348 14.0547 19.711 15.0244 19.9039C15.9946 20.0969 17 19.9979 17.9136 19.6194C18.8271 19.241 19.6079 18.6001 20.1572 17.7778C20.7065 16.9556 21 15.9889 21 15H16V10ZM33 11H24V14H33V11ZM11 23V26H21V23H11ZM24 18H29V21H24V18ZM37 18H32V21H37V18ZM10 35C11.1045 35 12 34.1046 12 33C12 31.8954 11.1045 31 10 31C8.89551 31 8 31.8954 8 33C8 34.1046 8.89551 35 10 35ZM10 38C12.7612 38 15 35.7614 15 33C15 30.2386 12.7612 28 10 28C7.23877 28 5 30.2386 5 33C5 35.7614 7.23877 38 10 38ZM26 33C26 34.1046 25.1045 35 24 35C22.8955 35 22 34.1046 22 33C22 31.8954 22.8955 31 24 31C25.1045 31 26 31.8954 26 33ZM29 33C29 35.7614 26.7612 38 24 38C21.2388 38 19 35.7614 19 33C19 30.2386 21.2388 28 24 28C26.7612 28 29 30.2386 29 33ZM40 33C40 34.1046 39.1045 35 38 35C36.8955 35 36 34.1046 36 33C36 31.8954 36.8955 31 38 31C39.1045 31 40 31.8954 40 33ZM43 33C43 35.7614 40.7612 38 38 38C35.2388 38 33 35.7614 33 33C33 30.2386 35.2388 28 38 28C40.7612 28 43 30.2386 43 33ZM16 43H5V40H13C14.6567 40 16 41.3431 16 43ZM27 40C28.6567 40 30 41.3431 30 43H18C18 41.3431 19.3433 40 21 40H27ZM43 43V40H35C33.3433 40 32 41.3431 32 43H43Z"></path></symbol><symbol id="subject-areas-3" width="48" height="48" viewBox="0 0 48 48" xmlns="http://www.w3.org/2000/svg"><path fill-rule="evenodd" clip-rule="evenodd" d="M11.7175 6.76777L5 5L6.76777 11.7175L8.18198 10.3033L12.4246 14.5459L14.5459 12.4246L10.3033 8.18198L11.7175 6.76777ZM36.2825 41.2322L43 43L41.2322 36.2825L39.818 37.6967L35.5754 33.4541L33.4541 35.5754L37.6967 39.818L36.2825 41.2322ZM43 5L41.2322 11.7175L39.818 10.3033L35.5754 14.5459L33.4541 12.4246L37.6967 8.18198L36.2825 6.76777L43 5ZM6.76777 36.2825L5 43L11.7175 41.2322L10.3033 39.818L14.5459 35.5754L12.4246 33.4541L8.18198 37.6967L6.76777 36.2825ZM33.9468 19.4346C33.6824 18.0481 32.4636 17 31 17H29V15C29 13.067 27.933 11 26 11H22C20.067 11 19 13.067 19 15V17H17C15.5364 17 14.3176 18.048 14.0532 19.4346C16.6621 20.9983 20.122 22 24 22C27.878 22 31.3379 20.9983 33.9468 19.4346ZM14 22.8109V29C14 30.6569 15.3431 32 17 32H31C32.6569 32 34 30.6569 34 29V22.8109C31.3992 24.0682 28.3193 24.849 25 24.9803V28H23V24.9803C19.6807 24.849 16.6008 24.0682 14 22.8109ZM22.5 14C22 14 22 14.5 22 15V17H26V15C26 14.5 26 14 25.5 14H22.5Z"></path></symbol><symbol id="subject-areas-4" width="48" height="48" viewBox="0 0 48 48" xmlns="http://www.w3.org/2000/svg"><path fill-rule="evenodd" clip-rule="evenodd" d="M34 4V19H43L27 43V29H17L34 4ZM23 26H30V33L38 22H31V13.9083L23 26ZM14 13.9541H22V16.9541H14V13.9541ZM14 25.9541H5V28.9541H14V25.9541ZM8 31.9541H24V34.9541H8V31.9541ZM18 19.9541H8V22.9541H18V19.9541Z"></path></symbol><symbol id="subject-areas-5" width="48" height="48" viewBox="0 0 48 48" xmlns="http://www.w3.org/2000/svg"><path fill-rule="evenodd" clip-rule="evenodd" d="M24 14C25.6567 14 27 12.6569 27 11C27 9.34314 25.6567 8 24 8C22.3433 8 21 9.34314 21 11C21 12.6569 22.3433 14 24 14ZM30 11C30 12.5807 29.3887 14.0187 28.3896 15.0904C32.3198 16.1724 35.6616 18.6713 37.8315 22H39.3745C41.2568 22 42.6738 23.7126 42.3218 25.5613L39.5713 40H43V43H36.5176H11.4824H5V40H8.42871L5.67822 25.5613C5.32617 23.7126 6.74365 22 8.62549 22H10.1689C12.3389 18.6713 15.6807 16.1725 19.6104 15.0905C18.6113 14.0187 18 12.5807 18 11C18 7.68628 20.6865 5 24 5C27.3135 5 30 7.68628 30 11ZM11.4824 40H36.5176L39.3745 25H8.62549L11.4824 40ZM24 17.5C27.9971 17.5 31.5894 19.2366 34.0625 22H13.9375C16.4106 19.2366 20.0034 17.5 24 17.5ZM24 37C25.6567 37 27 35.6569 27 34C27 32.3431 25.6567 31 24 31C22.3433 31 21 32.3431 21 34C21 35.6569 22.3433 37 24 37Z"></path></symbol><symbol id="techSupport-1" width="48" height="48" viewBox="0 0 48 48" xmlns="http://www.w3.org/2000/svg"><path d="M25.6008 11.1992C22.9507 11.1992 20.8008 13.3491 20.8008 15.9992C20.8008 18.6493 22.9507 20.7992 25.6008 20.7992C28.2509 20.7992 30.4008 18.6493 30.4008 15.9992C30.4008 13.3496 28.2509 11.1992 25.6008 11.1992ZM25.6008 17.5995C24.7181 17.5995 24.0009 16.8839 24.0009 15.9997C24.0009 15.1151 24.7181 14.3994 25.6008 14.3994C26.4854 14.3994 27.2011 15.1151 27.2011 15.9992C27.2011 16.8839 26.4854 17.5995 25.6008 17.5995Z"></path><path d="M33.6 36.8008H24V40.0005H33.6V36.8008Z"></path><path d="M43.1994 30.4007H38.3994V27.2011C38.3994 24.5539 37.3227 22.1539 35.5837 20.4167L33.3229 22.6775C34.4821 23.8358 35.1992 25.4356 35.1992 27.2011V30.4007H31.9995V27.2011C31.9995 25.4337 30.5667 24.0009 28.7994 24.0009H19.1998C15.8451 24.0009 12.6853 22.643 10.3006 20.1758L8 22.4006C10.867 25.366 14.8266 27.2006 19.1994 27.2006V30.4003H14.3994V33.6009H17.5995V43.2009H20.7997V33.6009H36.7995V43.2009H39.9992V33.6009H43.1994V30.4007ZM22.3995 30.4007V27.2011H28.7994V30.4007H22.3995Z"></path><path d="M16.0006 4.80078H8.00094C6.24126 4.80078 4.80078 6.24126 4.80078 8.00094V12.8009C4.80078 14.5606 6.24126 16.0011 8.00094 16.0011H11.2011L16.0011 19.2013V16.0011C17.7603 16.0011 19.2013 14.5606 19.2013 12.8009V8.00094C19.2008 6.24126 17.7603 4.80078 16.0006 4.80078ZM16.0006 12.8009H8.00094V8.00094H16.0011V12.8009H16.0006Z"></path></symbol><symbol id="techSupport-2" width="48" height="48" viewBox="0 0 48 48" xmlns="http://www.w3.org/2000/svg"><path d="M38.671 36.4073C39.5067 35.1416 40.0006 33.6291 40.0006 32.0009C40.0006 27.5821 36.4193 24.0008 32.0009 24.0008C31.9145 24.0008 31.8349 24.0229 31.7494 24.0257C31.687 23.5918 31.6371 23.1512 31.5512 22.7321L36.8024 20.5573L35.5774 17.6014L30.6709 19.6357C29.5976 16.7854 27.9349 14.4637 25.9208 12.9795L28.8017 6.02622L25.8464 4.80078L23.06 11.5261C22.3318 11.3134 21.5758 11.2006 20.8025 11.2006C20.0293 11.2006 19.2723 11.3129 18.5446 11.5261L15.7587 4.80078L12.8024 6.02574L15.6838 12.979C13.6683 14.4632 12.007 16.7854 10.9337 19.6352L6.02574 17.6009L4.80078 20.5568L10.0539 22.7317C9.86622 23.6571 9.72702 24.6133 9.65838 25.6006H4.80222V28.8008H9.65838C9.7275 29.7886 9.8667 30.7448 10.0539 31.6697L4.80222 33.8446L6.02574 36.8009L10.9337 34.7667C12.8225 39.7851 16.532 43.2008 20.8025 43.2008C23.6917 43.2008 26.3177 41.6225 28.304 39.0536C29.4147 39.6382 30.6603 40.0006 32.0009 40.0006C33.6305 40.0006 35.143 39.5072 36.4088 38.6696L40.9381 43.2008L43.2008 40.9381L38.671 36.4073ZM20.8025 14.4008C22.8886 14.4008 24.812 15.7664 26.2539 17.9446C22.8133 19.5853 18.7913 19.5853 15.3507 17.9446C16.7912 15.7635 18.7165 14.4008 20.8025 14.4008ZM25.8445 37.051C24.4568 38.8851 22.6942 40.0011 20.8025 40.0011C16.4667 40.0011 12.8024 34.1389 12.8024 27.2014C12.8024 24.8792 13.2195 22.6856 13.9289 20.7824C18.2667 22.8795 23.3355 22.8824 27.6776 20.7857C28.1321 22.0045 28.4494 23.3513 28.6309 24.7702C25.9025 26.0413 24.0008 28.7912 24.0008 32.0009C24.0008 33.9257 24.7102 35.6696 25.8445 37.051ZM32.0009 36.8009C29.3494 36.8009 27.2009 34.651 27.2009 32.0009C27.2009 29.348 29.3494 27.2009 32.0009 27.2009C34.652 27.2009 36.8009 29.348 36.8009 32.0009C36.8009 34.651 34.652 36.8009 32.0009 36.8009Z"></path></symbol><symbol id="techSupport-3" width="48" height="48" viewBox="0 0 48 48" xmlns="http://www.w3.org/2000/svg"><path d="M40.0001 4.80078H8.00094C6.24078 4.80078 4.80078 6.2403 4.80078 8.00046V33.6003C4.80078 35.3595 6.24078 36.8 8.00094 36.8H22.4005V40.0001H16.0006V43.1998H32.0005V40.0001H25.6011V36.8H40.0001C41.7598 36.8 43.2008 35.3595 43.2008 33.6003V8.00046C43.2008 6.2403 41.7598 4.80078 40.0001 4.80078ZM40.0001 33.6003H8.00094V8.00046H40.0001V33.6003Z"></path><path d="M28.5374 15.6699L22.8 21.4054L20.2622 18.8696L18 21.1318L22.8 25.9318L30.7997 17.9322L28.5374 15.6699Z"></path></symbol><symbol id="techSupport-4" width="48" height="48" viewBox="0 0 48 48" xmlns="http://www.w3.org/2000/svg"><path d="M38.4008 19.2008H30.4001C29.516 19.2008 28.8008 18.4851 28.8008 17.6005V11.2011C28.8008 7.66686 25.9347 4.80078 22.4009 4.80078H20.8016C19.9165 4.80078 19.2013 5.51646 19.2013 6.4011V14.4008C19.2013 17.0509 17.0513 19.2008 14.4013 19.2008H8.00142C6.24174 19.2008 4.80078 20.6413 4.80078 22.4005V36.8005C4.80078 38.5592 6.24174 40.0001 8.00142 40.0001H14.4008C15.5105 41.9033 18.4385 43.1969 20.8011 43.1969V43.1998H38.4008C41.0504 43.1969 43.1989 41.0499 43.1989 38.3998H43.2008V24.0008C43.2008 21.3502 41.0504 19.2008 38.4008 19.2008ZM8.00142 36.8005V22.4005H14.4008V36.8005H8.00142ZM39.9992 38.3998C39.9992 39.2849 39.284 40.0001 38.3989 40.0001H20.8011V39.9973C19.0333 39.9973 17.6005 38.5625 17.6005 36.7966V21.7256C20.4243 20.4881 22.4005 17.6787 22.4005 14.4008V8.00094C24.1683 8.00094 25.6006 9.43182 25.6006 11.2011V17.6005C25.6006 20.2505 27.7505 22.4005 30.3997 22.4005H38.4008C39.2849 22.4005 40.0001 23.1161 40.0001 24.0008V38.3998H39.9992Z"></path></symbol><symbol id="subject-areas-2" width="48" height="48" viewBox="0 0 48 48" xmlns="http://www.w3.org/2000/svg"><path fill-rule="evenodd" clip-rule="evenodd" d="M25.0381 18L27.3337 12.7529C28.3144 10.5112 26.672 8 24.2252 8C21.8562 8 20.2164 10.3662 21.0482 12.5843L23.0791 18H25.0381ZM27.0001 21L30.0821 13.9554C31.93 9.73163 28.8355 5 24.2252 5C19.7616 5 16.672 9.45828 18.2392 13.6377L21.0001 21H27.0001ZM16.0427 16.8362L17.2145 19.907L13.5608 23.5608L11.4395 21.4395L16.0427 16.8362ZM14.4972 12.2264C14.602 12.8671 14.7737 13.5105 15.0175 14.1493L15.3782 15.0947L8.91205 16.9422L8.08789 14.0576L14.4972 12.2264ZM15.0323 7.18966C14.6701 8.11713 14.4481 9.10544 14.3881 10.1227L8.11353 8.44949L8.88651 5.55078L15.0323 7.18966ZM31.0001 19.907L32.1719 16.8362L36.7751 21.4395L34.6538 23.5608L31.0001 19.907ZM33.1971 14.1493C33.4409 13.5105 33.6126 12.8671 33.7174 12.2264L40.1267 14.0576L39.3025 16.9422L32.8364 15.0947L33.1971 14.1493ZM33.8265 10.1227C33.7665 9.10544 33.5445 8.11713 33.1823 7.18966L39.3281 5.55078L40.1011 8.44949L33.8265 10.1227ZM24 32C25.1046 32 26 31.1046 26 30C26 28.8954 25.1046 28 24 28C22.8954 28 22 28.8954 22 30C22 31.1046 22.8954 32 24 32ZM24 35C26.7614 35 29 32.7614 29 30C29 27.2386 26.7614 25 24 25C21.2386 25 19 27.2386 19 30C19 32.7614 21.2386 35 24 35ZM41 30C41 31.1046 40.1046 32 39 32C37.8954 32 37 31.1046 37 30C37 28.8954 37.8954 28 39 28C40.1046 28 41 28.8954 41 30ZM44 30C44 32.7614 41.7614 35 39 35C36.2386 35 34 32.7614 34 30C34 27.2386 36.2386 25 39 25C41.7614 25 44 27.2386 44 30ZM9 32C10.1046 32 11 31.1046 11 30C11 28.8954 10.1046 28 9 28C7.89543 28 7 28.8954 7 30C7 31.1046 7.89543 32 9 32ZM9 35C11.7614 35 14 32.7614 14 30C14 27.2386 11.7614 25 9 25C6.23858 25 4 27.2386 4 30C4 32.7614 6.23858 35 9 35ZM26 43V40H22V43H19V40C19 38.3431 20.3431 37 22 37H26C27.6569 37 29 38.3431 29 40V43H26ZM41 40V43H44V40C44 38.3431 42.6569 37 41 37H37C35.3431 37 34 38.3431 34 40V43H37V40H41ZM11 40H7V43H4V40C4 38.3431 5.34315 37 7 37H11C12.6569 37 14 38.3431 14 40V43H11V40Z"></path></symbol><symbol id="solutions-filter-4" width="48" height="48" viewBox="0 0 48 48" xmlns="http://www.w3.org/2000/svg"><path fill-rule="evenodd" clip-rule="evenodd" d="M8 8H40V26H43V8C43 6.34314 41.6567 5 40 5H8C6.34326 5 5 6.34314 5 8V26H8V8ZM16 10C15.0112 10 14.0444 10.2933 13.2222 10.8427C12.3999 11.392 11.7593 12.173 11.3804 13.0866C11.002 14.0002 10.9033 15.0056 11.0962 15.9755C11.2891 16.9454 11.7651 17.8362 12.4644 18.5355C13.1636 19.2348 14.0547 19.711 15.0244 19.9039C15.9946 20.0969 17 19.9979 17.9136 19.6194C18.8271 19.241 19.6079 18.6001 20.1572 17.7778C20.7065 16.9556 21 15.9889 21 15H16V10ZM33 11H24V14H33V11ZM11 23V26H21V23H11ZM24 18H29V21H24V18ZM37 18H32V21H37V18ZM10 35C11.1045 35 12 34.1046 12 33C12 31.8954 11.1045 31 10 31C8.89551 31 8 31.8954 8 33C8 34.1046 8.89551 35 10 35ZM10 38C12.7612 38 15 35.7614 15 33C15 30.2386 12.7612 28 10 28C7.23877 28 5 30.2386 5 33C5 35.7614 7.23877 38 10 38ZM26 33C26 34.1046 25.1045 35 24 35C22.8955 35 22 34.1046 22 33C22 31.8954 22.8955 31 24 31C25.1045 31 26 31.8954 26 33ZM29 33C29 35.7614 26.7612 38 24 38C21.2388 38 19 35.7614 19 33C19 30.2386 21.2388 28 24 28C26.7612 28 29 30.2386 29 33ZM40 33C40 34.1046 39.1045 35 38 35C36.8955 35 36 34.1046 36 33C36 31.8954 36.8955 31 38 31C39.1045 31 40 31.8954 40 33ZM43 33C43 35.7614 40.7612 38 38 38C35.2388 38 33 35.7614 33 33C33 30.2386 35.2388 28 38 28C40.7612 28 43 30.2386 43 33ZM16 43H5V40H13C14.6567 40 16 41.3431 16 43ZM27 40C28.6567 40 30 41.3431 30 43H18C18 41.3431 19.3433 40 21 40H27ZM43 43V40H35C33.3433 40 32 41.3431 32 43H43Z"></path></symbol></svg>